<?xml version="1.0" standalone="no"?>
<!DOCTYPE svg PUBLIC "-//W3C//DTD SVG 1.1//EN" "http://www.w3.org/Graphics/SVG/1.1/DTD/svg11.dtd" >
<svg>
<metadata>
Created by FontForge 20090914 at Sun Apr 19 19:07:15 2015
 By www-data
Digitized data copyright &#194;&#169; 2012-2014, The Mozilla Foundation and Telefonica S.A.
</metadata>
<defs>
<font id="FiraSans-Book" horiz-adv-x="560" >
  <font-face 
    font-family="Fira Sans Book"
    font-weight="350"
    font-stretch="normal"
    units-per-em="1000"
    panose-1="2 11 5 3 5 0 0 2 0 4"
    ascent="785"
    descent="-215"
    x-height="525.999"
    cap-height="688"
    bbox="-167 -500 1360 1050"
    underline-thickness="0"
    underline-position="0"
    unicode-range="U+000D-U+1F310"
  />
<missing-glyph horiz-adv-x="666" 
d="M123 -500v1550h420v-1550h-420zM178 -448h311v1446h-311v-1446zM409.5 419c17 -21.333 25.4961 -49.002 25.4961 -83.002c0 -35.333 -7.5 -62.666 -22.5 -81.999s-39.167 -31.333 -72.5 -36v-45c0 -7.33301 -2.5 -13.166 -7.5 -17.499s-10.833 -6.5 -17.5 -6.5
s-12.5 2.16699 -17.5 6.5s-7.5 10.166 -7.5 17.499v84c35.333 2 59.333 8.5 72 19.5s19 30.167 19 57.5c0 22 -4.33301 39 -13 51s-24.667 18 -48 18c-19.333 0 -36.666 -3.66699 -51.999 -11c-5.33301 -2 -9.66602 -3 -12.999 -3c-7.33301 0 -13.166 2.16699 -17.499 6.5
s-6.5 9.83301 -6.5 16.5c0 12.667 9.83301 22.334 29.5 29.001s40.834 10 63.501 10c40 0 68.5 -10.667 85.5 -32zM339.996 109.998c6.66699 -6.66699 10 -15 10 -25c0 -10.667 -3.33301 -19.5 -10 -26.5s-15 -10.5 -25 -10.5s-18.333 3.5 -25 10.5s-10 15.833 -10 26.5
c0 10 3.33301 18.333 10 25s15 10 25 10s18.333 -3.33301 25 -10z" />
    <glyph glyph-name="fi" unicode="fi" horiz-adv-x="581" 
d="M427 712l-29 -59c-36 18 -74 27 -114 27c-34.667 0 -59 -6.5 -73 -19.5s-21 -33.5 -21 -61.5v-73h293v-526h-84v461h-209v-461h-84v461h-85v65h85v73c0 46 14.5 82.333 43.5 109s72.833 40 131.5 40c51.333 0 100 -12 146 -36z" />
    <glyph glyph-name="fl" unicode="fl" horiz-adv-x="599" 
d="M502 -12c-32.667 0 -57.834 9.49707 -75.501 28.4971s-26.5 47.167 -26.5 84.5v561c-20.667 6.66699 -40 11.334 -58 14.001s-38.333 4 -61 4c-33.333 0 -56.833 -6.16699 -70.5 -18.5s-20.5 -32.166 -20.5 -59.499v-76h130l-9 -65h-121v-461h-84v461h-85v65h85v75
c0 44.667 14.5 80.334 43.5 107.001s70.833 40 125.5 40c23.333 0 44.5 -1.66699 63.5 -5s39.5 -8.33301 61.5 -15v1l84 10v-637c0 -14.667 2.83301 -25.667 8.5 -33s14.834 -11 27.501 -11s24 2 34 6l22 -59c-24 -11.333 -48.667 -17 -74 -17z" />
    <glyph glyph-name=".notdef" horiz-adv-x="666" 
d="M123 -500v1550h420v-1550h-420zM178 -448h311v1446h-311v-1446zM409.5 419c17 -21.333 25.4961 -49.002 25.4961 -83.002c0 -35.333 -7.5 -62.666 -22.5 -81.999s-39.167 -31.333 -72.5 -36v-45c0 -7.33301 -2.5 -13.166 -7.5 -17.499s-10.833 -6.5 -17.5 -6.5
s-12.5 2.16699 -17.5 6.5s-7.5 10.166 -7.5 17.499v84c35.333 2 59.333 8.5 72 19.5s19 30.167 19 57.5c0 22 -4.33301 39 -13 51s-24.667 18 -48 18c-19.333 0 -36.666 -3.66699 -51.999 -11c-5.33301 -2 -9.66602 -3 -12.999 -3c-7.33301 0 -13.166 2.16699 -17.499 6.5
s-6.5 9.83301 -6.5 16.5c0 12.667 9.83301 22.334 29.5 29.001s40.834 10 63.501 10c40 0 68.5 -10.667 85.5 -32zM339.996 109.998c6.66699 -6.66699 10 -15 10 -25c0 -10.667 -3.33301 -19.5 -10 -26.5s-15 -10.5 -25 -10.5s-18.333 3.5 -25 10.5s-10 15.833 -10 26.5
c0 10 3.33301 18.333 10 25s15 10 25 10s18.333 -3.33301 25 -10z" />
    <glyph glyph-name="CR" unicode="&#xd;" horiz-adv-x="268" 
 />
    <glyph glyph-name="space" unicode=" " horiz-adv-x="268" 
 />
    <glyph glyph-name="exclam" unicode="!" horiz-adv-x="241" 
d="M82 227l-9 461h92l-8 -461h-75zM166.5 98.5c12.333 -12.333 18.5 -27.5 18.5 -45.5s-6.16699 -33.333 -18.5 -46s-27.833 -19 -46.5 -19c-18 0 -33.167 6.33301 -45.5 19s-18.5 28 -18.5 46c0 17.333 6.16699 32.333 18.5 45s27.5 19 45.5 19
c18.667 0 34.167 -6.16699 46.5 -18.5z" />
    <glyph glyph-name="quotedbl" unicode="&#x22;" horiz-adv-x="390" 
d="M327 688l-14 -259h-63l-13 259h90zM153 688l-14 -259h-63l-13 259h90z" />
    <glyph glyph-name="numbersign" unicode="#" horiz-adv-x="515" 
d="M394 231h69v-64h-77l-22 -167h-73l22 167h-160l-22 -167h-72l22 167h-66v64h75l28 217h-66v65h75l20 155h72l-20 -155h160l20 155h73l-21 -155h69v-65h-77zM191 448l-29 -217h160l28 217h-159z" />
    <glyph glyph-name="dollar" unicode="$" horiz-adv-x="530" 
d="M438.5 57c-31.667 -34.667 -76.1709 -56.333 -133.504 -65v-146h-73v143c-81.333 4 -149.333 32.333 -204 85l50 54c48.667 -46.667 106.334 -70 173.001 -70c42.667 0 78 10.833 106 32.5s42 52.167 42 91.5c0 23.333 -4.33301 42.666 -13 57.999
s-23.5 28.833 -44.5 40.5s-51.167 23.5 -90.5 35.5c-68.667 20.667 -118.5 45.334 -149.5 74.001s-46.5 67.334 -46.5 116.001c0 46 16.333 84.667 49 116s75.334 49.666 128.001 54.999v146h73v-146c32.667 -4 61.667 -12 87 -24s50 -29 74 -51l-49 -53
c-22.667 21.333 -46.167 36.666 -70.5 45.999s-51.166 14 -80.499 14c-36.667 0 -66.5 -8.66699 -89.5 -26s-34.5 -41.666 -34.5 -72.999c0 -20.667 4.16699 -37.667 12.5 -51s23 -25.666 44 -36.999s51.5 -23 91.5 -35c42 -13.333 76.833 -27.5 104.5 -42.5
s49.834 -35.5 66.501 -61.5s25 -58.667 25 -98c0 -50.667 -15.833 -93.334 -47.5 -128.001z" />
    <glyph glyph-name="percent" unicode="%" horiz-adv-x="818" 
d="M208 -29l-59 38l463 700l59 -38zM321.5 632.5c29.667 -30.333 44.5 -70.833 44.5 -121.5s-14.833 -91.334 -44.5 -122.001s-68.167 -46 -115.5 -46c-46.667 0 -84.834 15.333 -114.501 46s-44.5 71.334 -44.5 122.001s14.833 91.167 44.5 121.5s67.834 45.5 114.501 45.5
c47.333 0 85.833 -15.167 115.5 -45.5zM140.5 590c-13 -20.667 -19.501 -47 -19.501 -79c0 -31.333 6.5 -57.5 19.5 -78.5s34.833 -31.5 65.5 -31.5s52.334 10.333 65.001 31s19 47 19 79c0 31.333 -6.5 57.5 -19.5 78.5s-34.5 31.5 -64.5 31.5
c-30.667 0 -52.5 -10.333 -65.5 -31zM726.999 277.5c29.333 -30.333 44 -70.833 44 -121.5s-14.667 -91.334 -44 -122.001s-67.666 -46 -114.999 -46c-46.667 0 -85 15.333 -115 46s-45 71.334 -45 122.001s14.833 91.167 44.5 121.5s68.167 45.5 115.5 45.5
s85.666 -15.167 114.999 -45.5zM547.499 234.5c-13 -20.333 -19.5 -46.5 -19.5 -78.5c0 -31.333 6.5 -57.5 19.5 -78.5s34.5 -31.5 64.5 -31.5c30.667 0 52.5 10.333 65.5 31s19.5 47 19.5 79c0 31.333 -6.5 57.333 -19.5 78s-34.833 31 -65.5 31
c-30 0 -51.5 -10.167 -64.5 -30.5z" />
    <glyph glyph-name="ampersand" unicode="&#x26;" horiz-adv-x="758" 
d="M395 680.5c27.333 -13 48.502 -31 63.502 -54s22.5 -48.833 22.5 -77.5c0 -39.333 -12.5 -73 -37.5 -101s-60.5 -55.667 -106.5 -83l183 -172c27.333 57.333 47.666 115.333 60.999 174l79 -22c-23.333 -77.333 -52.666 -144.333 -87.999 -201l115 -107l-61 -49l-101 97
c-28.667 -32 -60.834 -56.167 -96.501 -72.5s-77.167 -24.5 -124.5 -24.5c-42.667 0 -80.834 7.66699 -114.501 23s-59.834 37 -78.501 65s-28 60.667 -28 98c0 41.333 11.833 77.5 35.5 108.5s58.834 61.167 105.501 90.5c-34.667 32.667 -59.834 61.5 -75.501 86.5
s-23.5 53.5 -23.5 85.5c0 44.667 15.833 81.667 47.5 111s74.834 44 129.501 44c34.667 0 65.667 -6.5 93 -19.5zM233.002 611.5c-16.667 -17 -24.999 -38.833 -24.999 -65.5c0 -24 6.16699 -45.667 18.5 -65s33.166 -42.666 62.499 -69.999c36.667 21.333 64 42.5 82 63.5
s27 44.167 27 69.5c0 29.333 -8.66699 52.166 -26 68.499s-40.333 24.5 -69 24.5c-30 0 -53.333 -8.5 -70 -25.5zM194.003 257.5c-16.667 -23.667 -25 -50.499 -25 -80.499c0 -37.333 13.333 -67 40 -89s61.334 -33 104.001 -33c32.667 0 62.167 6.5 88.5 19.5
s51.166 32.167 74.499 57.5l-204 195c-35.333 -22.667 -61.333 -45.834 -78 -69.501z" />
    <glyph glyph-name="quotesingle" unicode="'" horiz-adv-x="216" 
d="M153 688l-14 -259h-63l-13 259h90z" />
    <glyph glyph-name="parenleft" unicode="(" horiz-adv-x="324" 
d="M198 669c-20.667 -40.667 -37 -86.832 -49 -138.499s-18 -111.834 -18 -180.501s6 -128.667 18 -180s28.333 -97.5 49 -138.5s48.334 -87.167 83.001 -138.5l-53 -36c-43.333 61.333 -77 112.333 -101 153s-44 89 -60 145s-24 121 -24 195s8 139 24 195
s36 104.333 60 145s57.667 91.667 101 153l53 -36c-34.667 -51.333 -62.334 -97.333 -83.001 -138z" />
    <glyph glyph-name="parenright" unicode=")" horiz-adv-x="324" 
d="M197 690c24 -40.667 44 -89.002 60 -145.002s24 -121 24 -195s-8 -139 -24 -195s-36 -104.333 -60 -145s-57.667 -91.667 -101 -153l-53 36c34.667 51.333 62.334 97.5 83.001 138.5s37 87.167 49 138.5s18 111.333 18 180s-6 128.834 -18 180.501
s-28.333 97.834 -49 138.501s-48.334 86.667 -83.001 138l53 36c43.333 -61.333 77 -112.333 101 -153z" />
    <glyph glyph-name="asterisk" unicode="*" horiz-adv-x="438" 
d="M365 414l-66 -49l-80 134l-80 -134l-66 48l102 118l-152 35l25 75l143 -61l-13 158h82l-13 -158l142 62l26 -76l-153 -35z" />
    <glyph glyph-name="plus" unicode="+" horiz-adv-x="498" 
d="M434 366v-70h-147v-150h-77v150h-146v70h146v150h77v-150h147z" />
    <glyph glyph-name="comma" unicode="," horiz-adv-x="232" 
d="M161.5 98.5c12.333 -12.333 18.5 -27.502 18.5 -45.502c0 -19.333 -5.66699 -41.666 -17 -66.999l-65 -149h-60l40 162c-8 6 -14.5 13.833 -19.5 23.5s-7.5 19.834 -7.5 30.501c0 17.333 6.16699 32.333 18.5 45s27.5 19 45.5 19c18.667 0 34.167 -6.16699 46.5 -18.5z
" />
    <glyph glyph-name="hyphen" unicode="-" horiz-adv-x="402" 
d="M341 349v-72h-279v72h279z" />
    <glyph glyph-name="period" unicode="." horiz-adv-x="232" 
d="M161.5 98.5c12.333 -12.333 18.5 -27.5 18.5 -45.5s-6.16699 -33.333 -18.5 -46s-27.833 -19 -46.5 -19c-18 0 -33.167 6.33301 -45.5 19s-18.5 28 -18.5 46c0 17.333 6.16699 32.333 18.5 45s27.5 19 45.5 19c18.667 0 34.167 -6.16699 46.5 -18.5z" />
    <glyph glyph-name="slash" unicode="/" horiz-adv-x="520" 
d="M181 -103l-73 17l232 892l72 -17z" />
    <glyph glyph-name="zero" unicode="0" horiz-adv-x="556" 
d="M442.5 590c37 -58.667 55.5 -144.333 55.5 -257c0 -112 -18.5 -197.5 -55.5 -256.5s-91.833 -88.5 -164.5 -88.5s-127.5 29.5 -164.5 88.5s-55.5 144.833 -55.5 257.5s18.5 198.167 55.5 256.5s91.833 87.5 164.5 87.5s127.5 -29.333 164.5 -88zM178 545.001
c-22 -44 -33 -114.334 -33 -211.001c0 -97.333 11 -168.166 33 -212.499s55.333 -66.5 100 -66.5c44 0 77.167 22.167 99.5 66.5s33.5 114.833 33.5 211.5c0 97.333 -11.167 168 -33.5 212s-55.5 66 -99.5 66c-44.667 0 -78 -22 -100 -66z" />
    <glyph glyph-name="one" unicode="1" horiz-adv-x="428" 
d="M232 0v578l-158 -97l-37 60l205 127h74v-668h-84z" />
    <glyph glyph-name="two" unicode="2" horiz-adv-x="491" 
d="M331 654.5c30 -15.667 53.002 -37.165 69.002 -64.498s24 -58.333 24 -93c0 -41.333 -9.16699 -80.833 -27.5 -118.5s-46.5 -78.167 -84.5 -121.5s-96.667 -105.333 -176 -186h304l-10 -71h-390v67c89.333 94 153 163 191 207s65 82.167 81 114.5s24 67.166 24 104.499
c0 36 -10.333 64.333 -31 85s-48 31 -82 31c-28 0 -52.833 -5.83301 -74.5 -17.5s-43.167 -30.5 -64.5 -56.5l-57 44c27.333 33.333 57.166 58.166 89.499 74.499s69.166 24.5 110.499 24.5c39.333 0 74 -7.83301 104 -23.5z" />
    <glyph glyph-name="three" unicode="3" horiz-adv-x="496" 
d="M328.5 655c29.667 -15.333 52.1689 -35.835 67.502 -61.502s23 -53.834 23 -84.501c0 -41.333 -12 -75.166 -36 -101.499s-55.667 -43.833 -95 -52.5c44 -4 80.167 -20 108.5 -48s42.5 -66.333 42.5 -115c0 -38.667 -9.16699 -73.5 -27.5 -104.5s-44.5 -55.333 -78.5 -73
s-73.333 -26.5 -118 -26.5c-82 0 -148.333 29.667 -199 89l52 48c21.333 -23.333 43.666 -40.5 66.999 -51.5s49 -16.5 77 -16.5c43.333 0 77.333 12.333 102 37s37 57.334 37 98.001c0 45.333 -11.667 77.5 -35 96.5s-57 28.5 -101 28.5h-49l10 65h34
c35.333 0 64.833 10.667 88.5 32s35.5 51.333 35.5 90c0 32.667 -10.333 58.5 -31 77.5s-48.667 28.5 -84 28.5c-26.667 0 -50.834 -4.66699 -72.501 -14s-44.167 -24.666 -67.5 -45.999l-44 50c56 52 119 78 189 78c40 0 74.833 -7.66699 104.5 -23z" />
    <glyph glyph-name="four" unicode="4" horiz-adv-x="529" 
d="M410 167v-167h-82v167h-287v61l202 450l70 -29l-183 -414h199l8 183h73v-183h87v-68h-87z" />
    <glyph glyph-name="five" unicode="5" horiz-adv-x="498" 
d="M153 602l0.00390625 -203.999c35.333 18 71.666 27 108.999 27c57.333 0 103.166 -18.833 137.499 -56.5s51.5 -89.167 51.5 -154.5c0 -44 -9.5 -83.167 -28.5 -117.5s-45.667 -61 -80 -80s-74.166 -28.5 -119.499 -28.5c-40 0 -75.833 7.16699 -107.5 21.5
s-60.834 35.166 -87.501 62.499l51 50c20.667 -22.667 42.5 -39.167 65.5 -49.5s49.167 -15.5 78.5 -15.5c43.333 0 77.666 14 102.999 42s38 67 38 117s-11.5 86.333 -34.5 109s-53.833 34 -92.5 34c-18.667 0 -35.334 -2 -50.001 -6s-30.667 -10.333 -48 -19h-66v334h356
l-12 -66h-264z" />
    <glyph glyph-name="six" unicode="6" horiz-adv-x="531" 
d="M397 414c28 -16 50.167 -39.833 66.5 -71.5s24.5 -70.5 24.5 -116.5c0 -47.333 -9.16699 -89 -27.5 -125s-43.333 -63.833 -75 -83.5s-67.167 -29.5 -106.5 -29.5c-76.667 0 -132.667 28.833 -168 86.5s-53 136.5 -53 236.5c0 74 10 138.5 30 193.5s48.667 97.667 86 128
s81.666 45.5 132.999 45.5c49.333 0 94.333 -13.333 135 -40l-33 -56c-31.333 19.333 -65.666 29 -102.999 29c-49.333 0 -88.5 -23.833 -117.5 -71.5s-44.5 -111.5 -46.5 -191.5c42.667 60 97 90 163 90c33.333 0 64 -8 92 -24zM371 100.5c21.333 30.333 32 71.5 32 123.5
c0 51.333 -10 88.666 -30 111.999s-47.333 35 -82 35c-30 0 -57.833 -8.66699 -83.5 -26s-47.167 -40.666 -64.5 -69.999c2 -74.667 13.833 -130 35.5 -166s55.167 -54 100.5 -54c40 0 70.667 15.167 92 45.5z" />
    <glyph glyph-name="seven" unicode="7" horiz-adv-x="442" 
d="M158 -9l-77 25l245 583h-300v69h385v-63z" />
    <glyph glyph-name="eight" unicode="8" horiz-adv-x="548" 
d="M501 178c0 -36.667 -9.66602 -69.501 -28.999 -98.501s-46.333 -51.5 -81 -67.5s-74.334 -24 -119.001 -24s-84 8 -118 24s-60.333 38.167 -79 66.5s-28 60.833 -28 97.5c0 42 11.5 77.333 34.5 106s56.5 52 100.5 70c-36.667 18 -63.667 39.667 -81 65
s-26 55.666 -26 90.999s9.33301 65.833 28 91.5s43.167 45.167 73.5 58.5s62.833 20 97.5 20s67.167 -6.33301 97.5 -19s55 -31.667 74 -57s28.5 -56 28.5 -92c0 -33.333 -9.5 -62.166 -28.5 -86.499s-48.167 -46.166 -87.5 -65.499c95.333 -38.667 143 -98.667 143 -180z
M189.501 586.499c-21 -19 -31.498 -45.5 -31.498 -79.5c0 -32 9.66699 -56.667 29 -74s50.666 -33.333 93.999 -48l21 -7c31.333 18 54 36.833 68 56.5s21 43.834 21 72.501c0 33.333 -10.333 59.666 -31 78.999s-49.334 29 -86.001 29c-35.333 0 -63.5 -9.5 -84.5 -28.5z
M375.003 88.499c25.333 21.667 37.999 51.167 37.999 88.5c0 24.667 -4.66699 45.334 -14 62.001s-24.333 31.167 -45 43.5s-49.667 25.166 -87 38.499l-28 9c-35.333 -16 -61.5 -36.5 -78.5 -61.5s-25.5 -55.833 -25.5 -92.5c0 -38 12.333 -67.5 37 -88.5
s58.334 -31.5 101.001 -31.5s76.667 10.833 102 32.5z" />
    <glyph glyph-name="nine" unicode="9" horiz-adv-x="523" 
d="M417 608c36 -46.667 53.999 -110.669 53.999 -192.002c0 -89.333 -12.333 -161.833 -37 -217.5s-62 -100 -112 -133s-117.333 -61.833 -202 -86.5l-20 63c90.667 26 159.834 61.333 207.501 106s73.167 104.334 76.5 179.001c-16.667 -24.667 -38.167 -44.667 -64.5 -60
s-55.833 -23 -88.5 -23c-34.667 0 -66 8.66699 -94 26s-50 42.333 -66 75s-24 70.334 -24 113.001c0 44.667 9.33301 83.667 28 117s44 58.833 76 76.5s67.667 26.5 107 26.5c70 0 123 -23.333 159 -70zM384.999 397.998c1.33301 74.667 -8.16797 128.833 -28.501 162.5
s-52.5 50.5 -96.5 50.5c-40.667 0 -72.167 -13.5 -94.5 -40.5s-33.5 -65.167 -33.5 -114.5c0 -47.333 10.5 -83.333 31.5 -108s49.167 -37 84.5 -37c54.667 0 100.334 29 137.001 87z" />
    <glyph glyph-name="colon" unicode=":" horiz-adv-x="232" 
d="M161.5 98.5c12.333 -12.333 18.5 -27.5 18.5 -45.5s-6.16699 -33.333 -18.5 -46s-27.833 -19 -46.5 -19c-18 0 -33.167 6.33301 -45.5 19s-18.5 28 -18.5 46c0 17.333 6.16699 32.333 18.5 45s27.5 19 45.5 19c18.667 0 34.167 -6.16699 46.5 -18.5zM161.5 471.5
c12.333 -12.333 18.5 -27.5 18.5 -45.5s-6.16699 -33.333 -18.5 -46s-27.833 -19 -46.5 -19c-18 0 -33.167 6.33301 -45.5 19s-18.5 28 -18.5 46c0 17.333 6.16699 32.333 18.5 45s27.5 19 45.5 19c18.667 0 34.167 -6.16699 46.5 -18.5z" />
    <glyph glyph-name="semicolon" unicode=";" horiz-adv-x="232" 
d="M161.5 98.5c12.333 -12.333 18.5 -27.502 18.5 -45.502c0 -19.333 -5.66699 -41.666 -17 -66.999l-65 -149h-60l40 162c-8 6 -14.5 13.833 -19.5 23.5s-7.5 19.834 -7.5 30.501c0 17.333 6.16699 32.333 18.5 45s27.5 19 45.5 19c18.667 0 34.167 -6.16699 46.5 -18.5z
M161.5 471.498c12.333 -12.333 18.5 -27.5 18.5 -45.5s-6.16699 -33.333 -18.5 -46s-27.833 -19 -46.5 -19c-18 0 -33.167 6.33301 -45.5 19s-18.5 28 -18.5 46c0 17.333 6.16699 32.333 18.5 45s27.5 19 45.5 19c18.667 0 34.167 -6.16699 46.5 -18.5z" />
    <glyph glyph-name="less" unicode="&#x3c;" horiz-adv-x="499" 
d="M121 333l325 -145l-30 -68l-363 171v84l363 171l30 -70z" />
    <glyph glyph-name="equal" unicode="=" horiz-adv-x="498" 
d="M435 461v-71h-371v71h371zM435 273v-71h-371v71h371z" />
    <glyph glyph-name="greater" unicode="&#x3e;" horiz-adv-x="499" 
d="M446 291l-362 -171l-31 68l325 145l-325 143l31 70l362 -171v-84z" />
    <glyph glyph-name="question" unicode="?" horiz-adv-x="456" 
d="M338 678.5c28 -14.333 49.334 -33.1699 64.001 -56.5029s22 -48.666 22 -75.999c0 -25.333 -4.33301 -47 -13 -65s-19.5 -32.833 -32.5 -44.5s-29.833 -24.5 -50.5 -38.5c-28.667 -19.333 -50 -37.5 -64 -54.5s-21.333 -40.167 -22 -69.5v-47h-83v52
c0 28.667 4.83301 53 14.5 73s21.167 36 34.5 48s31 25.667 53 41c25.333 16.667 44.166 31.834 56.499 45.501s18.5 31.834 18.5 54.501c0 28 -9.33301 49.833 -28 65.5s-44 23.5 -76 23.5c-54.667 0 -102 -24 -142 -72l-57 44c55.333 65.333 123.333 98 204 98
c39.333 0 73 -7.16699 101 -21.5zM249.501 98.4961c12.333 -12.333 18.5 -27.5 18.5 -45.5s-6.16699 -33.333 -18.5 -46s-27.833 -19 -46.5 -19c-18 0 -33.167 6.33301 -45.5 19s-18.5 28 -18.5 46c0 17.333 6.16699 32.333 18.5 45s27.5 19 45.5 19
c18.667 0 34.167 -6.16699 46.5 -18.5z" />
    <glyph glyph-name="at" unicode="@" horiz-adv-x="1020" 
d="M754 646.5c63.333 -35.667 111.33 -83.332 143.997 -142.999s49 -125.167 49 -196.5c0 -88.667 -16.833 -160.334 -50.5 -215.001s-81.5 -82 -143.5 -82c-36.667 0 -65.334 10.167 -86.001 30.5s-34.334 44.833 -41.001 73.5c-13.333 -30 -31.666 -54.5 -54.999 -73.5
s-53 -28.5 -89 -28.5c-52.667 0 -94.5 19.833 -125.5 59.5s-46.5 92.834 -46.5 159.501c0 83.333 19.833 147.333 59.5 192s91.834 67 156.501 67c26.667 0 52.334 -3 77.001 -9s50.334 -16 77.001 -30v-259c0 -42 6.16699 -72 18.5 -90s30.166 -27 53.499 -27
c34.667 0 61.667 18.667 81 56s29 95.333 29 174c0 64.667 -12.833 121.5 -38.5 170.5s-63.834 87 -114.501 114s-111.667 40.5 -183 40.5c-74 0 -138.833 -16.833 -194.5 -50.5s-98.5 -80 -128.5 -139s-45 -125.5 -45 -199.5c0 -75.333 14.5 -141.833 43.5 -199.5
s71.333 -102.5 127 -134.5s121.5 -48 197.5 -48c64.667 0 128.334 11 191.001 33l23 -65c-37.333 -12.667 -72.166 -22.167 -104.499 -28.5s-69.166 -9.5 -110.499 -9.5c-88.667 0 -167.167 18.333 -235.5 55s-121.5 89.167 -159.5 157.5s-57 148.166 -57 239.499
c0 85.333 19 163 57 233s91.5 125.167 160.5 165.5s147.5 60.5 235.5 60.5c88.667 0 164.667 -17.833 228 -53.5zM564.497 101.502c17.667 18.333 30.8311 39.168 39.498 62.501v249c-23.333 10.667 -48.666 16 -75.999 16c-44.667 0 -78.5 -16.833 -101.5 -50.5
s-34.5 -82.834 -34.5 -147.501c0 -51.333 8.66699 -90.333 26 -117s42 -40 74 -40c30.667 0 54.834 9.16699 72.501 27.5z" />
    <glyph glyph-name="A" unicode="A" horiz-adv-x="571" 
d="M150 176l-54 -176h-88l223 688h110l222 -688h-92l-53 176h-268zM284 616l-112 -369h224z" />
    <glyph glyph-name="B" unicode="B" horiz-adv-x="606" 
d="M559 195c0 -130 -89 -195.002 -267 -195.002h-189v688h160c85.333 0 150.833 -14.333 196.5 -43s68.5 -72 68.5 -130c0 -40.667 -12.167 -74.167 -36.5 -100.5s-54.833 -43.166 -91.5 -50.499c106 -17.333 159 -73.666 159 -168.999zM189 393.998h111.999
c40.667 0 73.834 10 99.501 30s38.5 48.333 38.5 85c0 40.667 -13.833 69.167 -41.5 85.5s-69.5 24.5 -125.5 24.5h-83v-225zM421.999 96.998c30 18 45 50.667 45 98c0 46 -14.5 79.5 -43.5 100.5s-66.833 31.5 -113.5 31.5h-121v-257h103c56.667 0 100 9 130 27z" />
    <glyph glyph-name="C" unicode="C" horiz-adv-x="558" 
d="M443.5 684c27.667 -10.667 56.168 -27.666 85.501 -50.999l-47 -56c-22 17.333 -43.833 30.166 -65.5 38.499s-44.834 12.5 -69.501 12.5c-59.333 0 -107 -22.5 -143 -67.5s-54 -117.167 -54 -216.5c0 -95.333 18 -166.166 54 -212.499s83.333 -69.5 142 -69.5
c30 0 56 5 78 15s45 24.333 69 43l44 -56c-21.333 -22 -48.5 -40.167 -81.5 -54.5s-70.5 -21.5 -112.5 -21.5c-55.333 0 -104.5 13.833 -147.5 41.5s-76.667 68.167 -101 121.5s-36.5 117.666 -36.5 192.999s12.5 139.833 37.5 193.5s59 94.167 102 121.5
s91.167 41 144.5 41c40 0 73.833 -5.33301 101.5 -16z" />
    <glyph glyph-name="D" unicode="D" horiz-adv-x="641" 
d="M491 615.5c62 -48.333 92.999 -137.5 92.999 -267.5c0 -128 -31.167 -218 -93.5 -270s-138.166 -78 -227.499 -78h-160v688h142c102 0 184 -24.167 246 -72.5zM188.999 69l81 0.000976562c65.333 0 118.5 20.167 159.5 60.5s61.5 113.166 61.5 218.499
c0 74 -10.5 130.833 -31.5 170.5s-48 66.167 -81 79.5s-71.5 20 -115.5 20h-74v-549z" />
    <glyph glyph-name="E" unicode="E" horiz-adv-x="530" 
d="M189 618v-232h235v-70h-235v-246h288v-70h-374v688h367l-10 -70h-271z" />
    <glyph glyph-name="F" unicode="F" horiz-adv-x="489" 
d="M189 618v-242h228v-69h-228v-307h-86v688h360l-10 -70h-264z" />
    <glyph glyph-name="G" unicode="G" horiz-adv-x="628" 
d="M463 682c31.333 -12 62.333 -30.6709 93 -56.0039l-51 -53c-24.667 19.333 -48.5 33.333 -71.5 42s-49.833 13 -80.5 13c-36 0 -69.333 -9.66699 -100 -29s-55.5 -50.166 -74.5 -92.499s-28.5 -96.166 -28.5 -161.499c0 -98 16.5 -170 49.5 -216s81.5 -69 145.5 -69
c51.333 0 96 11 134 33v215h-125l-10 71h221v-331c-67.333 -40 -142.666 -60 -225.999 -60c-87.333 0 -156 30.333 -206 91s-75 149.334 -75 266.001c0 74.667 13.5 138.834 40.5 192.501s62.833 94.167 107.5 121.5s93 41 145 41c43.333 0 80.666 -6 111.999 -18z" />
    <glyph glyph-name="H" unicode="H" horiz-adv-x="678" 
d="M189 326v-326h-86v688h86v-290h299v290h87v-688h-87v326h-299z" />
    <glyph glyph-name="I" unicode="I" horiz-adv-x="293" 
d="M103 0v688h87v-688h-87z" />
    <glyph glyph-name="J" unicode="J" horiz-adv-x="302" 
d="M184 -16.5c-13.333 -29 -32.333 -52.333 -57 -70s-57 -33.167 -97 -46.5l-23 63c30.667 12.667 53.667 26 69 40s26 31 32 51s9 46 9 78v589h87v-593c0 -45.333 -6.66699 -82.5 -20 -111.5z" />
    <glyph glyph-name="K" unicode="K" horiz-adv-x="579" 
d="M103 0v688h86v-688h-86zM579 0h-107l-278 368l268 320h99l-267 -315z" />
    <glyph glyph-name="L" unicode="L" horiz-adv-x="492" 
d="M473 76l-10 -76h-360v688h86v-612h284z" />
    <glyph glyph-name="M" unicode="M" horiz-adv-x="792" 
d="M629 0l-26.002 315c-11.333 126 -17.666 221 -18.999 285l-155 -521h-81l-162 522c-1.33301 -85.333 -6.66602 -182.333 -15.999 -291l-24 -310h-82l58 688h118l151 -509l144 509h118l60 -688h-84z" />
    <glyph glyph-name="N" unicode="N" horiz-adv-x="681" 
d="M462 0l-290 592.999c8 -88 12 -175 12 -261v-332h-81v688h113l292 -594c-2 19.333 -4.33301 49.833 -7 91.5s-4 80.834 -4 117.501v385h81v-688h-116z" />
    <glyph glyph-name="O" unicode="O" horiz-adv-x="692" 
d="M497 658.5c43.333 -27.667 76.998 -68.167 100.998 -121.5s36 -118 36 -194c0 -74.667 -12 -138.667 -36 -192s-57.667 -93.833 -101 -121.5s-93.666 -41.5 -150.999 -41.5s-107.666 13.667 -150.999 41s-77 67.5 -101 120.5s-36 117.167 -36 192.5c0 74 12 138 36 192
s57.833 95.167 101.5 123.5s93.834 42.5 150.501 42.5c57.333 0 107.666 -13.833 150.999 -41.5zM201.998 558c-34.667 -46.667 -52 -118.666 -52 -215.999c0 -96 17.5 -167 52.5 -213s82.833 -69 143.5 -69c62.667 0 111 22.833 145 68.5s51 117.167 51 214.5
s-17 169.166 -51 215.499s-82.333 69.5 -145 69.5c-61.333 0 -109.333 -23.333 -144 -70z" />
    <glyph glyph-name="P" unicode="P" horiz-adv-x="578" 
d="M474 635.5c46 -35 69 -87.833 69 -158.5c0 -74.667 -24 -130.167 -72 -166.5s-112 -54.5 -192 -54.5h-90v-256h-86v688h176c84 0 149 -17.5 195 -52.5zM406.5 358.5c29.667 22.333 44.5 61.499 44.5 117.499c0 50.667 -14.833 87.334 -44.5 110.001s-72.5 34 -128.5 34
h-89v-295h87c57.333 0 100.833 11.167 130.5 33.5z" />
    <glyph glyph-name="Q" unicode="Q" horiz-adv-x="687" 
d="M662 -28l-57 -72.999c-38.667 34.667 -76.5 58.5 -113.5 71.5s-86.167 19.5 -147.5 19.5c-56.667 0 -106.5 13.5 -149.5 40.5s-76.5 66.833 -100.5 119.5s-36 116.667 -36 192c0 74 12 138 36 192s57.833 95.167 101.5 123.5s93.834 42.5 150.501 42.5
c57.333 0 107.666 -13.833 150.999 -41.5s77 -68.167 101 -121.5s36 -118 36 -194c0 -82.667 -13.833 -148.334 -41.5 -197.001s-67.5 -85.667 -119.5 -111c69.333 0 132.333 -21 189 -63zM202.5 129.001c35 -46 82.833 -68.999 143.5 -68.999c62.667 0 111 22.833 145 68.5
s51 117.167 51 214.5s-17 169.166 -51 215.499s-82.333 69.5 -145 69.5c-61.333 0 -109.333 -23.333 -144 -70s-52 -118.667 -52 -216c0 -96 17.5 -167 52.5 -213z" />
    <glyph glyph-name="R" unicode="R" horiz-adv-x="601" 
d="M189 296l-0.000976562 -296h-86v688h177c84.667 0 148.834 -16.333 192.501 -49s65.5 -80.667 65.5 -144c0 -48 -12.5 -87 -37.5 -117s-62.5 -52.333 -112.5 -67l186 -311h-103l-168 296h-114zM406.499 394.5c26.333 21 39.501 54.5 39.501 100.5
c0 43.333 -13.167 75 -39.5 95s-68.833 30 -127.5 30h-90v-257h101c51.333 0 90.166 10.5 116.499 31.5z" />
    <glyph glyph-name="S" unicode="S" horiz-adv-x="544" 
d="M385.5 680.5c32.333 -13 63.167 -32.833 92.5 -59.5l-49 -55c-24.667 22 -49.5 37.833 -74.5 47.5s-52.167 14.5 -81.5 14.5c-38 0 -68.833 -8.83301 -92.5 -26.5s-35.5 -42.834 -35.5 -75.501c0 -21.333 4.16699 -39 12.5 -53s23.5 -26.833 45.5 -38.5
s53.667 -23.834 95 -36.501c43.333 -13.333 79.333 -27.666 108 -42.999s51.5 -36.333 68.5 -63s25.5 -60.334 25.5 -101.001c0 -40 -9.66699 -75.333 -29 -106s-47.166 -54.5 -83.499 -71.5s-79.166 -25.5 -128.499 -25.5c-93.333 0 -170.333 29.333 -231 88l51 56
c24.667 -23.333 51.5 -41.166 80.5 -53.499s61.833 -18.5 98.5 -18.5c44 0 80.333 11.167 109 33.5s43 53.833 43 94.5c0 24 -4.5 44 -13.5 60s-24.333 30 -46 42s-52.5 24 -92.5 36c-70.667 21.333 -122 46.833 -154 76.5s-48 69.834 -48 120.501c0 34 9 64.5 27 91.5
s43.167 48 75.5 63s69.166 22.5 110.499 22.5c45.333 0 84.166 -6.5 116.499 -19.5z" />
    <glyph glyph-name="T" unicode="T" horiz-adv-x="512" 
d="M299 614v-614h-86v614h-198v74h487l-10 -74h-193z" />
    <glyph glyph-name="U" unicode="U" horiz-adv-x="660" 
d="M504.5 51.5c-41.667 -42.333 -100.168 -63.501 -175.501 -63.501c-76 0 -134.333 21 -175 63s-61 98 -61 168v469h86v-462c0 -109.333 50 -164 150 -164c50.667 0 88.334 13.667 113.001 41s37 68.333 37 123v462h88v-469c0 -69.333 -20.833 -125.166 -62.5 -167.499z
" />
    <glyph glyph-name="V" unicode="V" horiz-adv-x="554" 
d="M231 0l-223 688h94l177 -595l178 595h88l-220 -688h-94z" />
    <glyph glyph-name="W" unicode="W" horiz-adv-x="822" 
d="M542 0l-132 587l-133 -587h-108l-143 688h86l115 -612l137 612h93l140 -612l119 612h80l-143 -688h-111z" />
    <glyph glyph-name="X" unicode="X" horiz-adv-x="533" 
d="M429 0l-164 311l-165 -311h-94l208 367l-189 321h98l144 -263l143 263h93l-186 -316l211 -372h-99z" />
    <glyph glyph-name="Y" unicode="Y" horiz-adv-x="544" 
d="M316 0h-88v265l-221 423h96l172 -347l171 347h91l-221 -422v-266z" />
    <glyph glyph-name="Z" unicode="Z" horiz-adv-x="521" 
d="M128 74h345l-10 -74h-432v70l350 545h-313v73h407v-70z" />
    <glyph glyph-name="bracketleft" unicode="[" horiz-adv-x="321" 
d="M149 744v-790h118v-69h-197v929h197v-70h-118z" />
    <glyph glyph-name="backslash" unicode="\" horiz-adv-x="520" 
d="M339 -103l-231 892l72 17l232 -892z" />
    <glyph glyph-name="bracketright" unicode="]" horiz-adv-x="321" 
d="M54 -115v69h118v790h-118v70h197v-929h-197z" />
    <glyph glyph-name="asciicircum" unicode="^" horiz-adv-x="538" 
d="M404 527l-136 237l-135 -237h-89l188 311h74l188 -311h-90z" />
    <glyph glyph-name="underscore" unicode="_" horiz-adv-x="520" 
d="M500 -65v-72h-480v72h480z" />
    <glyph glyph-name="grave" unicode="`" horiz-adv-x="294" 
d="M238 640l-208 85l38 72l196 -112z" />
    <glyph glyph-name="a" unicode="a" horiz-adv-x="542" 
d="M456.5 70.5c7 -10.333 18.168 -18.168 33.501 -23.501l-20 -59c-26.667 3.33301 -48 11.333 -64 24s-27.333 31.667 -34 57c-34.667 -54 -87.334 -81 -158.001 -81c-51.333 0 -91.833 14.5 -121.5 43.5s-44.5 67.5 -44.5 115.5c0 56 19.833 98.833 59.5 128.5
s95.834 44.5 168.501 44.5h86v41c0 38 -9.16699 65.5 -27.5 82.5s-46.833 25.5 -85.5 25.5c-40 0 -87.333 -9.66699 -142 -29l-21 62c63.333 24 122.666 36 177.999 36c61.333 0 107 -14.833 137 -44.5s45 -72.5 45 -128.5v-244c0 -23.333 3.5 -40.166 10.5 -50.499z
M362.001 136.998l0.000976562 126h-75c-100 0 -150 -37.333 -150 -112c0 -32 8.16699 -56.5 24.5 -73.5s40.166 -25.5 71.499 -25.5c54.667 0 97.667 28.333 129 85z" />
    <glyph glyph-name="b" unicode="b" horiz-adv-x="591" 
d="M475 466c34.667 -48 52 -115.332 52 -201.999c0 -55.333 -8.16699 -103.833 -24.5 -145.5s-40 -73.834 -71 -96.501s-67.5 -34 -109.5 -34c-56.667 0 -104 24 -142 72l-9 -60h-73v738l84 10v-290c38.667 53.333 89 80 151 80c60 0 107.333 -24 142 -72zM401.5 106.501
c23.667 34.333 35.501 86.833 35.501 157.5c0 138 -42.333 207 -127 207c-48.667 0 -91.334 -28 -128.001 -84v-258c14.667 -22.667 32.5 -40.667 53.5 -54s43.5 -20 67.5 -20c42 0 74.833 17.167 98.5 51.5z" />
    <glyph glyph-name="c" unicode="c" horiz-adv-x="476" 
d="M372 525c25.333 -8.66699 49.6689 -23 73.002 -43l-42 -55c-17.333 14 -35 24.333 -53 31s-38 10 -60 10c-44 0 -78.5 -17.5 -103.5 -52.5s-37.5 -86.833 -37.5 -155.5c0 -68 12.333 -118.333 37 -151s59.334 -49 104.001 -49c22 0 41.667 3.33301 59 10s36 17.667 56 33
l40 -57c-46 -38.667 -98.667 -58 -158 -58c-70.667 0 -126.334 24 -167.001 72s-61 114.333 -61 199c0 56 9.16699 105 27.5 147s44.666 74.5 78.999 97.5s74.833 34.5 121.5 34.5c31.333 0 59.666 -4.33301 84.999 -13z" />
    <glyph glyph-name="d" unicode="d" horiz-adv-x="595" 
d="M497 0l-72.999 -0.000976562l-9 74c-17.333 -26.667 -39 -47.667 -65 -63s-55.333 -23 -88 -23c-62.667 0 -111.334 24.5 -146.001 73.5s-52 115.5 -52 199.5c0 54 8.33301 101.833 25 143.5s40.5 74.334 71.5 98.001s67.5 35.5 109.5 35.5c55.333 0 103 -22 143 -66v276
l84 -10v-738zM354.001 75.499c20.667 13.667 40.333 34.5029 59 62.5029v261c-17.333 23.333 -36 41.166 -56 53.499s-43 18.5 -69 18.5c-42 0 -74.833 -17.667 -98.5 -53s-35.5 -87 -35.5 -155c0 -68.667 10.833 -120.334 32.5 -155.001s52.5 -52.334 92.5 -53.001
c29.333 0 54.333 6.83301 75 20.5z" />
    <glyph glyph-name="e" unicode="e" horiz-adv-x="547" 
d="M487 234l-338.999 0.00195312c4 -60.667 19 -105.334 45 -134.001s60 -43 102 -43c26 0 49.667 3.66699 71 11s43.666 19.333 66.999 36l37 -50c-54.667 -44 -115 -66 -181 -66c-72 0 -128.333 24 -169 72s-61 114 -61 198c0 54.667 8.66699 103.167 26 145.5
s42.333 75.333 75 99s71 35.5 115 35.5c69.333 0 122.333 -22.833 159 -68.5s55 -108.834 55 -189.501c0 -16 -0.666992 -31.333 -2 -46zM406.001 304.002c0 54 -10.833 95.333 -32.5 124s-53.834 43 -96.501 43c-38 0 -68.167 -14.333 -90.5 -43
s-35.166 -72.667 -38.499 -132h258v8z" />
    <glyph glyph-name="f" unicode="f" horiz-adv-x="332" 
d="M209 661.5c-12.667 -12.333 -18.9971 -32.1689 -18.9971 -59.502v-76h130l-9 -65h-121v-461h-84v461h-93v65h93v75c0 44.667 14 80.334 42 107.001s67.333 40 118 40c23.333 0 44.666 -2.16699 63.999 -6.5s39.666 -11.166 60.999 -20.499l-27 -61
c-30 13.333 -61 20 -93 20c-28.667 0 -49.334 -6.16699 -62.001 -18.5z" />
    <glyph glyph-name="g" unicode="g" horiz-adv-x="516" 
d="M450.5 493c-23 -2 -52.501 -3.33105 -88.501 -3.99805c61.333 -27.333 92 -72.333 92 -135c0 -52.667 -17.833 -95.334 -53.5 -128.001s-83.834 -49 -144.501 -49c-24.667 0 -47 3.33301 -67 10c-9.33301 -6 -16.5 -13.5 -21.5 -22.5s-7.5 -18.833 -7.5 -29.5
c0 -30 24 -45 72 -45h84c35.333 0 66.333 -6.16699 93 -18.5s47.334 -29.333 62.001 -51s22 -46.167 22 -73.5c0 -51.333 -20.333 -90.5 -61 -117.5s-101 -40.5 -181 -40.5c-82 0 -139.833 12.5 -173.5 37.5s-50.5 64.833 -50.5 119.5h76c0 -22 4.33301 -39.5 13 -52.5
s23.667 -22.667 45 -29s51.333 -9.5 90 -9.5c56 0 96.167 7.16699 120.5 21.5s36.5 35.833 36.5 64.5c0 25.333 -9.5 44.666 -28.5 57.999s-45.833 20 -80.5 20h-83c-43.333 0 -76.5 9.33301 -99.5 28s-34.5 42 -34.5 70c0 17.333 4.83301 34 14.5 50s23.834 30 42.501 42
c-30 16 -52.167 35.833 -66.5 59.5s-21.5 52.834 -21.5 87.501c0 35.333 8.5 66.833 25.5 94.5s40.833 49.167 71.5 64.5s65 23 103 23c42 -0.666992 76.833 0.666016 104.5 3.99902s50.667 8 69 14s39.833 14.667 64.5 26l25 -77c-19.333 -6 -40.5 -10 -63.5 -12z
M166.499 443.502c-19.667 -22.333 -29.498 -51.5 -29.498 -87.5c0 -37.333 10.167 -67.166 30.5 -89.499s48.833 -33.5 85.5 -33.5c37.333 0 65.833 10.667 85.5 32s29.5 51.666 29.5 90.999s-9.83301 69.333 -29.5 90s-48.834 31 -87.501 31
c-36.667 0 -64.834 -11.167 -84.501 -33.5z" />
    <glyph glyph-name="h" unicode="h" horiz-adv-x="585" 
d="M453 495c26.667 -28.667 39.999 -67.999 39.999 -117.999v-377h-84v365c0 38.667 -7.5 66.167 -22.5 82.5s-36.833 24.5 -65.5 24.5s-54.167 -8.33301 -76.5 -25s-43.166 -40.334 -62.499 -71.001v-376h-84v737l84 10v-297c20 27.333 43.5 48.833 70.5 64.5
s56.833 23.5 89.5 23.5c47.333 0 84.333 -14.333 111 -43z" />
    <glyph glyph-name="i" unicode="i" horiz-adv-x="279" 
d="M98 0v526h84v-526h-84zM181.5 757.5c11 -11 16.5 -24.833 16.5 -41.5s-5.5 -30.5 -16.5 -41.5s-25.5 -16.5 -43.5 -16.5c-17.333 0 -31.5 5.5 -42.5 16.5s-16.5 24.833 -16.5 41.5s5.5 30.5 16.5 41.5s25.167 16.5 42.5 16.5c18 0 32.5 -5.5 43.5 -16.5z" />
    <glyph glyph-name="j" unicode="j" horiz-adv-x="278" 
d="M163 -86c-11.333 -28.667 -28.167 -52.001 -50.5 -70.001s-53.5 -36 -93.5 -54l-24 61c26 12.667 45.833 24.834 59.5 36.501s24 28 31 49s10.5 50.167 10.5 87.5v502h84v-497c0 -48 -5.66699 -86.333 -17 -115zM180.499 757.499c11 -11 16.5 -24.833 16.5 -41.5
s-5.5 -30.5 -16.5 -41.5s-25.5 -16.5 -43.5 -16.5c-17.333 0 -31.5 5.5 -42.5 16.5s-16.5 24.833 -16.5 41.5s5.5 30.5 16.5 41.5s25.167 16.5 42.5 16.5c18 0 32.5 -5.5 43.5 -16.5z" />
    <glyph glyph-name="k" unicode="k" horiz-adv-x="506" 
d="M98 0v738l84 10v-748h-84zM505 0h-101l-216 287l200 239h94l-200 -233z" />
    <glyph glyph-name="l" unicode="l" horiz-adv-x="291" 
d="M185 69c5.33301 -7.33301 14.333 -11 27 -11s24 2 34 6l22 -59c-24 -11.333 -48.667 -17 -74 -17c-32.667 0 -57.667 9.5 -75 28.5s-26 47.167 -26 84.5v637l84 10v-646c0 -14.667 2.66699 -25.667 8 -33z" />
    <glyph glyph-name="m" unicode="m" horiz-adv-x="856" 
d="M725 494.5c25.333 -29 38 -68.167 38 -117.5v-377h-84v365c0 71.333 -25.667 107 -77 107c-27.333 0 -50.666 -8 -69.999 -24s-39.333 -40.333 -60 -73v-375h-84v365c0 71.333 -25.667 107 -77 107c-26.667 0 -49.834 -8 -69.501 -24s-39.5 -40.333 -59.5 -73v-375h-84
v526h72l7 -80c40 61.333 91.333 92 154 92c32.667 0 60.5 -8.5 83.5 -25.5s39.167 -40.833 48.5 -71.5c20.667 31.333 43.834 55.333 69.501 72s55.5 25 89.5 25c43.333 0 77.666 -14.5 102.999 -43.5z" />
    <glyph glyph-name="n" unicode="n" horiz-adv-x="585" 
d="M453.5 495c26.333 -28.667 39.499 -68 39.499 -118v-377h-84v365c0 38.667 -7.33301 66.167 -22 82.5s-36.334 24.5 -65.001 24.5c-29.333 0 -55.166 -8.33301 -77.499 -25s-43.166 -40.667 -62.499 -72v-375h-84v526h72l7 -80c20 28.667 44 51.167 72 67.5
s59 24.5 93 24.5c48 0 85.167 -14.333 111.5 -43z" />
    <glyph glyph-name="o" unicode="o" horiz-adv-x="581" 
d="M461.5 464.5c40.333 -49 60.502 -115.833 60.502 -200.5c0 -84 -20.5 -151 -61.5 -201s-97.833 -75 -170.5 -75s-129.334 24.5 -170.001 73.5s-61 115.833 -61 200.5c0 84 20.5 151 61.5 201s97.833 75 170.5 75c73.333 0 130.166 -24.5 170.499 -73.5zM185.502 418
c-24.333 -34.667 -36.5 -86.667 -36.5 -156c0 -68.667 12 -120.167 36 -154.5s59 -51.5 105 -51.5s81.167 17.333 105.5 52s36.5 86.667 36.5 156c0 68.667 -12 120.167 -36 154.5s-59 51.5 -105 51.5s-81.167 -17.333 -105.5 -52z" />
    <glyph glyph-name="p" unicode="p" horiz-adv-x="591" 
d="M480 466.5c31.333 -47.667 47.001 -115.168 47.001 -202.501c0 -83.333 -17.667 -150.166 -53 -200.499s-86 -75.5 -152 -75.5c-59.333 0 -106 21 -140 63v-252l-84 -10v737h72l6 -73c19.333 27.333 42.666 48.333 69.999 63s56.333 22 87 22
c66.667 0 115.667 -23.833 147 -71.5zM437.001 263.999c0 138 -41.333 207.001 -124 207.001c-26.667 0 -51 -7.83301 -73 -23.5s-41.333 -35.834 -58 -60.501v-262c14 -22 31.333 -38.833 52 -50.5s43.667 -17.5 69 -17.5c89.333 0 134 69 134 207z" />
    <glyph glyph-name="q" unicode="q" horiz-adv-x="590" 
d="M492 -211l-83.999 9.99902v272c-16.667 -26 -38 -46.333 -64 -61s-55 -22 -87 -22c-62.667 0 -111.334 24.5 -146.001 73.5s-52 115.5 -52 199.5c0 54 8.33301 101.833 25 143.5s40.5 74.334 71.5 98.001s67.5 35.5 109.5 35.5c31.333 0 59 -6.5 83 -19.5
s46 -30.5 66 -52.5l6 60h72v-737zM349.501 75.499c20.333 13.667 39.833 34.502 58.5 62.502v262c-17.333 22.667 -36 40.167 -56 52.5s-43 18.5 -69 18.5c-42 0 -74.833 -17.667 -98.5 -53s-35.5 -87 -35.5 -155c0 -68.667 10.833 -120.334 32.5 -155.001
s52.834 -52.334 93.501 -53.001c29.333 0 54.166 6.83301 74.499 20.5z" />
    <glyph glyph-name="r" unicode="r" horiz-adv-x="383" 
d="M372 532l-15 -82c-16 4 -31.333 6 -46 6c-33.333 0 -60.333 -12.167 -81 -36.5s-36.667 -62.5 -48 -114.5v-305h-84v526h72l8 -110c14 40 33 70.333 57 91s52.333 31 85 31c20 0 37.333 -2 52 -6z" />
    <glyph glyph-name="s" unicode="s" horiz-adv-x="466" 
d="M331.5 523c28.333 -10 55.499 -25.002 81.499 -45.002l-37 -56c-23.333 17.333 -45.666 29.833 -66.999 37.5s-44.333 11.5 -69 11.5c-31.333 0 -56.166 -6.66699 -74.499 -20s-27.5 -31.333 -27.5 -54c0 -22 8.5 -39.167 25.5 -51.5s47.5 -24.5 91.5 -36.5
c58.667 -15.333 102.167 -35.333 130.5 -60s42.5 -59 42.5 -103c0 -50.667 -19.667 -89.667 -59 -117s-87.333 -41 -144 -41c-78.667 0 -144.334 23 -197.001 69l47 53c43.333 -36 92.666 -54 147.999 -54c34.667 0 62.834 7.5 84.501 22.5s32.5 34.833 32.5 59.5
c0 20 -3.66699 35.833 -11 47.5s-20.166 21.834 -38.499 30.501s-45.5 18 -81.5 28c-56 14.667 -96.333 34.167 -121 58.5s-37 55.5 -37 93.5c0 26.667 8 50.834 24 72.501s38.167 38.667 66.5 51s60.166 18.5 95.499 18.5c34.667 0 66.167 -5 94.5 -15z" />
    <glyph glyph-name="t" unicode="t" horiz-adv-x="356" 
d="M241 -12c-44 0 -78.165 12.668 -102.498 38.001s-36.5 61.666 -36.5 108.999v326h-91v65h91v121l84 9v-130h127l-9 -65h-118v-322c0 -28 5.16699 -48.5 15.5 -61.5s27.166 -19.5 50.499 -19.5c24 0 48.333 7.66699 73 23l32 -58
c-34.667 -23.333 -73.334 -35 -116.001 -35z" />
    <glyph glyph-name="u" unicode="u" horiz-adv-x="581" 
d="M412 0l-7 85c-20 -32.667 -43.167 -57 -69.5 -73s-58.166 -24 -95.499 -24c-46.667 0 -82.834 14 -108.501 42s-38.5 67.667 -38.5 119v377h84v-368c0 -37.333 6.66699 -63.833 20 -79.5s35.333 -23.5 66 -23.5c54 0 99.667 31.333 137 94v377h84v-526h-72z" />
    <glyph glyph-name="v" unicode="v" horiz-adv-x="487" 
d="M194 0l-183 526h92l143 -451l141 451h89l-180 -526h-102z" />
    <glyph glyph-name="w" unicode="w" horiz-adv-x="713" 
d="M455 0l-97 450l-100 -450h-112l-125 526h85l99 -467l108 467h94l104 -467l100 467h80l-121 -526h-115z" />
    <glyph glyph-name="x" unicode="x" horiz-adv-x="479" 
d="M371 0l-134 228l-136 -228h-95l184 278l-162 248h98l115 -197l115 197h95l-162 -244l184 -282h-102z" />
    <glyph glyph-name="y" unicode="y" horiz-adv-x="486" 
d="M214 -146.5c-36 -34.333 -87.001 -55.835 -153.001 -64.502l-10 66c34.667 6.66699 62.334 15.834 83.001 27.501s37 26.5 49 44.5s23.667 42.333 35 73h-29l-178 526h90l145 -465l142 465h87l-177 -529c-20 -61.333 -48 -109.166 -84 -143.499z" />
    <glyph glyph-name="z" unicode="z" horiz-adv-x="434" 
d="M121 71h281l-10 -71h-366v63l278 392h-255v71h351v-64z" />
    <glyph glyph-name="braceleft" unicode="{" horiz-adv-x="323" 
d="M201.5 753c-14.333 -10.667 -21.5 -28.666 -21.5 -53.999v-243c0 -34 -5.83301 -58.333 -17.5 -73s-30.834 -26 -57.501 -34c26.667 -8 45.834 -19.333 57.501 -34s17.5 -38.667 17.5 -72v-242c0 -25.333 7.16699 -43.5 21.5 -54.5s38.166 -16.5 71.499 -16.5v-64
c-62.667 0 -107 11.167 -133 33.5s-39 58.833 -39 109.5v230c0 27.333 -5.33301 46.666 -16 57.999s-29 17 -55 17v70c26 0 44.333 5.83301 55 17.5s16 31.5 16 59.5v230c0 50.667 13 87.167 39 109.5s70.333 33.5 133 33.5v-65c-33.333 0 -57.166 -5.33301 -71.499 -16z
" />
    <glyph glyph-name="bar" unicode="|" horiz-adv-x="404" 
d="M164 -102v908h76v-908h-76z" />
    <glyph glyph-name="braceright" unicode="}" horiz-adv-x="323" 
d="M183 800.5c26 -22.333 39 -58.834 39 -109.501v-230c0 -28 5.33301 -47.833 16 -59.5s29 -17.5 55 -17.5v-70c-26 0 -44.333 -5.66699 -55 -17s-16 -30.666 -16 -57.999v-230c0 -50.667 -13 -87.167 -39 -109.5s-70.333 -33.5 -133 -33.5v64
c33.333 0 57.166 5.5 71.499 16.5s21.5 29.167 21.5 54.5v242c0 33.333 5.83301 57.333 17.5 72s30.834 26 57.501 34c-26.667 8 -45.834 19.333 -57.501 34s-17.5 39 -17.5 73v243c0 25.333 -7.16699 43.333 -21.5 54s-38.166 16 -71.499 16v65
c62.667 0 107 -11.167 133 -33.5z" />
    <glyph glyph-name="asciitilde" unicode="~" horiz-adv-x="484" 
d="M220 371.5c14.667 -6.33301 30.668 -15.168 48.001 -26.501c12 -8 22 -14 30 -18s16.333 -6 25 -6c15.333 0 27.833 4.16699 37.5 12.5s19.5 20.5 29.5 36.5l55 -30c-30.667 -58 -73.334 -87 -128.001 -87c-19.333 0 -36.333 3.33301 -51 10s-31.334 16 -50.001 28
c-10.667 8 -20 14 -28 18s-16 5.66699 -24 5c-16 0 -29 -4.66699 -39 -14s-20 -22.666 -30 -39.999l-56 29c32 61.333 75.667 92 131 92c18.667 0 35.334 -3.16699 50.001 -9.5z" />
    <glyph glyph-name="nonbreakingspace" unicode="&#xa0;" horiz-adv-x="268" 
 />
    <glyph glyph-name="exclamdown" unicode="&#xa1;" horiz-adv-x="241" 
d="M166.5 471.5c12.333 -12.333 18.5 -27.5 18.5 -45.5s-6.16699 -33.167 -18.5 -45.5s-27.5 -18.5 -45.5 -18.5c-18.667 0 -34.167 6.16699 -46.5 18.5s-18.5 27.5 -18.5 45.5s6.16699 33.167 18.5 45.5s27.833 18.5 46.5 18.5c18 0 33.167 -6.16699 45.5 -18.5zM76 -201
l8 449h75l9 -449h-92z" />
    <glyph glyph-name="cent" unicode="&#xa2;" horiz-adv-x="476" 
d="M325 -9l-0.000976562 -143.999h-73v144c-60.667 7.33301 -108 34.5 -142 81.5s-51 109.167 -51 186.5s17.167 140.666 51.5 189.999s81.833 78.333 142.5 87v147h72v-147c43.333 -6 83.333 -24 120 -54l-42 -55c-17.333 14 -35 24.333 -53 31s-38 10 -60 10
c-44 0 -78.5 -17.5 -103.5 -52.5s-37.5 -86.833 -37.5 -155.5c0 -68 12.333 -118.333 37 -151s59.334 -49 104.001 -49c22 0 41.667 3.33301 59 10s36 17.667 56 33l40 -57c-36 -30 -76 -48.333 -120 -55z" />
    <glyph glyph-name="sterling" unicode="&#xa3;" horiz-adv-x="522" 
d="M195 118c-8.66699 -18.667 -25.001 -34.332 -49.001 -46.999h322l-10 -71h-415v67c22.667 8.66699 39.667 18 51 28s19.333 22.667 24 38s7 36.666 7 63.999v127h-66v56h66v115c0 54 16.167 98 48.5 132s77.833 51 136.5 51c36 0 68.333 -6.5 97 -19.5
s54.667 -33.5 78 -61.5l-56 -42c-16 18.667 -33 32.334 -51 41.001s-39.667 13 -65 13c-33.333 0 -59.166 -9.83301 -77.499 -29.5s-27.5 -47.834 -27.5 -84.501v-115h209v-56h-209v-128c0 -33.333 -4.33301 -59.333 -13 -78z" />
    <glyph glyph-name="currency" unicode="&#xa4;" 
d="M450 217l76 -75l-50 -51l-79 77c-33.333 -22 -73 -33 -119 -33c-43.333 0 -82 11.667 -116 35l-78 -79l-50 51l78 78c-24.667 36.667 -37 77 -37 121c0 45.333 12.333 85.333 37 120l-78 80l50 50l79 -80c34 23.333 72.333 35 115 35c46 0 85.667 -11 119 -33l79 78
l50 -50l-76 -77c24.667 -36 37 -77 37 -123c0 -46.667 -12.333 -88 -37 -124zM374 239c21.333 24.667 32 59 32 103c0 43.333 -10.667 77.333 -32 102s-52.333 37 -93 37s-71.834 -12.333 -93.501 -37s-32.5 -58.667 -32.5 -102c0 -44 10.833 -78.333 32.5 -103
s52.834 -37 93.501 -37s71.667 12.333 93 37z" />
    <glyph glyph-name="yen" unicode="&#xa5;" horiz-adv-x="530" 
d="M446 344v-57h-138v-93h138v-57h-138v-137h-86v137h-138v57h138v93h-138v57h115l-192 324h93l168 -299l166 299h89l-191 -324h114z" />
    <glyph glyph-name="brokenbar" unicode="&#xa6;" horiz-adv-x="404" 
d="M164 373v364h76v-364h-76zM164 -32v364h76v-364h-76z" />
    <glyph glyph-name="section" unicode="&#xa7;" horiz-adv-x="533" 
d="M424 129c8.66699 -16 12.9951 -34.666 12.9951 -55.999c0 -43.333 -17.667 -78 -53 -104s-81 -39 -137 -39c-64 0 -119.667 16.333 -167 49l32 57c20.667 -14 42 -24.167 64 -30.5s46.667 -9.5 74 -9.5c30 0 54.667 6.16699 74 18.5s29 29.166 29 50.499
c0 16.667 -3.16699 30.167 -9.5 40.5s-18.166 20 -35.499 29s-43.666 19.167 -78.999 30.5c-56 18 -96 37.5 -120 58.5s-36 50.5 -36 88.5c0 24.667 6.83301 47.667 20.5 69s31.834 39.666 54.501 54.999c-17.333 12 -30 26 -38 42s-12 35 -12 57
c0 43.333 17.333 77.666 52 102.999s78 38 130 38c34.667 0 65.334 -4.5 92.001 -13.5s52 -21.833 76 -38.5l-33 -54c-22 14 -43.5 24.333 -64.5 31s-44.833 10 -71.5 10c-29.333 0 -53 -6.5 -71 -19.5s-27 -29.833 -27 -50.5c0 -16.667 3.33301 -30.167 10 -40.5
s18.667 -20.166 36 -29.499s43.333 -19.666 78 -30.999c55.333 -18.667 95 -39 119 -61s36 -52 36 -90c0 -22.667 -6.83301 -44 -20.5 -64s-32.5 -37.667 -56.5 -53c18.667 -12.667 32.334 -27 41.001 -43zM163.495 281.501c5.66699 -10.333 15.501 -19.667 29.501 -28
s34.667 -16.833 62 -25.5c35.333 -12 61.333 -21.667 78 -29c30.667 26.667 46 54 46 82c0 16 -3 29.333 -9 40s-16.833 20.5 -32.5 29.5s-38.5 18.833 -68.5 29.5c-26 8.66699 -49 17.667 -69 27c-14.667 -12.667 -25.834 -26.334 -33.501 -41.001s-11.5 -29 -11.5 -43
c0 -17.333 2.83301 -31.166 8.5 -41.499z" />
    <glyph glyph-name="dieresis" unicode="&#xa8;" horiz-adv-x="372" 
d="M122 747c10 -10 15 -22.667 15 -38c0 -14.667 -5 -27.167 -15 -37.5s-22.667 -15.5 -38 -15.5s-28.166 5 -38.499 15s-15.5 22.667 -15.5 38s5.16699 28 15.5 38s23.166 15 38.499 15s28 -5 38 -15zM326.5 747c10.333 -10 15.5 -22.667 15.5 -38s-5.16699 -28 -15.5 -38
s-23.166 -15 -38.499 -15c-14.667 0 -27.167 5.16699 -37.5 15.5s-15.5 22.833 -15.5 37.5c0 15.333 5.16699 28 15.5 38s22.833 15 37.5 15c15.333 0 28.166 -5 38.499 -15z" />
    <glyph glyph-name="copyright" unicode="&#xa9;" horiz-adv-x="810" 
d="M561 703.5c47.333 -27.667 84.667 -65.167 112 -112.5s41 -99.666 41 -156.999c0 -56.667 -13.833 -108.667 -41.5 -156s-65 -84.833 -112 -112.5s-98.5 -41.5 -154.5 -41.5c-56.667 0 -108.667 13.833 -156 41.5s-84.833 65.167 -112.5 112.5s-41.5 99.333 -41.5 156
c0 57.333 13.833 109.666 41.5 156.999s65.167 84.833 112.5 112.5s99.333 41.5 156 41.5c56 0 107.667 -13.833 155 -41.5zM277.001 661c-38.667 -23.333 -69 -55 -91 -95s-33 -84 -33 -132s11 -91.833 33 -131.5s52.333 -71 91 -94s81.667 -34.5 129 -34.5
s90.166 11.5 128.499 34.5s68.5 54.333 90.5 94s33 83.5 33 131.5c0 48.667 -11 93 -33 133s-52.167 71.5 -90.5 94.5s-81.166 34.5 -128.499 34.5s-90.333 -11.667 -129 -35zM469.001 613.5c17.333 -6.33301 34.667 -16.166 52 -29.499l-34 -45
c-22.667 18.667 -48 28 -76 28c-27.333 0 -49.666 -10.667 -66.999 -32s-26 -54.666 -26 -99.999c0 -42.667 8.5 -74.834 25.5 -96.501s39.5 -32.5 67.5 -32.5c16.667 0 31.5 2.5 44.5 7.5s26.167 12.5 39.5 22.5l30 -44c-34 -30 -72.667 -45 -116 -45
c-48 0 -86.833 16.5 -116.5 49.5s-44.5 79.167 -44.5 138.5c0 40 7.33301 74.167 22 102.5s34 49.666 58 63.999s50.667 21.5 80 21.5c23.333 0 43.666 -3.16699 60.999 -9.5z" />
    <glyph glyph-name="ordfeminine" unicode="&#xaa;" horiz-adv-x="500" 
d="M317 550c0 27.333 -6.66699 46.5 -20 57.5s-35 16.5 -65 16.5c-33.333 0 -71 -7 -113 -21l-20 57c50 18.667 98.667 28 146 28c102.667 0 154 -44.333 154 -133v-173c0 -16.667 2.66699 -28.667 8 -36s13.666 -13.333 24.999 -18l-18 -55
c-22.667 2.66699 -40.834 8.5 -54.501 17.5s-23.5 22.833 -29.5 41.5c-27.333 -40 -69.666 -60 -126.999 -60c-41.333 0 -74.166 11 -98.499 33s-36.5 51.333 -36.5 88c0 42 16.333 74.333 49 97s78.667 34 138 34h62v26zM317 388l0.000976562 85h-53
c-73.333 0 -110 -25.333 -110 -76c0 -20.667 6 -36.5 18 -47.5s29 -16.5 51 -16.5c39.333 0 70.666 18.333 93.999 55zM445.001 0h-372v71h372v-71z" />
    <glyph glyph-name="guillemotleft" unicode="&#xab;" horiz-adv-x="570" 
d="M146 287l136 -209l-51 -35l-172 215v57l172 216l51 -34zM375 287l136 -209l-51 -35l-172 215v57l172 216l51 -34z" />
    <glyph glyph-name="logicalnot" unicode="&#xac;" horiz-adv-x="500" 
d="M360 147v140h-296v71h372v-211h-76z" />
    <glyph glyph-name="softhyphen" unicode="&#xad;" horiz-adv-x="402" 
d="M341 349v-72h-279v72h279z" />
    <glyph glyph-name="registered" unicode="&#xae;" horiz-adv-x="641" 
d="M447 713c38.667 -22.667 69 -53.334 91 -92.001s33 -81 33 -127s-11 -88.333 -33 -127s-52.333 -69.167 -91 -91.5s-81.334 -33.5 -128.001 -33.5c-45.333 0 -87.166 11.167 -125.499 33.5s-68.5 52.833 -90.5 91.5s-33 81 -33 127s11 88.333 33 127
s52.167 69.334 90.5 92.001s80.166 34 125.499 34c46.667 0 89.334 -11.333 128.001 -34zM422 315.5c30.667 18.333 54.499 43.167 71.499 74.5s25.5 66 25.5 104s-8.5 72.833 -25.5 104.5s-40.833 56.667 -71.5 75s-65 27.5 -103 27.5
c-36.667 0 -70.167 -9.33301 -100.5 -28s-54.166 -43.834 -71.499 -75.501s-26 -66.167 -26 -103.5c0 -38 8.66699 -72.667 26 -104s41 -56.166 71 -74.499s63.667 -27.5 101 -27.5c38 0 72.333 9.16699 103 27.5zM407.999 504.001c-12 -12.667 -27.668 -22 -47.001 -28
l74 -116h-63l-61 107h-28v-107h-53v275h76c40.667 0 70.834 -6.83301 90.501 -20.5s29.5 -34.5 29.5 -62.5c0 -19.333 -6 -35.333 -18 -48zM315.998 509.001c36.667 0 55 14.333 55 43c0 14.667 -4.66699 25.167 -14 31.5s-24 9.5 -44 9.5h-30v-84h33z" />
    <glyph glyph-name="macron" unicode="&#xaf;" horiz-adv-x="325" 
d="M30 733h265v-64h-265v64z" />
    <glyph glyph-name="degree" unicode="&#xb0;" horiz-adv-x="522" 
d="M141 403c-24.667 12.667 -44.667 31.001 -60 55.001s-23 52 -23 84s7.66699 60 23 84s35.333 42.333 60 55s50.667 19 78 19c28 0 54.333 -6.33301 79 -19s44.5 -31 59.5 -55s22.5 -52.333 22.5 -85s-7.5 -60.834 -22.5 -84.501s-34.833 -41.667 -59.5 -54
s-51 -18.5 -79 -18.5c-27.333 0 -53.333 6.33301 -78 19zM283.5 468.001c17 17.333 25.5 41.667 25.5 73c0 32 -8.5 56.667 -25.5 74s-38.5 26 -64.5 26c-25.333 0 -46.666 -8.5 -63.999 -25.5s-26 -41.5 -26 -73.5s8.66699 -56.667 26 -74s38.666 -26 63.999 -26
c26 0 47.5 8.66699 64.5 26z" />
    <glyph glyph-name="plusminus" unicode="&#xb1;" horiz-adv-x="498" 
d="M435 72v-71h-371v71h371zM434 386v-70h-147v-150h-77v150h-146v70h146v150h77v-150h147z" />
    <glyph glyph-name="twosuperior" unicode="&#xb2;" horiz-adv-x="400" 
d="M294.5 712c24.333 -22 36.499 -50.3311 36.499 -84.998c0 -23.333 -5.5 -45.666 -16.5 -66.999s-29 -45.333 -54 -72s-61.833 -62.667 -110.5 -108h192l-8 -58h-265v54c56 54.667 96.333 95.167 121 121.5s42 48.666 52 66.999s15 37.166 15 56.499
c0 21.333 -6 37.666 -18 48.999s-28.333 17 -49 17c-18 0 -33.5 -3.33301 -46.5 -10s-26.5 -18 -40.5 -34l-45 35c36.667 44.667 82.334 67 137.001 67c42 0 75.167 -11 99.5 -33z" />
    <glyph glyph-name="threesuperior" unicode="&#xb3;" horiz-adv-x="400" 
d="M296 715.5c24 -19.667 36 -44.5 36 -74.5c0 -26 -7.66699 -47.333 -23 -64s-36.333 -28 -63 -34c29.333 -2.66699 53.166 -12.667 71.499 -30s27.5 -41.666 27.5 -72.999c0 -36.667 -14 -67 -42 -91s-65.333 -36 -112 -36c-56.667 0 -102 19.667 -136 59l41 39
c26.667 -27.333 57.334 -41 92.001 -41c25.333 0 45.5 6.66699 60.5 20s22.5 31.333 22.5 54c0 24.667 -7.16699 42.5 -21.5 53.5s-34.833 16.5 -61.5 16.5h-33l9 52h22c21.333 0 39.166 5.66699 53.499 17s21.5 27.666 21.5 48.999c0 18 -6.16699 32.167 -18.5 42.5
s-29.166 15.5 -50.499 15.5c-16.667 0 -32 -2.83301 -46 -8.5s-28.333 -15.167 -43 -28.5l-37 41c38 34 82 51 132 51c41.333 0 74 -9.83301 98 -29.5z" />
    <glyph glyph-name="acute" unicode="&#xb4;" horiz-adv-x="294" 
d="M56 640l-26 45l196 112l38 -72z" />
    <glyph glyph-name="uni00B5" unicode="&#xb5;" horiz-adv-x="587" 
d="M415 36.5c-3.33301 14.333 -6.00098 32.166 -8.00098 53.499c-16.667 -29.333 -37 -53.666 -61 -72.999s-51.333 -29 -82 -29c-21.333 0 -41 4.33301 -59 13s-31.333 22.334 -40 41.001c6 -20 10.167 -40 12.5 -60s3.5 -44.667 3.5 -74v-109l-83 -10v737h84v-371
c0 -33.333 7.5 -57.333 22.5 -72s35.167 -22 60.5 -22c56 0 100.667 33.667 134 101v364h84v-347c0 -66 9 -126 27 -180l-79 -10c-7.33301 17.333 -12.666 33.166 -15.999 47.499z" />
    <glyph glyph-name="paragraph" unicode="&#xb6;" horiz-adv-x="728" 
d="M585 -201l-76 -11.999v833h-117v-821l-76 -12v498c-75.333 3.33301 -131.333 23.166 -168 59.499s-55 83.5 -55 141.5c0 64 21.5 113.5 64.5 148.5s102.167 52.5 177.5 52.5l250 1v-889z" />
    <glyph glyph-name="periodcentered" unicode="&#xb7;" horiz-adv-x="232" 
d="M161.5 358.5c12.333 -12.333 18.5 -27.5 18.5 -45.5s-6.16699 -33.333 -18.5 -46s-27.5 -19 -45.5 -19s-33.167 6.33301 -45.5 19s-18.5 28 -18.5 46s6.16699 33.167 18.5 45.5s27.5 18.5 45.5 18.5s33.167 -6.16699 45.5 -18.5z" />
    <glyph glyph-name="cedilla" unicode="&#xb8;" horiz-adv-x="268" 
d="M215.5 -85c15 -15.333 22.501 -34 22.501 -56c0 -30.667 -11.333 -54.5 -34 -71.5s-51.334 -25.5 -86.001 -25.5c-37.333 0 -66.666 8 -87.999 24l23 48c20 -10.667 41 -16 63 -16c15.333 0 27.666 3.33301 36.999 10s14 17 14 31c0 14.667 -7 25.5 -21 32.5
s-36.667 10.5 -68 10.5l13 114h54v-74c32 -2.66699 55.5 -11.667 70.5 -27z" />
    <glyph glyph-name="onesuperior" unicode="&#xb9;" horiz-adv-x="400" 
d="M199 322v343l-99 -58l-31 49l138 82h63v-416h-71z" />
    <glyph glyph-name="ordmasculine" unicode="&#xba;" horiz-adv-x="500" 
d="M391 633c33.333 -36.667 50 -87.667 50 -153c0 -63.333 -17 -113.833 -51 -151.5s-80.667 -56.5 -140 -56.5c-60 0 -106.833 18.5 -140.5 55.5s-50.5 87.833 -50.5 152.5c0 63.333 17 113.833 51 151.5s81 56.5 141 56.5s106.667 -18.333 140 -55zM146 480
c0 -48.667 8.83301 -85 26.5 -109s43.5 -36 77.5 -36c69.333 0 104 48.333 104 145c0 96 -34.333 144 -103 144c-70 0 -105 -48 -105 -144zM435 71v-71h-371v71h371z" />
    <glyph glyph-name="guillemotright" unicode="&#xbb;" horiz-adv-x="561" 
d="M282 258l-173 -215l-50 35l135 209l-135 210l50 34l173 -216v-57zM502 258l-173 -215l-50 35l135 209l-135 210l50 34l173 -216v-57z" />
    <glyph glyph-name="onequarter" unicode="&#xbc;" horiz-adv-x="928" 
d="M200 272v343l-99 -58l-32 49l138 82h64v-416h-71zM288 -76l-55 26l407 799l55 -26zM829 98v-98h-70v98h-187v50l129 275l61 -23l-115 -247h113l6 108h63v-108h54v-55h-54z" />
    <glyph glyph-name="onehalf" unicode="&#xbd;" horiz-adv-x="928" 
d="M200 272v343l-99 -58l-32 49l138 82h64v-416h-71zM288 -76l-55 26l407 799l55 -26zM822.5 390c24.333 -22 36.499 -50.3311 36.499 -84.998c0 -23.333 -5.5 -45.666 -16.5 -66.999s-29 -45.333 -54 -72s-61.833 -62.667 -110.5 -108h192l-8 -58h-265v54
c56 54.667 96.333 95.167 121 121.5s42 48.666 52 66.999s15 37.166 15 56.499c0 21.333 -6 37.666 -18 48.999s-28.333 17 -49 17c-18 0 -33.5 -3.33301 -46.5 -10s-26.5 -18 -40.5 -34l-45 35c36.667 44.667 82.334 67 137.001 67c42 0 75.167 -11 99.5 -33z" />
    <glyph glyph-name="threequarters" unicode="&#xbe;" horiz-adv-x="928" 
d="M296 665.5c24 -19.667 35.999 -44.499 35.999 -74.499c0 -26 -7.66699 -47.333 -23 -64s-36.333 -28 -63 -34c29.333 -2.66699 53.333 -12.667 72 -30s28 -41.333 28 -72c0 -36.667 -14.167 -67.167 -42.5 -91.5s-65.833 -36.5 -112.5 -36.5
c-55.333 0 -100.666 19.667 -135.999 59l42 39c25.333 -27.333 55.666 -41 90.999 -41c26 0 46.333 6.66699 61 20s22 31.333 22 54c0 24.667 -7 42.5 -21 53.5s-34.333 16.5 -61 16.5h-34l9 52h22c22 0 40 5.66699 54 17s21 27.666 21 48.999
c0 18.667 -6.16699 33.167 -18.5 43.5s-29.166 15.5 -50.499 15.5c-16.667 0 -32 -3 -46 -9s-28.333 -15.667 -43 -29l-37 41c38 34 82 51 132 51c41.333 0 74 -9.83301 98 -29.5zM287.999 -75.999l-55 26l407 799l55 -26zM828.999 98.001v-98h-70v98h-187v50l129 275
l61 -23l-115 -247h113l6 108h63v-108h54v-55h-54z" />
    <glyph glyph-name="questiondown" unicode="&#xbf;" horiz-adv-x="456" 
d="M206.5 380.5c-12.333 12.333 -18.5 27.5 -18.5 45.5s6.16699 33.167 18.5 45.5s27.833 18.5 46.5 18.5c18 0 33.167 -6.16699 45.5 -18.5s18.5 -27.5 18.5 -45.5s-6.16699 -33.167 -18.5 -45.5s-27.5 -18.5 -45.5 -18.5c-18.667 0 -34.167 6.16699 -46.5 18.5zM118 -192
c-28 14 -49.1641 32.6689 -63.4971 56.002s-21.5 48.666 -21.5 75.999c0 26 4.5 48.167 13.5 66.5s19.833 33 32.5 44s30 24.167 52 39.5c27.333 18 48 35 62 51s21 37.333 21 64v43h83v-47c0 -27.333 -4.66699 -50.5 -14 -69.5s-20.5 -34.333 -33.5 -46
s-30.5 -24.834 -52.5 -39.501c-25.333 -16.667 -44.333 -32 -57 -46s-19.334 -32.333 -20.001 -55c0 -27.333 9.33301 -48.833 28 -64.5s44 -23.5 76 -23.5c54.667 0 102 24 142 72l58 -44c-28.667 -33.333 -59.834 -58 -93.501 -74s-70.834 -24 -111.501 -24
c-39.333 0 -73 7 -101 21z" />
    <glyph glyph-name="Agrave" unicode="&#xc0;" horiz-adv-x="571" 
d="M150 176l-54 -176h-88l223 688h110l222 -688h-92l-53 176h-268zM284 616l-112 -369h224zM371 756l-212 78l36 72l198 -105z" />
    <glyph glyph-name="Aacute" unicode="&#xc1;" horiz-adv-x="571" 
d="M150 176l-54 -176h-88l223 688h110l222 -688h-92l-53 176h-268zM284 616l-112 -369h224zM193 756l-22 45l197 105l37 -72z" />
    <glyph glyph-name="Acircumflex" unicode="&#xc2;" horiz-adv-x="571" 
d="M150 176l-54 -176h-88l223 688h110l222 -688h-92l-53 176h-268zM284 616l-112 -369h224zM161 760l-37 41l135 108h55l133 -108l-36 -41l-125 81z" />
    <glyph glyph-name="Atilde" unicode="&#xc3;" horiz-adv-x="571" 
d="M150 176l-54 -176h-88l223 688h110l222 -688h-92l-53 176h-268zM284 616l-112 -369h224zM309 792.5c-11.333 5 -23.3311 11.833 -35.998 20.5c-11.333 6.66699 -19.833 11.5 -25.5 14.5s-12.167 4.5 -19.5 4.5c-11.333 0 -20.833 -3.5 -28.5 -10.5
s-16.167 -18.5 -25.5 -34.5l-51 26c27.333 56 62.666 84 105.999 84c12.667 0 24 -2.33301 34 -7s21.333 -11.334 34 -20.001c10 -7.33301 18.667 -12.666 26 -15.999s14.666 -5 21.999 -5c10 0 19 3.5 27 10.5s16.667 18.167 26 33.5l51 -26
c-12 -26.667 -26.833 -47 -44.5 -61s-36.5 -21 -56.5 -21c-14.667 0 -27.667 2.5 -39 7.5z" />
    <glyph glyph-name="Adieresis" unicode="&#xc4;" horiz-adv-x="571" 
d="M150 176l-54 -176h-88l223 688h110l222 -688h-92l-53 176h-268zM284 616l-112 -369h224zM221 873c10 -10 15 -22.667 15 -38c0 -14.667 -5.16699 -27.167 -15.5 -37.5s-22.833 -15.5 -37.5 -15.5c-15.333 0 -28.166 5.16699 -38.499 15.5s-15.5 22.833 -15.5 37.5
c0 15.333 5.16699 28 15.5 38s23.166 15 38.499 15s28 -5 38 -15zM425.5 873c10.333 -10 15.5 -22.667 15.5 -38c0 -14.667 -5.16699 -27.167 -15.5 -37.5s-23.166 -15.5 -38.499 -15.5c-14.667 0 -27.167 5.16699 -37.5 15.5s-15.5 22.833 -15.5 37.5
c0 15.333 5.16699 28 15.5 38s22.833 15 37.5 15c15.333 0 28.166 -5 38.499 -15z" />
    <glyph glyph-name="Aring" unicode="&#xc5;" horiz-adv-x="571" 
d="M150 176l-54 -176h-88l223 688h110l222 -688h-92l-53 176h-268zM284 616l-112 -369h224zM365 929c20.667 -20 31 -44.667 31 -74c0 -28.667 -10.333 -53 -31 -73s-47 -30 -79 -30s-58.5 10 -79.5 30s-31.5 44.333 -31.5 73c0 29.333 10.5 54 31.5 74s47.5 30 79.5 30
s58.333 -10 79 -30zM246 897c-9.33301 -10 -14.002 -24 -14.002 -42c0 -17.333 4.83301 -31 14.5 -41s22.834 -15 39.501 -15c16 0 28.833 5 38.5 15s14.5 23.667 14.5 41c0 18 -4.66699 32 -14 42s-22.333 15 -39 15c-17.333 0 -30.666 -5 -39.999 -15z" />
    <glyph glyph-name="AE" unicode="&#xc6;" horiz-adv-x="808" 
d="M756 0h-297l-42 176h-272l-66 -176h-88l272 688h451l-10 -70h-313l59 -233h255v-70h-238l62 -245h227v-70zM313 619l-141 -373h229z" />
    <glyph glyph-name="Ccedilla" unicode="&#xc7;" horiz-adv-x="558" 
d="M467 14.5c-28 -13.667 -59.665 -21.833 -94.998 -24.5v-48c31.333 -2.66699 54.5 -11.5 69.5 -26.5s22.5 -33.833 22.5 -56.5c0 -30.667 -11.333 -54.5 -34 -71.5s-51 -25.5 -85 -25.5c-38 0 -67.667 8 -89 24l24 48c19.333 -10.667 40 -16 62 -16
c15.333 0 27.666 3.33301 36.999 10s14 17 14 31c0 14.667 -7 25.5 -21 32.5s-36.667 10.5 -68 10.5l10 88c-50.667 4.66699 -95.167 21.334 -133.5 50.001s-68.333 68.667 -90 120s-32.5 112.666 -32.5 183.999c0 75.333 12.5 139.833 37.5 193.5s59 94.167 102 121.5
s91.167 41 144.5 41c40 0 73.833 -5.33301 101.5 -16s56.167 -27.667 85.5 -51l-47 -56c-22 17.333 -43.833 30.166 -65.5 38.499s-44.834 12.5 -69.501 12.5c-59.333 0 -107 -22.5 -143 -67.5s-54 -117.167 -54 -216.5c0 -95.333 18 -166.166 54 -212.499
s83.333 -69.5 142 -69.5c30 0 56 5 78 15s45 24.333 69 43l44 -56c-18.667 -19.333 -42 -35.833 -70 -49.5z" />
    <glyph glyph-name="Egrave" unicode="&#xc8;" horiz-adv-x="530" 
d="M189 618v-232h235v-70h-235v-246h288v-70h-374v688h367l-10 -70h-271zM375 756l-212 78l36 72l198 -105z" />
    <glyph glyph-name="Eacute" unicode="&#xc9;" horiz-adv-x="530" 
d="M189 618v-232h235v-70h-235v-246h288v-70h-374v688h367l-10 -70h-271zM197 756l-22 45l197 105l37 -72z" />
    <glyph glyph-name="Ecircumflex" unicode="&#xca;" horiz-adv-x="530" 
d="M189 618v-232h235v-70h-235v-246h288v-70h-374v688h367l-10 -70h-271zM165 760l-37 41l135 108h55l133 -108l-36 -41l-125 81z" />
    <glyph glyph-name="Edieresis" unicode="&#xcb;" horiz-adv-x="530" 
d="M189 618v-232h235v-70h-235v-246h288v-70h-374v688h367l-10 -70h-271zM225 873c10 -10 15 -22.667 15 -38c0 -14.667 -5.16699 -27.167 -15.5 -37.5s-22.833 -15.5 -37.5 -15.5c-15.333 0 -28.166 5.16699 -38.499 15.5s-15.5 22.833 -15.5 37.5
c0 15.333 5.16699 28 15.5 38s23.166 15 38.499 15s28 -5 38 -15zM429.5 873c10.333 -10 15.5 -22.667 15.5 -38c0 -14.667 -5.16699 -27.167 -15.5 -37.5s-23.166 -15.5 -38.499 -15.5c-14.667 0 -27.167 5.16699 -37.5 15.5s-15.5 22.833 -15.5 37.5
c0 15.333 5.16699 28 15.5 38s22.833 15 37.5 15c15.333 0 28.166 -5 38.499 -15z" />
    <glyph glyph-name="Igrave" unicode="&#xcc;" horiz-adv-x="293" 
d="M103 0v688h87v-688h-87zM232 756l-212 78l36 72l198 -105z" />
    <glyph glyph-name="Iacute" unicode="&#xcd;" horiz-adv-x="293" 
d="M103 0v688h87v-688h-87zM54 756l-22 45l197 105l37 -72z" />
    <glyph glyph-name="Icircumflex" unicode="&#xce;" horiz-adv-x="293" 
d="M103 0v688h87v-688h-87zM22 760l-37 41l135 108h55l133 -108l-36 -41l-125 81z" />
    <glyph glyph-name="Idieresis" unicode="&#xcf;" horiz-adv-x="293" 
d="M103 0v688h87v-688h-87zM82 873c10 -10 15 -22.667 15 -38c0 -14.667 -5.16699 -27.167 -15.5 -37.5s-22.833 -15.5 -37.5 -15.5c-15.333 0 -28.166 5.16699 -38.499 15.5s-15.5 22.833 -15.5 37.5c0 15.333 5.16699 28 15.5 38s23.166 15 38.499 15s28 -5 38 -15z
M286.5 873c10.333 -10 15.5 -22.667 15.5 -38c0 -14.667 -5.16699 -27.167 -15.5 -37.5s-23.166 -15.5 -38.499 -15.5c-14.667 0 -27.167 5.16699 -37.5 15.5s-15.5 22.833 -15.5 37.5c0 15.333 5.16699 28 15.5 38s22.833 15 37.5 15c15.333 0 28.166 -5 38.499 -15z" />
    <glyph glyph-name="Eth" unicode="&#xd0;" horiz-adv-x="651" 
d="M501 615.5c62 -48.333 93 -137.5 93 -267.5c0 -128 -31 -218 -93 -270s-137.667 -78 -227 -78h-161v321h-92v64h92v303h142c102 0 184 -24.167 246 -72.5zM440 129.5c41.333 40.333 62.001 113.166 62.001 218.499c0 74.667 -10.667 131.834 -32 171.501
s-48.5 66 -81.5 79s-71.5 19.5 -115.5 19.5h-74v-233h162v-64h-161v-252h80c65.333 0 118.666 20.167 159.999 60.5z" />
    <glyph glyph-name="Ntilde" unicode="&#xd1;" horiz-adv-x="681" 
d="M462 0l-290 592.999c8 -88 12 -175 12 -261v-332h-81v688h113l292 -594c-2 19.333 -4.33301 49.833 -7 91.5s-4 80.834 -4 117.501v385h81v-688h-116zM374 792.499c-11.333 5 -23.3311 11.833 -35.998 20.5c-11.333 6.66699 -19.833 11.5 -25.5 14.5
s-12.167 4.5 -19.5 4.5c-11.333 0 -20.833 -3.5 -28.5 -10.5s-16.167 -18.5 -25.5 -34.5l-51 26c27.333 56 62.666 84 105.999 84c12.667 0 24 -2.33301 34 -7s21.333 -11.334 34 -20.001c10 -7.33301 18.667 -12.666 26 -15.999s14.666 -5 21.999 -5c10 0 19 3.5 27 10.5
s16.667 18.167 26 33.5l51 -26c-12 -26.667 -26.833 -47 -44.5 -61s-36.5 -21 -56.5 -21c-14.667 0 -27.667 2.5 -39 7.5z" />
    <glyph glyph-name="Ograve" unicode="&#xd2;" horiz-adv-x="692" 
d="M497 658.5c43.333 -27.667 76.998 -68.167 100.998 -121.5s36 -118 36 -194c0 -74.667 -12 -138.667 -36 -192s-57.667 -93.833 -101 -121.5s-93.666 -41.5 -150.999 -41.5s-107.666 13.667 -150.999 41s-77 67.5 -101 120.5s-36 117.167 -36 192.5c0 74 12 138 36 192
s57.833 95.167 101.5 123.5s93.834 42.5 150.501 42.5c57.333 0 107.666 -13.833 150.999 -41.5zM201.998 558c-34.667 -46.667 -52 -118.666 -52 -215.999c0 -96 17.5 -167 52.5 -213s82.833 -69 143.5 -69c62.667 0 111 22.833 145 68.5s51 117.167 51 214.5
s-17 169.166 -51 215.499s-82.333 69.5 -145 69.5c-61.333 0 -109.333 -23.333 -144 -70zM432.998 756.001l-212 78l36 72l198 -105z" />
    <glyph glyph-name="Oacute" unicode="&#xd3;" horiz-adv-x="692" 
d="M497 658.5c43.333 -27.667 76.998 -68.167 100.998 -121.5s36 -118 36 -194c0 -74.667 -12 -138.667 -36 -192s-57.667 -93.833 -101 -121.5s-93.666 -41.5 -150.999 -41.5s-107.666 13.667 -150.999 41s-77 67.5 -101 120.5s-36 117.167 -36 192.5c0 74 12 138 36 192
s57.833 95.167 101.5 123.5s93.834 42.5 150.501 42.5c57.333 0 107.666 -13.833 150.999 -41.5zM201.998 558c-34.667 -46.667 -52 -118.666 -52 -215.999c0 -96 17.5 -167 52.5 -213s82.833 -69 143.5 -69c62.667 0 111 22.833 145 68.5s51 117.167 51 214.5
s-17 169.166 -51 215.499s-82.333 69.5 -145 69.5c-61.333 0 -109.333 -23.333 -144 -70zM254.998 756.001l-22 45l197 105l37 -72z" />
    <glyph glyph-name="Ocircumflex" unicode="&#xd4;" horiz-adv-x="692" 
d="M497 658.5c43.333 -27.667 76.998 -68.167 100.998 -121.5s36 -118 36 -194c0 -74.667 -12 -138.667 -36 -192s-57.667 -93.833 -101 -121.5s-93.666 -41.5 -150.999 -41.5s-107.666 13.667 -150.999 41s-77 67.5 -101 120.5s-36 117.167 -36 192.5c0 74 12 138 36 192
s57.833 95.167 101.5 123.5s93.834 42.5 150.501 42.5c57.333 0 107.666 -13.833 150.999 -41.5zM201.998 558c-34.667 -46.667 -52 -118.666 -52 -215.999c0 -96 17.5 -167 52.5 -213s82.833 -69 143.5 -69c62.667 0 111 22.833 145 68.5s51 117.167 51 214.5
s-17 169.166 -51 215.499s-82.333 69.5 -145 69.5c-61.333 0 -109.333 -23.333 -144 -70zM221.998 760.001l-37 41l135 108h55l133 -108l-36 -41l-125 81z" />
    <glyph glyph-name="Otilde" unicode="&#xd5;" horiz-adv-x="692" 
d="M497 658.5c43.333 -27.667 76.998 -68.167 100.998 -121.5s36 -118 36 -194c0 -74.667 -12 -138.667 -36 -192s-57.667 -93.833 -101 -121.5s-93.666 -41.5 -150.999 -41.5s-107.666 13.667 -150.999 41s-77 67.5 -101 120.5s-36 117.167 -36 192.5c0 74 12 138 36 192
s57.833 95.167 101.5 123.5s93.834 42.5 150.501 42.5c57.333 0 107.666 -13.833 150.999 -41.5zM201.998 558c-34.667 -46.667 -52 -118.666 -52 -215.999c0 -96 17.5 -167 52.5 -213s82.833 -69 143.5 -69c62.667 0 111 22.833 145 68.5s51 117.167 51 214.5
s-17 169.166 -51 215.499s-82.333 69.5 -145 69.5c-61.333 0 -109.333 -23.333 -144 -70zM369.998 792.501c-11.333 5 -23.3311 11.833 -35.998 20.5c-11.333 6.66699 -19.833 11.5 -25.5 14.5s-12.167 4.5 -19.5 4.5c-11.333 0 -20.833 -3.5 -28.5 -10.5
s-16.167 -18.5 -25.5 -34.5l-51 26c27.333 56 62.666 84 105.999 84c12.667 0 24 -2.33301 34 -7s21.333 -11.334 34 -20.001c10 -7.33301 18.667 -12.666 26 -15.999s14.666 -5 21.999 -5c10 0 19 3.5 27 10.5s16.667 18.167 26 33.5l51 -26
c-12 -26.667 -26.833 -47 -44.5 -61s-36.5 -21 -56.5 -21c-14.667 0 -27.667 2.5 -39 7.5z" />
    <glyph glyph-name="Odieresis" unicode="&#xd6;" horiz-adv-x="692" 
d="M497 658.5c43.333 -27.667 76.998 -68.167 100.998 -121.5s36 -118 36 -194c0 -74.667 -12 -138.667 -36 -192s-57.667 -93.833 -101 -121.5s-93.666 -41.5 -150.999 -41.5s-107.666 13.667 -150.999 41s-77 67.5 -101 120.5s-36 117.167 -36 192.5c0 74 12 138 36 192
s57.833 95.167 101.5 123.5s93.834 42.5 150.501 42.5c57.333 0 107.666 -13.833 150.999 -41.5zM201.998 558c-34.667 -46.667 -52 -118.666 -52 -215.999c0 -96 17.5 -167 52.5 -213s82.833 -69 143.5 -69c62.667 0 111 22.833 145 68.5s51 117.167 51 214.5
s-17 169.166 -51 215.499s-82.333 69.5 -145 69.5c-61.333 0 -109.333 -23.333 -144 -70zM282.998 873.001c10 -10 15 -22.667 15 -38c0 -14.667 -5.16699 -27.167 -15.5 -37.5s-22.833 -15.5 -37.5 -15.5c-15.333 0 -28.166 5.16699 -38.499 15.5s-15.5 22.833 -15.5 37.5
c0 15.333 5.16699 28 15.5 38s23.166 15 38.499 15s28 -5 38 -15zM487.498 873.001c10.333 -10 15.5 -22.667 15.5 -38c0 -14.667 -5.16699 -27.167 -15.5 -37.5s-23.166 -15.5 -38.499 -15.5c-14.667 0 -27.167 5.16699 -37.5 15.5s-15.5 22.833 -15.5 37.5
c0 15.333 5.16699 28 15.5 38s22.833 15 37.5 15c15.333 0 28.166 -5 38.499 -15z" />
    <glyph glyph-name="multiply" unicode="&#xd7;" horiz-adv-x="498" 
d="M300 307l123 -123l-51 -52l-123 124l-122 -124l-52 52l123 123l-123 123l52 53l122 -125l123 125l51 -53z" />
    <glyph glyph-name="Oslash" unicode="&#xd8;" horiz-adv-x="692" 
d="M594 546c26.667 -55.333 39.998 -122.999 39.998 -202.999c0 -74.667 -12 -138.667 -36 -192s-57.667 -93.833 -101 -121.5s-93.666 -41.5 -150.999 -41.5c-22.667 0 -45.667 2.66699 -69 8l-35 -121l-73 19l40 127c-48 26 -85.167 66.167 -111.5 120.5
s-39.5 121.166 -39.5 200.499c0 74 12 138 36 192s57.833 95.167 101.5 123.5s93.834 42.5 150.501 42.5c19.333 0 42 -2.33301 68 -7l37 124l72 -20l-41 -129c48 -26 85.333 -66.667 112 -122zM238.998 90.001l160 532c-16 4 -33.667 6 -53 6
c-61.333 0 -109.333 -23.333 -144 -70s-52 -118.667 -52 -216c0 -127.333 29.667 -211.333 89 -252zM490.998 128.501c34 45.667 51 117.167 51 214.5c0 131.333 -30.333 217 -91 257l-159 -534c16.667 -4 34.667 -6 54 -6c62.667 0 111 22.833 145 68.5z" />
    <glyph glyph-name="Ugrave" unicode="&#xd9;" horiz-adv-x="660" 
d="M504.5 51.5c-41.667 -42.333 -100.168 -63.501 -175.501 -63.501c-76 0 -134.333 21 -175 63s-61 98 -61 168v469h86v-462c0 -109.333 50 -164 150 -164c50.667 0 88.334 13.667 113.001 41s37 68.333 37 123v462h88v-469c0 -69.333 -20.833 -125.166 -62.5 -167.499z
M415.999 755.999l-212 78l36 72l198 -105z" />
    <glyph glyph-name="Uacute" unicode="&#xda;" horiz-adv-x="660" 
d="M504.5 51.5c-41.667 -42.333 -100.168 -63.501 -175.501 -63.501c-76 0 -134.333 21 -175 63s-61 98 -61 168v469h86v-462c0 -109.333 50 -164 150 -164c50.667 0 88.334 13.667 113.001 41s37 68.333 37 123v462h88v-469c0 -69.333 -20.833 -125.166 -62.5 -167.499z
M236.999 755.999l-22 45l197 105l37 -72z" />
    <glyph glyph-name="Ucircumflex" unicode="&#xdb;" horiz-adv-x="660" 
d="M504.5 51.5c-41.667 -42.333 -100.168 -63.501 -175.501 -63.501c-76 0 -134.333 21 -175 63s-61 98 -61 168v469h86v-462c0 -109.333 50 -164 150 -164c50.667 0 88.334 13.667 113.001 41s37 68.333 37 123v462h88v-469c0 -69.333 -20.833 -125.166 -62.5 -167.499z
M204.999 759.999l-37 41l135 108h55l133 -108l-36 -41l-125 81z" />
    <glyph glyph-name="Udieresis" unicode="&#xdc;" horiz-adv-x="660" 
d="M504.5 51.5c-41.667 -42.333 -100.168 -63.501 -175.501 -63.501c-76 0 -134.333 21 -175 63s-61 98 -61 168v469h86v-462c0 -109.333 50 -164 150 -164c50.667 0 88.334 13.667 113.001 41s37 68.333 37 123v462h88v-469c0 -69.333 -20.833 -125.166 -62.5 -167.499z
M265.999 872.999c10 -10 15 -22.667 15 -38c0 -14.667 -5.16699 -27.167 -15.5 -37.5s-22.833 -15.5 -37.5 -15.5c-15.333 0 -28.166 5.16699 -38.499 15.5s-15.5 22.833 -15.5 37.5c0 15.333 5.16699 28 15.5 38s23.166 15 38.499 15s28 -5 38 -15zM470.499 872.999
c10.333 -10 15.5 -22.667 15.5 -38c0 -14.667 -5.16699 -27.167 -15.5 -37.5s-23.166 -15.5 -38.499 -15.5c-14.667 0 -27.167 5.16699 -37.5 15.5s-15.5 22.833 -15.5 37.5c0 15.333 5.16699 28 15.5 38s22.833 15 37.5 15c15.333 0 28.166 -5 38.499 -15z" />
    <glyph glyph-name="Yacute" unicode="&#xdd;" horiz-adv-x="544" 
d="M316 0h-88v265l-221 423h96l172 -347l171 347h91l-221 -422v-266zM181 756l-22 45l197 105l37 -72z" />
    <glyph glyph-name="Thorn" unicode="&#xde;" horiz-adv-x="578" 
d="M474 515.5c46 -35.667 69.001 -89.499 69.001 -161.499c0 -76.667 -23.833 -133.334 -71.5 -170.001s-111.834 -55 -192.501 -55h-90v-129h-86v688h86v-119h90c84 0 149 -17.833 195 -53.5zM406.501 232.001c29.667 22.667 44.5 63 44.5 121
c0 52.667 -14.833 90.5 -44.5 113.5s-72.5 34.5 -128.5 34.5h-89v-303h87c57.333 0 100.833 11.333 130.5 34z" />
    <glyph glyph-name="germandbls" unicode="&#xdf;" horiz-adv-x="590" 
d="M388.5 729.5c27 -12.333 47.6699 -29.1709 62.0029 -50.5039s21.5 -45.333 21.5 -72s-5.83301 -48.167 -17.5 -64.5s-28.167 -33.166 -49.5 -50.499c-16 -13.333 -27.5 -24.5 -34.5 -33.5s-10.833 -19.833 -11.5 -32.5c0.666992 -15.333 6.66699 -28.666 18 -39.999
s28.666 -25 51.999 -41c25.333 -17.333 45.833 -33 61.5 -47s29.167 -32.5 40.5 -55.5s17 -50.5 17 -82.5c0 -34 -7.83301 -64.167 -23.5 -90.5s-36.834 -46.5 -63.501 -60.5s-55.667 -21 -87 -21c-38.667 0 -72.334 7.66699 -101.001 23l25 59
c20 -9.33301 42.667 -14 68 -14c29.333 0 52.833 9 70.5 27s26.5 44 26.5 78c0 22 -4.33301 41.167 -13 57.5s-19.167 30 -31.5 41s-29.5 24.5 -51.5 40.5c-28.667 20.667 -50.334 39.334 -65.001 56.001s-22 38 -22 64c0 21.333 4.83301 38.5 14.5 51.5
s23.834 27.167 42.501 42.5c18 14.667 31.5 28.334 40.5 41.001s13.5 28.667 13.5 48c0 25.333 -9 44.833 -27 58.5s-41 20.5 -69 20.5c-36 0 -63.833 -11.833 -83.5 -35.5s-29.5 -59.5 -29.5 -107.5v-539h-84v539c0 66 17.333 117.333 52 154s83 55 145 55
c35.333 0 66.5 -6.16699 93.5 -18.5z" />
    <glyph glyph-name="agrave" unicode="&#xe0;" horiz-adv-x="542" 
d="M456.5 70.5c7 -10.333 18.168 -18.168 33.501 -23.501l-20 -59c-26.667 3.33301 -48 11.333 -64 24s-27.333 31.667 -34 57c-34.667 -54 -87.334 -81 -158.001 -81c-51.333 0 -91.833 14.5 -121.5 43.5s-44.5 67.5 -44.5 115.5c0 56 19.833 98.833 59.5 128.5
s95.834 44.5 168.501 44.5h86v41c0 38 -9.16699 65.5 -27.5 82.5s-46.833 25.5 -85.5 25.5c-40 0 -87.333 -9.66699 -142 -29l-21 62c63.333 24 122.666 36 177.999 36c61.333 0 107 -14.833 137 -44.5s45 -72.5 45 -128.5v-244c0 -23.333 3.5 -40.166 10.5 -50.499z
M362.001 136.998l0.000976562 126h-75c-100 0 -150 -37.333 -150 -112c0 -32 8.16699 -56.5 24.5 -73.5s40.166 -25.5 71.499 -25.5c54.667 0 97.667 28.333 129 85zM360.002 639.998l-208 85l38 72l196 -112z" />
    <glyph glyph-name="aacute" unicode="&#xe1;" horiz-adv-x="542" 
d="M456.5 70.5c7 -10.333 18.168 -18.168 33.501 -23.501l-20 -59c-26.667 3.33301 -48 11.333 -64 24s-27.333 31.667 -34 57c-34.667 -54 -87.334 -81 -158.001 -81c-51.333 0 -91.833 14.5 -121.5 43.5s-44.5 67.5 -44.5 115.5c0 56 19.833 98.833 59.5 128.5
s95.834 44.5 168.501 44.5h86v41c0 38 -9.16699 65.5 -27.5 82.5s-46.833 25.5 -85.5 25.5c-40 0 -87.333 -9.66699 -142 -29l-21 62c63.333 24 122.666 36 177.999 36c61.333 0 107 -14.833 137 -44.5s45 -72.5 45 -128.5v-244c0 -23.333 3.5 -40.166 10.5 -50.499z
M362.001 136.998l0.000976562 126h-75c-100 0 -150 -37.333 -150 -112c0 -32 8.16699 -56.5 24.5 -73.5s40.166 -25.5 71.499 -25.5c54.667 0 97.667 28.333 129 85zM159.002 639.998l-26 45l196 112l38 -72z" />
    <glyph glyph-name="acircumflex" unicode="&#xe2;" horiz-adv-x="542" 
d="M456.5 70.5c7 -10.333 18.168 -18.168 33.501 -23.501l-20 -59c-26.667 3.33301 -48 11.333 -64 24s-27.333 31.667 -34 57c-34.667 -54 -87.334 -81 -158.001 -81c-51.333 0 -91.833 14.5 -121.5 43.5s-44.5 67.5 -44.5 115.5c0 56 19.833 98.833 59.5 128.5
s95.834 44.5 168.501 44.5h86v41c0 38 -9.16699 65.5 -27.5 82.5s-46.833 25.5 -85.5 25.5c-40 0 -87.333 -9.66699 -142 -29l-21 62c63.333 24 122.666 36 177.999 36c61.333 0 107 -14.833 137 -44.5s45 -72.5 45 -128.5v-244c0 -23.333 3.5 -40.166 10.5 -50.499z
M362.001 136.998l0.000976562 126h-75c-100 0 -150 -37.333 -150 -112c0 -32 8.16699 -56.5 24.5 -73.5s40.166 -25.5 71.499 -25.5c54.667 0 97.667 28.333 129 85zM233.002 788.998h55l134 -111l-36 -42l-125 84l-126 -84l-36 42z" />
    <glyph glyph-name="atilde" unicode="&#xe3;" horiz-adv-x="542" 
d="M456.5 70.5c7 -10.333 18.168 -18.168 33.501 -23.501l-20 -59c-26.667 3.33301 -48 11.333 -64 24s-27.333 31.667 -34 57c-34.667 -54 -87.334 -81 -158.001 -81c-51.333 0 -91.833 14.5 -121.5 43.5s-44.5 67.5 -44.5 115.5c0 56 19.833 98.833 59.5 128.5
s95.834 44.5 168.501 44.5h86v41c0 38 -9.16699 65.5 -27.5 82.5s-46.833 25.5 -85.5 25.5c-40 0 -87.333 -9.66699 -142 -29l-21 62c63.333 24 122.666 36 177.999 36c61.333 0 107 -14.833 137 -44.5s45 -72.5 45 -128.5v-244c0 -23.333 3.5 -40.166 10.5 -50.499z
M362.001 136.998l0.000976562 126h-75c-100 0 -150 -37.333 -150 -112c0 -32 8.16699 -56.5 24.5 -73.5s40.166 -25.5 71.499 -25.5c54.667 0 97.667 28.333 129 85zM283.002 666.498c-11.333 5 -23.333 11.833 -36 20.5c-9.33301 6.66699 -17.333 11.5 -24 14.5
s-13.667 4.5 -21 4.5c-11.333 0 -20.833 -3.5 -28.5 -10.5s-16.167 -18.5 -25.5 -34.5l-51 26c27.333 55.333 62.666 83 105.999 83c12.667 0.666992 24 -1.33301 34 -6s21.333 -11.334 34 -20.001c10.667 -7.33301 19.334 -12.666 26.001 -15.999s13.667 -5 21 -5
c10 0 19 3.5 27 10.5s17 18.167 27 33.5l51 -26c-12 -27.333 -27 -48 -45 -62s-37 -21 -57 -21c-14 0.666992 -26.667 3.5 -38 8.5z" />
    <glyph glyph-name="adieresis" unicode="&#xe4;" horiz-adv-x="542" 
d="M456.5 70.5c7 -10.333 18.168 -18.168 33.501 -23.501l-20 -59c-26.667 3.33301 -48 11.333 -64 24s-27.333 31.667 -34 57c-34.667 -54 -87.334 -81 -158.001 -81c-51.333 0 -91.833 14.5 -121.5 43.5s-44.5 67.5 -44.5 115.5c0 56 19.833 98.833 59.5 128.5
s95.834 44.5 168.501 44.5h86v41c0 38 -9.16699 65.5 -27.5 82.5s-46.833 25.5 -85.5 25.5c-40 0 -87.333 -9.66699 -142 -29l-21 62c63.333 24 122.666 36 177.999 36c61.333 0 107 -14.833 137 -44.5s45 -72.5 45 -128.5v-244c0 -23.333 3.5 -40.166 10.5 -50.499z
M362.001 136.998l0.000976562 126h-75c-100 0 -150 -37.333 -150 -112c0 -32 8.16699 -56.5 24.5 -73.5s40.166 -25.5 71.499 -25.5c54.667 0 97.667 28.333 129 85zM196.002 746.998c10 -10 15 -22.667 15 -38c0 -14.667 -5 -27.167 -15 -37.5s-22.667 -15.5 -38 -15.5
s-28.166 5 -38.499 15s-15.5 22.667 -15.5 38s5.16699 28 15.5 38s23.166 15 38.499 15s28 -5 38 -15zM400.502 746.998c10.333 -10 15.5 -22.667 15.5 -38s-5.16699 -28 -15.5 -38s-23.166 -15 -38.499 -15c-14.667 0 -27.167 5.16699 -37.5 15.5s-15.5 22.833 -15.5 37.5
c0 15.333 5.16699 28 15.5 38s22.833 15 37.5 15c15.333 0 28.166 -5 38.499 -15z" />
    <glyph glyph-name="aring" unicode="&#xe5;" horiz-adv-x="542" 
d="M456.5 70.5c7 -10.333 18.168 -18.168 33.501 -23.501l-20 -59c-26.667 3.33301 -48 11.333 -64 24s-27.333 31.667 -34 57c-34.667 -54 -87.334 -81 -158.001 -81c-51.333 0 -91.833 14.5 -121.5 43.5s-44.5 67.5 -44.5 115.5c0 56 19.833 98.833 59.5 128.5
s95.834 44.5 168.501 44.5h86v41c0 38 -9.16699 65.5 -27.5 82.5s-46.833 25.5 -85.5 25.5c-40 0 -87.333 -9.66699 -142 -29l-21 62c63.333 24 122.666 36 177.999 36c61.333 0 107 -14.833 137 -44.5s45 -72.5 45 -128.5v-244c0 -23.333 3.5 -40.166 10.5 -50.499z
M362.001 136.998l0.000976562 126h-75c-100 0 -150 -37.333 -150 -112c0 -32 8.16699 -56.5 24.5 -73.5s40.166 -25.5 71.499 -25.5c54.667 0 97.667 28.333 129 85zM339.502 802.498c21 -19.667 31.5 -44.167 31.5 -73.5s-10.5 -53.833 -31.5 -73.5
s-47.5 -29.5 -79.5 -29.5s-58.333 9.83301 -79 29.5s-31 44.167 -31 73.5s10.333 53.833 31 73.5s47 29.5 79 29.5s58.5 -9.83301 79.5 -29.5zM221.002 770.998c-9.33301 -10 -14.002 -24 -14.002 -42c0 -17.333 4.66699 -31 14 -41s22.333 -15 39 -15s29.834 5 39.501 15
s14.5 23.667 14.5 41c0 18 -4.66699 32 -14 42s-22.666 15 -39.999 15c-16.667 0 -29.667 -5 -39 -15z" />
    <glyph glyph-name="ae" unicode="&#xe6;" horiz-adv-x="853" 
d="M793 234h-338.999c4 -60.667 19 -105.334 45 -134.001s60 -43 102 -43c26 0 49.667 3.66699 71 11s43.666 19.333 66.999 36l37 -50c-27.333 -21.333 -55.666 -37.666 -84.999 -48.999s-61.333 -17 -96 -17c-42.667 0 -80 8.5 -112 25.5s-57.667 41.5 -77 73.5
c-25.333 -35.333 -53 -60.666 -83 -75.999s-65.333 -23 -106 -23c-52 0 -93.167 14.667 -123.5 44s-45.5 67.666 -45.5 114.999c0 55.333 20.333 98 61 128s97.334 45 170.001 45h85v41c0 38.667 -9 66.334 -27 83.001s-46.333 25 -85 25c-40.667 0 -88 -9.66699 -142 -29
l-22 62c64 24 123.333 36 178 36c41.333 0 74.666 -7.5 99.999 -22.5s45 -36.5 59 -64.5c36.667 58 90 87 160 87c67.333 0 119.166 -22.833 155.499 -68.5s54.5 -108.834 54.5 -189.501c0 -16 -0.666992 -31.333 -2 -46zM712.001 304c0 54 -10.833 95.333 -32.5 124
s-53.834 43 -96.501 43c-38 0 -68.167 -14.333 -90.5 -43s-35.166 -72.667 -38.499 -132h258v8zM313.501 75c23 15.333 44.833 39.332 65.5 71.999c-10 36.667 -15 73.334 -15 110.001v3v3h-74c-100 0 -150 -37.333 -150 -112c0 -32 8.16699 -56.5 24.5 -73.5
s39.833 -25.5 70.5 -25.5c29.333 0 55.5 7.66699 78.5 23z" />
    <glyph glyph-name="ccedilla" unicode="&#xe7;" horiz-adv-x="476" 
d="M375.5 -84.5c15 -15 22.502 -33.835 22.502 -56.502c0 -30.667 -11.333 -54.5 -34 -71.5s-51 -25.5 -85 -25.5c-38 0 -67.667 8 -89 24l24 48c19.333 -10.667 40 -16 62 -16c15.333 0 27.666 3.33301 36.999 10s14 17 14 31c0 14.667 -7 25.5 -21 32.5
s-36.667 10.5 -68 10.5l11 89c-59.333 8.66699 -105.833 36.334 -139.5 83.001s-50.5 108.334 -50.5 185.001c0 56 9.16699 105 27.5 147s44.666 74.5 78.999 97.5s74.833 34.5 121.5 34.5c31.333 0 59.666 -4.33301 84.999 -13s49.666 -23 72.999 -43l-42 -55
c-17.333 14 -35 24.333 -53 31s-38 10 -60 10c-44 0 -78.5 -17.5 -103.5 -52.5s-37.5 -86.833 -37.5 -155.5c0 -68 12.333 -118.333 37 -151s59.334 -49 104.001 -49c22 0 41.667 3.33301 59 10s36 17.667 56 33l40 -57c-41.333 -34 -87.666 -53 -138.999 -57v-47
c31.333 -2.66699 54.5 -11.5 69.5 -26.5z" />
    <glyph glyph-name="egrave" unicode="&#xe8;" horiz-adv-x="547" 
d="M487 234l-338.999 0.00195312c4 -60.667 19 -105.334 45 -134.001s60 -43 102 -43c26 0 49.667 3.66699 71 11s43.666 19.333 66.999 36l37 -50c-54.667 -44 -115 -66 -181 -66c-72 0 -128.333 24 -169 72s-61 114 -61 198c0 54.667 8.66699 103.167 26 145.5
s42.333 75.333 75 99s71 35.5 115 35.5c69.333 0 122.333 -22.833 159 -68.5s55 -108.834 55 -189.501c0 -16 -0.666992 -31.333 -2 -46zM406.001 304.002c0 54 -10.833 95.333 -32.5 124s-53.834 43 -96.501 43c-38 0 -68.167 -14.333 -90.5 -43
s-35.166 -72.667 -38.499 -132h258v8zM378.001 640.002l-208 85l38 72l196 -112z" />
    <glyph glyph-name="eacute" unicode="&#xe9;" horiz-adv-x="547" 
d="M487 234l-338.999 0.00195312c4 -60.667 19 -105.334 45 -134.001s60 -43 102 -43c26 0 49.667 3.66699 71 11s43.666 19.333 66.999 36l37 -50c-54.667 -44 -115 -66 -181 -66c-72 0 -128.333 24 -169 72s-61 114 -61 198c0 54.667 8.66699 103.167 26 145.5
s42.333 75.333 75 99s71 35.5 115 35.5c69.333 0 122.333 -22.833 159 -68.5s55 -108.834 55 -189.501c0 -16 -0.666992 -31.333 -2 -46zM406.001 304.002c0 54 -10.833 95.333 -32.5 124s-53.834 43 -96.501 43c-38 0 -68.167 -14.333 -90.5 -43
s-35.166 -72.667 -38.499 -132h258v8zM177.001 640.002l-26 45l196 112l38 -72z" />
    <glyph glyph-name="ecircumflex" unicode="&#xea;" horiz-adv-x="547" 
d="M487 234l-338.999 0.00195312c4 -60.667 19 -105.334 45 -134.001s60 -43 102 -43c26 0 49.667 3.66699 71 11s43.666 19.333 66.999 36l37 -50c-54.667 -44 -115 -66 -181 -66c-72 0 -128.333 24 -169 72s-61 114 -61 198c0 54.667 8.66699 103.167 26 145.5
s42.333 75.333 75 99s71 35.5 115 35.5c69.333 0 122.333 -22.833 159 -68.5s55 -108.834 55 -189.501c0 -16 -0.666992 -31.333 -2 -46zM406.001 304.002c0 54 -10.833 95.333 -32.5 124s-53.834 43 -96.501 43c-38 0 -68.167 -14.333 -90.5 -43
s-35.166 -72.667 -38.499 -132h258v8zM251.001 789.002h55l134 -111l-36 -42l-125 84l-126 -84l-36 42z" />
    <glyph glyph-name="edieresis" unicode="&#xeb;" horiz-adv-x="547" 
d="M487 234l-338.999 0.00195312c4 -60.667 19 -105.334 45 -134.001s60 -43 102 -43c26 0 49.667 3.66699 71 11s43.666 19.333 66.999 36l37 -50c-54.667 -44 -115 -66 -181 -66c-72 0 -128.333 24 -169 72s-61 114 -61 198c0 54.667 8.66699 103.167 26 145.5
s42.333 75.333 75 99s71 35.5 115 35.5c69.333 0 122.333 -22.833 159 -68.5s55 -108.834 55 -189.501c0 -16 -0.666992 -31.333 -2 -46zM406.001 304.002c0 54 -10.833 95.333 -32.5 124s-53.834 43 -96.501 43c-38 0 -68.167 -14.333 -90.5 -43
s-35.166 -72.667 -38.499 -132h258v8zM214.001 747.002c10 -10 15 -22.667 15 -38c0 -14.667 -5 -27.167 -15 -37.5s-22.667 -15.5 -38 -15.5s-28.166 5 -38.499 15s-15.5 22.667 -15.5 38s5.16699 28 15.5 38s23.166 15 38.499 15s28 -5 38 -15zM418.501 747.002
c10.333 -10 15.5 -22.667 15.5 -38s-5.16699 -28 -15.5 -38s-23.166 -15 -38.499 -15c-14.667 0 -27.167 5.16699 -37.5 15.5s-15.5 22.833 -15.5 37.5c0 15.333 5.16699 28 15.5 38s22.833 15 37.5 15c15.333 0 28.166 -5 38.499 -15z" />
    <glyph glyph-name="igrave" unicode="&#xec;" horiz-adv-x="279" 
d="M98 0v526h84v-526h-84zM240 640l-208 85l38 72l196 -112z" />
    <glyph glyph-name="iacute" unicode="&#xed;" horiz-adv-x="279" 
d="M98 0v526h84v-526h-84zM39 640l-26 45l196 112l38 -72z" />
    <glyph glyph-name="icircumflex" unicode="&#xee;" horiz-adv-x="279" 
d="M98 0v526h84v-526h-84zM113 789h55l134 -111l-36 -42l-125 84l-126 -84l-36 42z" />
    <glyph glyph-name="idieresis" unicode="&#xef;" horiz-adv-x="279" 
d="M98 0v526h84v-526h-84zM75 747c10 -10 15 -22.667 15 -38c0 -14.667 -5 -27.167 -15 -37.5s-22.667 -15.5 -38 -15.5s-28.166 5 -38.499 15s-15.5 22.667 -15.5 38s5.16699 28 15.5 38s23.166 15 38.499 15s28 -5 38 -15zM279.5 747c10.333 -10 15.5 -22.667 15.5 -38
s-5.16699 -28 -15.5 -38s-23.166 -15 -38.499 -15c-14.667 0 -27.167 5.16699 -37.5 15.5s-15.5 22.833 -15.5 37.5c0 15.333 5.16699 28 15.5 38s22.833 15 37.5 15c15.333 0 28.166 -5 38.499 -15z" />
    <glyph glyph-name="eth" unicode="&#xf0;" horiz-adv-x="568" 
d="M465 502c25.333 -62.667 38.002 -140.666 38.002 -233.999c0 -56.667 -9.5 -106.167 -28.5 -148.5s-45.5 -74.833 -79.5 -97.5s-73.333 -34 -118 -34c-41.333 0 -78.5 9.83301 -111.5 29.5s-59 48 -78 85s-28.5 80.833 -28.5 131.5c0 41.333 7.5 80.166 22.5 116.499
s37.5 65.833 67.5 88.5s66.333 34 109 34c61.333 0 111.666 -23 150.999 -69c-8 44 -21.833 82.833 -41.5 116.5s-46.834 64.167 -81.501 91.5l-73 -70l-58 29l76 76c-36.667 16.667 -75 29 -115 37l18 65c56.667 -11.333 106 -28 148 -50l70 74l50 -43l-65 -66
c60 -45.333 102.667 -99.333 128 -162zM379.502 111.001c25.667 37.333 38.5 90.334 38.5 159.001c0 13.333 -0.666992 32 -2 56c-35.333 54 -83.666 81 -144.999 81c-44.667 0 -76.834 -15.5 -96.501 -46.5s-29.5 -71.833 -29.5 -122.5
c0 -58.667 11.833 -103.834 35.5 -135.501s55.5 -47.5 95.5 -47.5c43.333 0 77.833 18.667 103.5 56z" />
    <glyph glyph-name="ntilde" unicode="&#xf1;" horiz-adv-x="585" 
d="M453.5 495c26.333 -28.667 39.499 -68 39.499 -118v-377h-84v365c0 38.667 -7.33301 66.167 -22 82.5s-36.334 24.5 -65.001 24.5c-29.333 0 -55.166 -8.33301 -77.499 -25s-43.166 -40.667 -62.499 -72v-375h-84v526h72l7 -80c20 28.667 44 51.167 72 67.5
s59 24.5 93 24.5c48 0 85.167 -14.333 111.5 -43zM319.999 666.5c-11.333 5 -23.333 11.833 -36 20.5c-9.33301 6.66699 -17.333 11.5 -24 14.5s-13.667 4.5 -21 4.5c-11.333 0 -20.833 -3.5 -28.5 -10.5s-16.167 -18.5 -25.5 -34.5l-51 26
c27.333 55.333 62.666 83 105.999 83c12.667 0.666992 24 -1.33301 34 -6s21.333 -11.334 34 -20.001c10.667 -7.33301 19.334 -12.666 26.001 -15.999s13.667 -5 21 -5c10 0 19 3.5 27 10.5s17 18.167 27 33.5l51 -26c-12 -27.333 -27 -48 -45 -62s-37 -21 -57 -21
c-14 0.666992 -26.667 3.5 -38 8.5z" />
    <glyph glyph-name="ograve" unicode="&#xf2;" horiz-adv-x="581" 
d="M461.5 464.5c40.333 -49 60.502 -115.833 60.502 -200.5c0 -84 -20.5 -151 -61.5 -201s-97.833 -75 -170.5 -75s-129.334 24.5 -170.001 73.5s-61 115.833 -61 200.5c0 84 20.5 151 61.5 201s97.833 75 170.5 75c73.333 0 130.166 -24.5 170.499 -73.5zM185.502 418
c-24.333 -34.667 -36.5 -86.667 -36.5 -156c0 -68.667 12 -120.167 36 -154.5s59 -51.5 105 -51.5s81.167 17.333 105.5 52s36.5 86.667 36.5 156c0 68.667 -12 120.167 -36 154.5s-59 51.5 -105 51.5s-81.167 -17.333 -105.5 -52zM391.002 640l-208 85l38 72l196 -112z" />
    <glyph glyph-name="oacute" unicode="&#xf3;" horiz-adv-x="581" 
d="M461.5 464.5c40.333 -49 60.502 -115.833 60.502 -200.5c0 -84 -20.5 -151 -61.5 -201s-97.833 -75 -170.5 -75s-129.334 24.5 -170.001 73.5s-61 115.833 -61 200.5c0 84 20.5 151 61.5 201s97.833 75 170.5 75c73.333 0 130.166 -24.5 170.499 -73.5zM185.502 418
c-24.333 -34.667 -36.5 -86.667 -36.5 -156c0 -68.667 12 -120.167 36 -154.5s59 -51.5 105 -51.5s81.167 17.333 105.5 52s36.5 86.667 36.5 156c0 68.667 -12 120.167 -36 154.5s-59 51.5 -105 51.5s-81.167 -17.333 -105.5 -52zM189.002 640l-26 45l196 112l38 -72z" />
    <glyph glyph-name="ocircumflex" unicode="&#xf4;" horiz-adv-x="581" 
d="M461.5 464.5c40.333 -49 60.502 -115.833 60.502 -200.5c0 -84 -20.5 -151 -61.5 -201s-97.833 -75 -170.5 -75s-129.334 24.5 -170.001 73.5s-61 115.833 -61 200.5c0 84 20.5 151 61.5 201s97.833 75 170.5 75c73.333 0 130.166 -24.5 170.499 -73.5zM185.502 418
c-24.333 -34.667 -36.5 -86.667 -36.5 -156c0 -68.667 12 -120.167 36 -154.5s59 -51.5 105 -51.5s81.167 17.333 105.5 52s36.5 86.667 36.5 156c0 68.667 -12 120.167 -36 154.5s-59 51.5 -105 51.5s-81.167 -17.333 -105.5 -52zM263.002 789h55l134 -111l-36 -42l-125 84
l-126 -84l-36 42z" />
    <glyph glyph-name="otilde" unicode="&#xf5;" horiz-adv-x="581" 
d="M461.5 464.5c40.333 -49 60.502 -115.833 60.502 -200.5c0 -84 -20.5 -151 -61.5 -201s-97.833 -75 -170.5 -75s-129.334 24.5 -170.001 73.5s-61 115.833 -61 200.5c0 84 20.5 151 61.5 201s97.833 75 170.5 75c73.333 0 130.166 -24.5 170.499 -73.5zM185.502 418
c-24.333 -34.667 -36.5 -86.667 -36.5 -156c0 -68.667 12 -120.167 36 -154.5s59 -51.5 105 -51.5s81.167 17.333 105.5 52s36.5 86.667 36.5 156c0 68.667 -12 120.167 -36 154.5s-59 51.5 -105 51.5s-81.167 -17.333 -105.5 -52zM313.002 666.5
c-11.333 5 -23.333 11.833 -36 20.5c-9.33301 6.66699 -17.333 11.5 -24 14.5s-13.667 4.5 -21 4.5c-11.333 0 -20.833 -3.5 -28.5 -10.5s-16.167 -18.5 -25.5 -34.5l-51 26c27.333 55.333 62.666 83 105.999 83c12.667 0.666992 24 -1.33301 34 -6
s21.333 -11.334 34 -20.001c10.667 -7.33301 19.334 -12.666 26.001 -15.999s13.667 -5 21 -5c10 0 19 3.5 27 10.5s17 18.167 27 33.5l51 -26c-12 -27.333 -27 -48 -45 -62s-37 -21 -57 -21c-14 0.666992 -26.667 3.5 -38 8.5z" />
    <glyph glyph-name="odieresis" unicode="&#xf6;" horiz-adv-x="581" 
d="M461.5 464.5c40.333 -49 60.502 -115.833 60.502 -200.5c0 -84 -20.5 -151 -61.5 -201s-97.833 -75 -170.5 -75s-129.334 24.5 -170.001 73.5s-61 115.833 -61 200.5c0 84 20.5 151 61.5 201s97.833 75 170.5 75c73.333 0 130.166 -24.5 170.499 -73.5zM185.502 418
c-24.333 -34.667 -36.5 -86.667 -36.5 -156c0 -68.667 12 -120.167 36 -154.5s59 -51.5 105 -51.5s81.167 17.333 105.5 52s36.5 86.667 36.5 156c0 68.667 -12 120.167 -36 154.5s-59 51.5 -105 51.5s-81.167 -17.333 -105.5 -52zM226.002 747c10 -10 15 -22.667 15 -38
c0 -14.667 -5 -27.167 -15 -37.5s-22.667 -15.5 -38 -15.5s-28.166 5 -38.499 15s-15.5 22.667 -15.5 38s5.16699 28 15.5 38s23.166 15 38.499 15s28 -5 38 -15zM430.502 747c10.333 -10 15.5 -22.667 15.5 -38s-5.16699 -28 -15.5 -38s-23.166 -15 -38.499 -15
c-14.667 0 -27.167 5.16699 -37.5 15.5s-15.5 22.833 -15.5 37.5c0 15.333 5.16699 28 15.5 38s22.833 15 37.5 15c15.333 0 28.166 -5 38.499 -15z" />
    <glyph glyph-name="divide" unicode="&#xf7;" horiz-adv-x="498" 
d="M294.5 151.5c12.333 -12.333 18.5 -27.5 18.5 -45.5s-6.16699 -33.333 -18.5 -46s-27.833 -19 -46.5 -19c-18 0 -33.167 6.33301 -45.5 19s-18.5 28 -18.5 46c0 17.333 6.16699 32.333 18.5 45s27.5 19 45.5 19c18.667 0 34.167 -6.16699 46.5 -18.5zM294.5 604.5
c12.333 -12.333 18.5 -27.5 18.5 -45.5s-6.16699 -33.333 -18.5 -46s-27.833 -19 -46.5 -19c-18 0 -33.167 6.33301 -45.5 19s-18.5 28 -18.5 46c0 17.333 6.16699 32.333 18.5 45s27.5 19 45.5 19c18.667 0 34.167 -6.16699 46.5 -18.5zM435 368v-71h-371v71h371z" />
    <glyph glyph-name="oslash" unicode="&#xf8;" horiz-adv-x="581" 
d="M493.5 413c19 -42 28.501 -91.667 28.501 -149c0 -84 -20.5 -151 -61.5 -201s-97.833 -75 -170.5 -75c-16.667 0 -34.334 1.66699 -53.001 5l-40 -122l-68 20l42 127c-36.667 21.333 -64.5 53 -83.5 95s-28.5 91.667 -28.5 149c0 84 20.5 151 61.5 201
s97.833 75 170.5 75c17.333 0 35.333 -1.66699 54 -5l39 121l69 -20l-42 -126c36 -21.333 63.5 -53 82.5 -95zM185.501 418c-24.333 -34.667 -36.5 -86.667 -36.5 -156c0 -90.667 18.333 -150.667 55 -180l127 384c-10.667 2.66699 -24 4 -40 4
c-46 0 -81.167 -17.333 -105.5 -52zM395.501 108c24.333 34.667 36.499 86.667 36.499 156c0 46.667 -4.33301 84.667 -13 114s-22 51.333 -40 66l-127 -384c10.667 -2.66699 23.334 -4 38.001 -4c46 0 81.167 17.333 105.5 52z" />
    <glyph glyph-name="ugrave" unicode="&#xf9;" horiz-adv-x="581" 
d="M412 0l-7 85c-20 -32.667 -43.167 -57 -69.5 -73s-58.166 -24 -95.499 -24c-46.667 0 -82.834 14 -108.501 42s-38.5 67.667 -38.5 119v377h84v-368c0 -37.333 6.66699 -63.833 20 -79.5s35.333 -23.5 66 -23.5c54 0 99.667 31.333 137 94v377h84v-526h-72zM389 640
l-208 85l38 72l196 -112z" />
    <glyph glyph-name="uacute" unicode="&#xfa;" horiz-adv-x="581" 
d="M412 0l-7 85c-20 -32.667 -43.167 -57 -69.5 -73s-58.166 -24 -95.499 -24c-46.667 0 -82.834 14 -108.501 42s-38.5 67.667 -38.5 119v377h84v-368c0 -37.333 6.66699 -63.833 20 -79.5s35.333 -23.5 66 -23.5c54 0 99.667 31.333 137 94v377h84v-526h-72zM187 640
l-26 45l196 112l38 -72z" />
    <glyph glyph-name="ucircumflex" unicode="&#xfb;" horiz-adv-x="581" 
d="M412 0l-7 85c-20 -32.667 -43.167 -57 -69.5 -73s-58.166 -24 -95.499 -24c-46.667 0 -82.834 14 -108.501 42s-38.5 67.667 -38.5 119v377h84v-368c0 -37.333 6.66699 -63.833 20 -79.5s35.333 -23.5 66 -23.5c54 0 99.667 31.333 137 94v377h84v-526h-72zM261 789h55
l134 -111l-36 -42l-125 84l-126 -84l-36 42z" />
    <glyph glyph-name="udieresis" unicode="&#xfc;" horiz-adv-x="581" 
d="M412 0l-7 85c-20 -32.667 -43.167 -57 -69.5 -73s-58.166 -24 -95.499 -24c-46.667 0 -82.834 14 -108.501 42s-38.5 67.667 -38.5 119v377h84v-368c0 -37.333 6.66699 -63.833 20 -79.5s35.333 -23.5 66 -23.5c54 0 99.667 31.333 137 94v377h84v-526h-72zM224 747
c10 -10 15 -22.667 15 -38c0 -14.667 -5 -27.167 -15 -37.5s-22.667 -15.5 -38 -15.5s-28.166 5 -38.499 15s-15.5 22.667 -15.5 38s5.16699 28 15.5 38s23.166 15 38.499 15s28 -5 38 -15zM428.5 747c10.333 -10 15.5 -22.667 15.5 -38s-5.16699 -28 -15.5 -38
s-23.166 -15 -38.499 -15c-14.667 0 -27.167 5.16699 -37.5 15.5s-15.5 22.833 -15.5 37.5c0 15.333 5.16699 28 15.5 38s22.833 15 37.5 15c15.333 0 28.166 -5 38.499 -15z" />
    <glyph glyph-name="yacute" unicode="&#xfd;" horiz-adv-x="486" 
d="M214 -146.5c-36 -34.333 -87.001 -55.835 -153.001 -64.502l-10 66c34.667 6.66699 62.334 15.834 83.001 27.501s37 26.5 49 44.5s23.667 42.333 35 73h-29l-178 526h90l145 -465l142 465h87l-177 -529c-20 -61.333 -48 -109.166 -84 -143.499zM140.999 639.998l-26 45
l196 112l38 -72z" />
    <glyph glyph-name="thorn" unicode="&#xfe;" horiz-adv-x="591" 
d="M480 466.5c31.333 -47.667 47 -115.167 47 -202.5c0 -83.333 -17.667 -150.166 -53 -200.499s-86 -75.5 -152 -75.5c-59.333 0 -106 21 -140 63v-248l-84 -14v949l84 10v-288c18.667 25.333 41 44.666 67 57.999s54 20 84 20c66.667 0 115.667 -23.833 147 -71.5z
M437 264c0 138 -41.333 207.001 -124 207.001c-26.667 0 -51 -7.83301 -73 -23.5s-41.333 -35.834 -58 -60.501v-262c14 -22 31.333 -38.833 52 -50.5s43.667 -17.5 69 -17.5c89.333 0 134 69 134 207z" />
    <glyph glyph-name="ydieresis" unicode="&#xff;" horiz-adv-x="486" 
d="M214 -146.5c-36 -34.333 -87.001 -55.835 -153.001 -64.502l-10 66c34.667 6.66699 62.334 15.834 83.001 27.501s37 26.5 49 44.5s23.667 42.333 35 73h-29l-178 526h90l145 -465l142 465h87l-177 -529c-20 -61.333 -48 -109.166 -84 -143.499zM176.999 746.998
c10 -10 15 -22.667 15 -38c0 -14.667 -5 -27.167 -15 -37.5s-22.667 -15.5 -38 -15.5s-28.166 5 -38.499 15s-15.5 22.667 -15.5 38s5.16699 28 15.5 38s23.166 15 38.499 15s28 -5 38 -15zM381.499 746.998c10.333 -10 15.5 -22.667 15.5 -38s-5.16699 -28 -15.5 -38
s-23.166 -15 -38.499 -15c-14.667 0 -27.167 5.16699 -37.5 15.5s-15.5 22.833 -15.5 37.5c0 15.333 5.16699 28 15.5 38s22.833 15 37.5 15c15.333 0 28.166 -5 38.499 -15z" />
    <glyph glyph-name="Amacron" unicode="&#x100;" horiz-adv-x="571" 
d="M150 176l-54 -176h-88l223 688h110l222 -688h-92l-53 176h-268zM284 616l-112 -369h224zM153 854h266v-64h-266v64z" />
    <glyph glyph-name="amacron" unicode="&#x101;" horiz-adv-x="542" 
d="M456.5 70.5c7 -10.333 18.168 -18.168 33.501 -23.501l-20 -59c-26.667 3.33301 -48 11.333 -64 24s-27.333 31.667 -34 57c-34.667 -54 -87.334 -81 -158.001 -81c-51.333 0 -91.833 14.5 -121.5 43.5s-44.5 67.5 -44.5 115.5c0 56 19.833 98.833 59.5 128.5
s95.834 44.5 168.501 44.5h86v41c0 38 -9.16699 65.5 -27.5 82.5s-46.833 25.5 -85.5 25.5c-40 0 -87.333 -9.66699 -142 -29l-21 62c63.333 24 122.666 36 177.999 36c61.333 0 107 -14.833 137 -44.5s45 -72.5 45 -128.5v-244c0 -23.333 3.5 -40.166 10.5 -50.499z
M362.001 136.998l0.000976562 126h-75c-100 0 -150 -37.333 -150 -112c0 -32 8.16699 -56.5 24.5 -73.5s40.166 -25.5 71.499 -25.5c54.667 0 97.667 28.333 129 85zM127.002 732.998h265v-64h-265v64z" />
    <glyph glyph-name="Abreve" unicode="&#x102;" horiz-adv-x="571" 
d="M150 176l-54 -176h-88l223 688h110l222 -688h-92l-53 176h-268zM284 616l-112 -369h224zM185.5 792.5c-27 21.667 -42.501 49.834 -46.501 84.501l56 12c15.333 -43.333 45 -65 89 -65c22.667 0 41.834 5.83301 57.501 17.5s27.167 27.5 34.5 47.5l56 -12
c-4 -34.667 -19.667 -62.834 -47 -84.501s-61 -32.5 -101 -32.5c-38.667 0 -71.5 10.833 -98.5 32.5z" />
    <glyph glyph-name="abreve" unicode="&#x103;" horiz-adv-x="542" 
d="M456.5 70.5c7 -10.333 18.168 -18.168 33.501 -23.501l-20 -59c-26.667 3.33301 -48 11.333 -64 24s-27.333 31.667 -34 57c-34.667 -54 -87.334 -81 -158.001 -81c-51.333 0 -91.833 14.5 -121.5 43.5s-44.5 67.5 -44.5 115.5c0 56 19.833 98.833 59.5 128.5
s95.834 44.5 168.501 44.5h86v41c0 38 -9.16699 65.5 -27.5 82.5s-46.833 25.5 -85.5 25.5c-40 0 -87.333 -9.66699 -142 -29l-21 62c63.333 24 122.666 36 177.999 36c61.333 0 107 -14.833 137 -44.5s45 -72.5 45 -128.5v-244c0 -23.333 3.5 -40.166 10.5 -50.499z
M362.001 136.998l0.000976562 126h-75c-100 0 -150 -37.333 -150 -112c0 -32 8.16699 -56.5 24.5 -73.5s40.166 -25.5 71.499 -25.5c54.667 0 97.667 28.333 129 85zM159.002 679.498c-26.667 23 -42 54.167 -46 93.5l56 12c14 -50 43.667 -75 89 -75c47.333 0 78 25 92 75
l56 -12c-4 -39.333 -19.667 -70.5 -47 -93.5s-61 -34.5 -101 -34.5c-39.333 0 -72.333 11.5 -99 34.5z" />
    <glyph glyph-name="Aogonek" unicode="&#x104;" horiz-adv-x="571" 
d="M431 -57.5c-17.333 -17.667 -26 -36.832 -26 -57.499c0 -32.667 19.333 -49 58 -49c18 0 37.667 2.33301 59 7l-8 -65c-20 -4 -40.667 -6 -62 -6c-37.333 0 -66.833 9.16699 -88.5 27.5s-32.5 41.833 -32.5 70.5c0 31.333 11.167 58.833 33.5 82.5s56.5 44.5 102.5 62.5
l-49 161h-268l-54 -176h-88l223 688h110l222 -688h-36c-46.667 -20.667 -78.667 -39.834 -96 -57.501zM284 616.002l-112 -369h224z" />
    <glyph glyph-name="aogonek" unicode="&#x105;" horiz-adv-x="542" 
d="M374 -69c-17.333 -17.333 -25.998 -36.335 -25.998 -57.002c0 -32.667 19.333 -49 58 -49c18 0 37.667 2.33301 59 7l-8 -65c-23.333 -4.66699 -44 -7 -62 -7c-37.333 0 -66.833 9.16699 -88.5 27.5s-32.5 42.166 -32.5 71.499c0 32 11.667 59.833 35 83.5
s59 44.834 107 63.501c-20.667 12 -35.334 33 -44.001 63c-34.667 -54 -87.334 -81 -158.001 -81c-51.333 0 -91.833 14.5 -121.5 43.5s-44.5 67.5 -44.5 115.5c0 56 19.833 98.833 59.5 128.5s95.834 44.5 168.501 44.5h86v41c0 38 -9.16699 65.5 -27.5 82.5
s-46.833 25.5 -85.5 25.5c-40 0 -87.333 -9.66699 -142 -29l-21 62c63.333 24 122.666 36 177.999 36c61.333 0 107 -14.833 137 -44.5s45 -72.5 45 -128.5v-244c0 -23.333 3.5 -40.166 10.5 -50.499s18.167 -18.166 33.5 -23.499l-20 -59
c-46.667 -20.667 -78.667 -39.667 -96 -57zM362.002 136.998l0.000976562 126h-75c-100 0 -150 -37.333 -150 -112c0 -32 8.16699 -56.5 24.5 -73.5s40.166 -25.5 71.499 -25.5c54.667 0 97.667 28.333 129 85z" />
    <glyph glyph-name="Cacute" unicode="&#x106;" horiz-adv-x="558" 
d="M443.5 684c27.667 -10.667 56.168 -27.666 85.501 -50.999l-47 -56c-22 17.333 -43.833 30.166 -65.5 38.499s-44.834 12.5 -69.501 12.5c-59.333 0 -107 -22.5 -143 -67.5s-54 -117.167 -54 -216.5c0 -95.333 18 -166.166 54 -212.499s83.333 -69.5 142 -69.5
c30 0 56 5 78 15s45 24.333 69 43l44 -56c-21.333 -22 -48.5 -40.167 -81.5 -54.5s-70.5 -21.5 -112.5 -21.5c-55.333 0 -104.5 13.833 -147.5 41.5s-76.667 68.167 -101 121.5s-36.5 117.666 -36.5 192.999s12.5 139.833 37.5 193.5s59 94.167 102 121.5
s91.167 41 144.5 41c40 0 73.833 -5.33301 101.5 -16zM254.001 756.001l-22 45l197 105l37 -72z" />
    <glyph glyph-name="cacute" unicode="&#x107;" horiz-adv-x="476" 
d="M372 525c25.333 -8.66699 49.6689 -23 73.002 -43l-42 -55c-17.333 14 -35 24.333 -53 31s-38 10 -60 10c-44 0 -78.5 -17.5 -103.5 -52.5s-37.5 -86.833 -37.5 -155.5c0 -68 12.333 -118.333 37 -151s59.334 -49 104.001 -49c22 0 41.667 3.33301 59 10s36 17.667 56 33
l40 -57c-46 -38.667 -98.667 -58 -158 -58c-70.667 0 -126.334 24 -167.001 72s-61 114.333 -61 199c0 56 9.16699 105 27.5 147s44.666 74.5 78.999 97.5s74.833 34.5 121.5 34.5c31.333 0 59.666 -4.33301 84.999 -13zM187.003 640l-26 45l196 112l38 -72z" />
    <glyph glyph-name="Ccircumflex" unicode="&#x108;" horiz-adv-x="558" 
d="M443.5 684c27.667 -10.667 56.168 -27.666 85.501 -50.999l-47 -56c-22 17.333 -43.833 30.166 -65.5 38.499s-44.834 12.5 -69.501 12.5c-59.333 0 -107 -22.5 -143 -67.5s-54 -117.167 -54 -216.5c0 -95.333 18 -166.166 54 -212.499s83.333 -69.5 142 -69.5
c30 0 56 5 78 15s45 24.333 69 43l44 -56c-21.333 -22 -48.5 -40.167 -81.5 -54.5s-70.5 -21.5 -112.5 -21.5c-55.333 0 -104.5 13.833 -147.5 41.5s-76.667 68.167 -101 121.5s-36.5 117.666 -36.5 192.999s12.5 139.833 37.5 193.5s59 94.167 102 121.5
s91.167 41 144.5 41c40 0 73.833 -5.33301 101.5 -16zM221.001 760.001l-37 41l135 108h55l133 -108l-36 -41l-125 81z" />
    <glyph glyph-name="ccircumflex" unicode="&#x109;" horiz-adv-x="476" 
d="M372 525c25.333 -8.66699 49.6689 -23 73.002 -43l-42 -55c-17.333 14 -35 24.333 -53 31s-38 10 -60 10c-44 0 -78.5 -17.5 -103.5 -52.5s-37.5 -86.833 -37.5 -155.5c0 -68 12.333 -118.333 37 -151s59.334 -49 104.001 -49c22 0 41.667 3.33301 59 10s36 17.667 56 33
l40 -57c-46 -38.667 -98.667 -58 -158 -58c-70.667 0 -126.334 24 -167.001 72s-61 114.333 -61 199c0 56 9.16699 105 27.5 147s44.666 74.5 78.999 97.5s74.833 34.5 121.5 34.5c31.333 0 59.666 -4.33301 84.999 -13zM261.003 789h55l134 -111l-36 -42l-125 84l-126 -84
l-36 42z" />
    <glyph glyph-name="Cdotaccent" unicode="&#x10a;" horiz-adv-x="558" 
d="M443.5 684c27.667 -10.667 56.168 -27.666 85.501 -50.999l-47 -56c-22 17.333 -43.833 30.166 -65.5 38.499s-44.834 12.5 -69.501 12.5c-59.333 0 -107 -22.5 -143 -67.5s-54 -117.167 -54 -216.5c0 -95.333 18 -166.166 54 -212.499s83.333 -69.5 142 -69.5
c30 0 56 5 78 15s45 24.333 69 43l44 -56c-21.333 -22 -48.5 -40.167 -81.5 -54.5s-70.5 -21.5 -112.5 -21.5c-55.333 0 -104.5 13.833 -147.5 41.5s-76.667 68.167 -101 121.5s-36.5 117.666 -36.5 192.999s12.5 139.833 37.5 193.5s59 94.167 102 121.5
s91.167 41 144.5 41c40 0 73.833 -5.33301 101.5 -16zM388.501 883.501c11 -11 16.5 -24.832 16.5 -41.499s-5.5 -30.334 -16.5 -41.001s-25.5 -16 -43.5 -16c-17.333 0 -31.5 5.5 -42.5 16.5s-16.5 24.5 -16.5 40.5c0 16.667 5.5 30.5 16.5 41.5s25.167 16.5 42.5 16.5
c18 0 32.5 -5.5 43.5 -16.5z" />
    <glyph glyph-name="cdotaccent" unicode="&#x10b;" horiz-adv-x="476" 
d="M372 525c25.333 -8.66699 49.6689 -23 73.002 -43l-42 -55c-17.333 14 -35 24.333 -53 31s-38 10 -60 10c-44 0 -78.5 -17.5 -103.5 -52.5s-37.5 -86.833 -37.5 -155.5c0 -68 12.333 -118.333 37 -151s59.334 -49 104.001 -49c22 0 41.667 3.33301 59 10s36 17.667 56 33
l40 -57c-46 -38.667 -98.667 -58 -158 -58c-70.667 0 -126.334 24 -167.001 72s-61 114.333 -61 199c0 56 9.16699 105 27.5 147s44.666 74.5 78.999 97.5s74.833 34.5 121.5 34.5c31.333 0 59.666 -4.33301 84.999 -13zM330.503 757.5c11 -11 16.5 -24.833 16.5 -41.5
s-5.5 -30.5 -16.5 -41.5s-25.5 -16.5 -43.5 -16.5c-17.333 0 -31.5 5.5 -42.5 16.5s-16.5 24.833 -16.5 41.5s5.5 30.5 16.5 41.5s25.167 16.5 42.5 16.5c18 0 32.5 -5.5 43.5 -16.5z" />
    <glyph glyph-name="Ccaron" unicode="&#x10c;" horiz-adv-x="558" 
d="M443.5 684c27.667 -10.667 56.168 -27.666 85.501 -50.999l-47 -56c-22 17.333 -43.833 30.166 -65.5 38.499s-44.834 12.5 -69.501 12.5c-59.333 0 -107 -22.5 -143 -67.5s-54 -117.167 -54 -216.5c0 -95.333 18 -166.166 54 -212.499s83.333 -69.5 142 -69.5
c30 0 56 5 78 15s45 24.333 69 43l44 -56c-21.333 -22 -48.5 -40.167 -81.5 -54.5s-70.5 -21.5 -112.5 -21.5c-55.333 0 -104.5 13.833 -147.5 41.5s-76.667 68.167 -101 121.5s-36.5 117.666 -36.5 192.999s12.5 139.833 37.5 193.5s59 94.167 102 121.5
s91.167 41 144.5 41c40 0 73.833 -5.33301 101.5 -16zM375.001 755.001h-55l-135 107l37 42l125 -81l125 81l36 -42z" />
    <glyph glyph-name="ccaron" unicode="&#x10d;" horiz-adv-x="476" 
d="M372 525c25.333 -8.66699 49.6689 -23 73.002 -43l-42 -55c-17.333 14 -35 24.333 -53 31s-38 10 -60 10c-44 0 -78.5 -17.5 -103.5 -52.5s-37.5 -86.833 -37.5 -155.5c0 -68 12.333 -118.333 37 -151s59.334 -49 104.001 -49c22 0 41.667 3.33301 59 10s36 17.667 56 33
l40 -57c-46 -38.667 -98.667 -58 -158 -58c-70.667 0 -126.334 24 -167.001 72s-61 114.333 -61 199c0 56 9.16699 105 27.5 147s44.666 74.5 78.999 97.5s74.833 34.5 121.5 34.5c31.333 0 59.666 -4.33301 84.999 -13zM317.003 628h-55l-135 112l37 41l125 -84l125 84
l36 -41z" />
    <glyph glyph-name="Dcaron" unicode="&#x10e;" horiz-adv-x="641" 
d="M491 615.5c62 -48.333 92.999 -137.5 92.999 -267.5c0 -128 -31.167 -218 -93.5 -270s-138.166 -78 -227.499 -78h-160v688h142c102 0 184 -24.167 246 -72.5zM188.999 69l81 0.000976562c65.333 0 118.5 20.167 159.5 60.5s61.5 113.166 61.5 218.499
c0 74 -10.5 130.833 -31.5 170.5s-48 66.167 -81 79.5s-71.5 20 -115.5 20h-74v-549zM330.999 755.001h-55l-135 107l37 42l125 -81l125 81l36 -42z" />
    <glyph glyph-name="dcaron" unicode="&#x10f;" horiz-adv-x="595" 
d="M497 0l-72.999 -0.000976562l-9 74c-17.333 -26.667 -39 -47.667 -65 -63s-55.333 -23 -88 -23c-62.667 0 -111.334 24.5 -146.001 73.5s-52 115.5 -52 199.5c0 54 8.33301 101.833 25 143.5s40.5 74.334 71.5 98.001s67.5 35.5 109.5 35.5c55.333 0 103 -22 143 -66v276
l84 -10v-738zM354.001 75.499c20.667 13.667 40.333 34.5029 59 62.5029v261c-17.333 23.333 -36 41.166 -56 53.499s-43 18.5 -69 18.5c-42 0 -74.833 -17.667 -98.5 -53s-35.5 -87 -35.5 -155c0 -68.667 10.833 -120.334 32.5 -155.001s52.5 -52.334 92.5 -53.001
c29.333 0 54.333 6.83301 75 20.5zM600 559.002l-49 7l17 181l76 -9z" />
    <glyph glyph-name="Dcroat" unicode="&#x110;" horiz-adv-x="651" 
d="M501 615.5c62 -48.333 93 -137.5 93 -267.5c0 -128 -31 -218 -93 -270s-137.667 -78 -227 -78h-161v321h-92v64h92v303h142c102 0 184 -24.167 246 -72.5zM440 129.5c41.333 40.333 62.001 113.166 62.001 218.499c0 74.667 -10.667 131.834 -32 171.501
s-48.5 66 -81.5 79s-71.5 19.5 -115.5 19.5h-74v-233h162v-64h-161v-252h80c65.333 0 118.666 20.167 159.999 60.5z" />
    <glyph glyph-name="dcroat" unicode="&#x111;" horiz-adv-x="604" 
d="M576 608l-78.999 -0.000976562v-608h-73l-9 74c-17.333 -26.667 -39 -47.667 -65 -63s-55.333 -23 -88 -23c-62.667 0 -111.334 24.5 -146.001 73.5s-52 115.5 -52 199.5c0 54 8.33301 101.833 25 143.5s40.5 74.334 71.5 98.001s67.5 35.5 109.5 35.5
c55.333 0 103 -22 143 -66v136h-154l-10 65h164v75l84 -10v-65h79v-65zM354.001 75.499c20.667 13.667 40.333 34.5029 59 62.5029v261c-17.333 23.333 -36 41.166 -56 53.499s-43 18.5 -69 18.5c-42 0 -74.833 -17.667 -98.5 -53s-35.5 -87 -35.5 -155
c0 -68.667 10.833 -120.334 32.5 -155.001s52.5 -52.334 92.5 -53.001c29.333 0 54.333 6.83301 75 20.5z" />
    <glyph glyph-name="Emacron" unicode="&#x112;" horiz-adv-x="530" 
d="M189 618v-232h235v-70h-235v-246h288v-70h-374v688h367l-10 -70h-271zM156 854h266v-64h-266v64z" />
    <glyph glyph-name="emacron" unicode="&#x113;" horiz-adv-x="547" 
d="M487 234l-338.999 0.00195312c4 -60.667 19 -105.334 45 -134.001s60 -43 102 -43c26 0 49.667 3.66699 71 11s43.666 19.333 66.999 36l37 -50c-54.667 -44 -115 -66 -181 -66c-72 0 -128.333 24 -169 72s-61 114 -61 198c0 54.667 8.66699 103.167 26 145.5
s42.333 75.333 75 99s71 35.5 115 35.5c69.333 0 122.333 -22.833 159 -68.5s55 -108.834 55 -189.501c0 -16 -0.666992 -31.333 -2 -46zM406.001 304.002c0 54 -10.833 95.333 -32.5 124s-53.834 43 -96.501 43c-38 0 -68.167 -14.333 -90.5 -43
s-35.166 -72.667 -38.499 -132h258v8zM145.001 733.002h265v-64h-265v64z" />
    <glyph glyph-name="Ebreve" unicode="&#x114;" horiz-adv-x="530" 
d="M189 618v-232h235v-70h-235v-246h288v-70h-374v688h367l-10 -70h-271zM189.5 792.5c-27 21.667 -42.501 49.834 -46.501 84.501l56 12c15.333 -43.333 45 -65 89 -65c22.667 0 41.834 5.83301 57.501 17.5s27.167 27.5 34.5 47.5l56 -12
c-4 -34.667 -19.667 -62.834 -47 -84.501s-61 -32.5 -101 -32.5c-38.667 0 -71.5 10.833 -98.5 32.5z" />
    <glyph glyph-name="ebreve" unicode="&#x115;" horiz-adv-x="547" 
d="M487 234l-338.999 0.00195312c4 -60.667 19 -105.334 45 -134.001s60 -43 102 -43c26 0 49.667 3.66699 71 11s43.666 19.333 66.999 36l37 -50c-54.667 -44 -115 -66 -181 -66c-72 0 -128.333 24 -169 72s-61 114 -61 198c0 54.667 8.66699 103.167 26 145.5
s42.333 75.333 75 99s71 35.5 115 35.5c69.333 0 122.333 -22.833 159 -68.5s55 -108.834 55 -189.501c0 -16 -0.666992 -31.333 -2 -46zM406.001 304.002c0 54 -10.833 95.333 -32.5 124s-53.834 43 -96.501 43c-38 0 -68.167 -14.333 -90.5 -43
s-35.166 -72.667 -38.499 -132h258v8zM177.001 679.502c-26.667 23 -42 54.167 -46 93.5l56 12c14 -50 43.667 -75 89 -75c47.333 0 78 25 92 75l56 -12c-4 -39.333 -19.667 -70.5 -47 -93.5s-61 -34.5 -101 -34.5c-39.333 0 -72.333 11.5 -99 34.5z" />
    <glyph glyph-name="Edotaccent" unicode="&#x116;" horiz-adv-x="530" 
d="M189 618v-232h235v-70h-235v-246h288v-70h-374v688h367l-10 -70h-271zM332.5 883.5c11 -11 16.5 -24.832 16.5 -41.499s-5.5 -30.334 -16.5 -41.001s-25.5 -16 -43.5 -16c-17.333 0 -31.5 5.5 -42.5 16.5s-16.5 24.5 -16.5 40.5c0 16.667 5.5 30.5 16.5 41.5
s25.167 16.5 42.5 16.5c18 0 32.5 -5.5 43.5 -16.5z" />
    <glyph glyph-name="edotaccent" unicode="&#x117;" horiz-adv-x="547" 
d="M487 234l-338.999 0.00195312c4 -60.667 19 -105.334 45 -134.001s60 -43 102 -43c26 0 49.667 3.66699 71 11s43.666 19.333 66.999 36l37 -50c-54.667 -44 -115 -66 -181 -66c-72 0 -128.333 24 -169 72s-61 114 -61 198c0 54.667 8.66699 103.167 26 145.5
s42.333 75.333 75 99s71 35.5 115 35.5c69.333 0 122.333 -22.833 159 -68.5s55 -108.834 55 -189.501c0 -16 -0.666992 -31.333 -2 -46zM406.001 304.002c0 54 -10.833 95.333 -32.5 124s-53.834 43 -96.501 43c-38 0 -68.167 -14.333 -90.5 -43
s-35.166 -72.667 -38.499 -132h258v8zM320.501 757.502c11 -11 16.5 -24.833 16.5 -41.5s-5.5 -30.5 -16.5 -41.5s-25.5 -16.5 -43.5 -16.5c-17.333 0 -31.5 5.5 -42.5 16.5s-16.5 24.833 -16.5 41.5s5.5 30.5 16.5 41.5s25.167 16.5 42.5 16.5c18 0 32.5 -5.5 43.5 -16.5z
" />
    <glyph glyph-name="Eogonek" unicode="&#x118;" horiz-adv-x="530" 
d="M477 0l-38.001 0.00292969c-46.667 -20.667 -78.667 -39.834 -96 -57.501s-26 -36.834 -26 -57.501c0 -32.667 19.333 -49 58 -49c18 0 37.667 2.33301 59 7l-8 -65c-20 -4 -40.667 -6 -62 -6c-37.333 0 -66.833 9.16699 -88.5 27.5s-32.5 41.833 -32.5 70.5
c0 26.667 8.33301 50.667 25 72s42.334 40.666 77.001 57.999h-242v688h367l-10 -70h-271v-232h235v-70h-235v-246h288v-70z" />
    <glyph glyph-name="eogonek" unicode="&#x119;" horiz-adv-x="547" 
d="M487 234l-338.999 -0.000976562c4 -60.667 19 -105.334 45 -134.001s60 -43 102 -43c26 0 49.667 3.66699 71 11s43.666 19.333 66.999 36l37 -50c-29.333 -24 -60.333 -41.333 -93 -52c-43.333 -19.333 -73.166 -37.666 -89.499 -54.999s-24.5 -36 -24.5 -56
c0 -32.667 19.333 -49 58 -49c17.333 0 37.333 2.33301 60 7l-8 -65c-20 -4 -40.667 -6 -62 -6c-37.333 0 -67 9.16699 -89 27.5s-33 41.833 -33 70.5c0 46.667 27.667 84.334 83 113.001c-66.667 3.33301 -118.834 28.833 -156.501 76.5s-56.5 111.834 -56.5 192.501
c0 54.667 8.66699 103.167 26 145.5s42.333 75.333 75 99s71 35.5 115 35.5c69.333 0 122.333 -22.833 159 -68.5s55 -108.834 55 -189.501c0 -16 -0.666992 -31.333 -2 -46zM406.001 303.999c0 54 -10.833 95.333 -32.5 124s-53.834 43 -96.501 43
c-38 0 -68.167 -14.333 -90.5 -43s-35.166 -72.667 -38.499 -132h258v8z" />
    <glyph glyph-name="Ecaron" unicode="&#x11a;" horiz-adv-x="530" 
d="M189 618v-232h235v-70h-235v-246h288v-70h-374v688h367l-10 -70h-271zM318 755h-55l-135 107l37 42l125 -81l125 81l36 -42z" />
    <glyph glyph-name="ecaron" unicode="&#x11b;" horiz-adv-x="547" 
d="M487 234l-338.999 0.00195312c4 -60.667 19 -105.334 45 -134.001s60 -43 102 -43c26 0 49.667 3.66699 71 11s43.666 19.333 66.999 36l37 -50c-54.667 -44 -115 -66 -181 -66c-72 0 -128.333 24 -169 72s-61 114 -61 198c0 54.667 8.66699 103.167 26 145.5
s42.333 75.333 75 99s71 35.5 115 35.5c69.333 0 122.333 -22.833 159 -68.5s55 -108.834 55 -189.501c0 -16 -0.666992 -31.333 -2 -46zM406.001 304.002c0 54 -10.833 95.333 -32.5 124s-53.834 43 -96.501 43c-38 0 -68.167 -14.333 -90.5 -43
s-35.166 -72.667 -38.499 -132h258v8zM307.001 628.002h-55l-135 112l37 41l125 -84l125 84l36 -41z" />
    <glyph glyph-name="Gcircumflex" unicode="&#x11c;" horiz-adv-x="628" 
d="M463 682c31.333 -12 62.333 -30.6709 93 -56.0039l-51 -53c-24.667 19.333 -48.5 33.333 -71.5 42s-49.833 13 -80.5 13c-36 0 -69.333 -9.66699 -100 -29s-55.5 -50.166 -74.5 -92.499s-28.5 -96.166 -28.5 -161.499c0 -98 16.5 -170 49.5 -216s81.5 -69 145.5 -69
c51.333 0 96 11 134 33v215h-125l-10 71h221v-331c-67.333 -40 -142.666 -60 -225.999 -60c-87.333 0 -156 30.333 -206 91s-75 149.334 -75 266.001c0 74.667 13.5 138.834 40.5 192.501s62.833 94.167 107.5 121.5s93 41 145 41c43.333 0 80.666 -6 111.999 -18z
M229 759.996l-37 41l135 108h55l133 -108l-36 -41l-125 81z" />
    <glyph glyph-name="gcircumflex" unicode="&#x11d;" horiz-adv-x="516" 
d="M450.5 493c-23 -2 -52.501 -3.33105 -88.501 -3.99805c61.333 -27.333 92 -72.333 92 -135c0 -52.667 -17.833 -95.334 -53.5 -128.001s-83.834 -49 -144.501 -49c-24.667 0 -47 3.33301 -67 10c-9.33301 -6 -16.5 -13.5 -21.5 -22.5s-7.5 -18.833 -7.5 -29.5
c0 -30 24 -45 72 -45h84c35.333 0 66.333 -6.16699 93 -18.5s47.334 -29.333 62.001 -51s22 -46.167 22 -73.5c0 -51.333 -20.333 -90.5 -61 -117.5s-101 -40.5 -181 -40.5c-82 0 -139.833 12.5 -173.5 37.5s-50.5 64.833 -50.5 119.5h76c0 -22 4.33301 -39.5 13 -52.5
s23.667 -22.667 45 -29s51.333 -9.5 90 -9.5c56 0 96.167 7.16699 120.5 21.5s36.5 35.833 36.5 64.5c0 25.333 -9.5 44.666 -28.5 57.999s-45.833 20 -80.5 20h-83c-43.333 0 -76.5 9.33301 -99.5 28s-34.5 42 -34.5 70c0 17.333 4.83301 34 14.5 50s23.834 30 42.501 42
c-30 16 -52.167 35.833 -66.5 59.5s-21.5 52.834 -21.5 87.501c0 35.333 8.5 66.833 25.5 94.5s40.833 49.167 71.5 64.5s65 23 103 23c42 -0.666992 76.833 0.666016 104.5 3.99902s50.667 8 69 14s39.833 14.667 64.5 26l25 -77c-19.333 -6 -40.5 -10 -63.5 -12z
M166.499 443.502c-19.667 -22.333 -29.498 -51.5 -29.498 -87.5c0 -37.333 10.167 -67.166 30.5 -89.499s48.833 -33.5 85.5 -33.5c37.333 0 65.833 10.667 85.5 32s29.5 51.666 29.5 90.999s-9.83301 69.333 -29.5 90s-48.834 31 -87.501 31
c-36.667 0 -64.834 -11.167 -84.501 -33.5zM228.001 789.002h55l134 -111l-36 -42l-125 84l-126 -84l-36 42z" />
    <glyph glyph-name="Gbreve" unicode="&#x11e;" horiz-adv-x="628" 
d="M463 682c31.333 -12 62.333 -30.6709 93 -56.0039l-51 -53c-24.667 19.333 -48.5 33.333 -71.5 42s-49.833 13 -80.5 13c-36 0 -69.333 -9.66699 -100 -29s-55.5 -50.166 -74.5 -92.499s-28.5 -96.166 -28.5 -161.499c0 -98 16.5 -170 49.5 -216s81.5 -69 145.5 -69
c51.333 0 96 11 134 33v215h-125l-10 71h221v-331c-67.333 -40 -142.666 -60 -225.999 -60c-87.333 0 -156 30.333 -206 91s-75 149.334 -75 266.001c0 74.667 13.5 138.834 40.5 192.501s62.833 94.167 107.5 121.5s93 41 145 41c43.333 0 80.666 -6 111.999 -18z
M253.5 792.496c-27 21.667 -42.501 49.834 -46.501 84.501l56 12c15.333 -43.333 45 -65 89 -65c22.667 0 41.834 5.83301 57.501 17.5s27.167 27.5 34.5 47.5l56 -12c-4 -34.667 -19.667 -62.834 -47 -84.501s-61 -32.5 -101 -32.5c-38.667 0 -71.5 10.833 -98.5 32.5z" />
    <glyph glyph-name="gbreve" unicode="&#x11f;" horiz-adv-x="516" 
d="M450.5 493c-23 -2 -52.501 -3.33105 -88.501 -3.99805c61.333 -27.333 92 -72.333 92 -135c0 -52.667 -17.833 -95.334 -53.5 -128.001s-83.834 -49 -144.501 -49c-24.667 0 -47 3.33301 -67 10c-9.33301 -6 -16.5 -13.5 -21.5 -22.5s-7.5 -18.833 -7.5 -29.5
c0 -30 24 -45 72 -45h84c35.333 0 66.333 -6.16699 93 -18.5s47.334 -29.333 62.001 -51s22 -46.167 22 -73.5c0 -51.333 -20.333 -90.5 -61 -117.5s-101 -40.5 -181 -40.5c-82 0 -139.833 12.5 -173.5 37.5s-50.5 64.833 -50.5 119.5h76c0 -22 4.33301 -39.5 13 -52.5
s23.667 -22.667 45 -29s51.333 -9.5 90 -9.5c56 0 96.167 7.16699 120.5 21.5s36.5 35.833 36.5 64.5c0 25.333 -9.5 44.666 -28.5 57.999s-45.833 20 -80.5 20h-83c-43.333 0 -76.5 9.33301 -99.5 28s-34.5 42 -34.5 70c0 17.333 4.83301 34 14.5 50s23.834 30 42.501 42
c-30 16 -52.167 35.833 -66.5 59.5s-21.5 52.834 -21.5 87.501c0 35.333 8.5 66.833 25.5 94.5s40.833 49.167 71.5 64.5s65 23 103 23c42 -0.666992 76.833 0.666016 104.5 3.99902s50.667 8 69 14s39.833 14.667 64.5 26l25 -77c-19.333 -6 -40.5 -10 -63.5 -12z
M166.499 443.502c-19.667 -22.333 -29.498 -51.5 -29.498 -87.5c0 -37.333 10.167 -67.166 30.5 -89.499s48.833 -33.5 85.5 -33.5c37.333 0 65.833 10.667 85.5 32s29.5 51.666 29.5 90.999s-9.83301 69.333 -29.5 90s-48.834 31 -87.501 31
c-36.667 0 -64.834 -11.167 -84.501 -33.5zM155.001 679.502c-26.667 23 -42 54.167 -46 93.5l56 12c14 -50 43.667 -75 89 -75c47.333 0 78 25 92 75l56 -12c-4 -39.333 -19.667 -70.5 -47 -93.5s-61 -34.5 -101 -34.5c-39.333 0 -72.333 11.5 -99 34.5z" />
    <glyph glyph-name="Gdotaccent" unicode="&#x120;" horiz-adv-x="628" 
d="M463 682c31.333 -12 62.333 -30.6709 93 -56.0039l-51 -53c-24.667 19.333 -48.5 33.333 -71.5 42s-49.833 13 -80.5 13c-36 0 -69.333 -9.66699 -100 -29s-55.5 -50.166 -74.5 -92.499s-28.5 -96.166 -28.5 -161.499c0 -98 16.5 -170 49.5 -216s81.5 -69 145.5 -69
c51.333 0 96 11 134 33v215h-125l-10 71h221v-331c-67.333 -40 -142.666 -60 -225.999 -60c-87.333 0 -156 30.333 -206 91s-75 149.334 -75 266.001c0 74.667 13.5 138.834 40.5 192.501s62.833 94.167 107.5 121.5s93 41 145 41c43.333 0 80.666 -6 111.999 -18z
M396.5 883.496c11 -11 16.5 -24.832 16.5 -41.499s-5.5 -30.334 -16.5 -41.001s-25.5 -16 -43.5 -16c-17.333 0 -31.5 5.5 -42.5 16.5s-16.5 24.5 -16.5 40.5c0 16.667 5.5 30.5 16.5 41.5s25.167 16.5 42.5 16.5c18 0 32.5 -5.5 43.5 -16.5z" />
    <glyph glyph-name="gdotaccent" unicode="&#x121;" horiz-adv-x="516" 
d="M450.5 493c-23 -2 -52.501 -3.33105 -88.501 -3.99805c61.333 -27.333 92 -72.333 92 -135c0 -52.667 -17.833 -95.334 -53.5 -128.001s-83.834 -49 -144.501 -49c-24.667 0 -47 3.33301 -67 10c-9.33301 -6 -16.5 -13.5 -21.5 -22.5s-7.5 -18.833 -7.5 -29.5
c0 -30 24 -45 72 -45h84c35.333 0 66.333 -6.16699 93 -18.5s47.334 -29.333 62.001 -51s22 -46.167 22 -73.5c0 -51.333 -20.333 -90.5 -61 -117.5s-101 -40.5 -181 -40.5c-82 0 -139.833 12.5 -173.5 37.5s-50.5 64.833 -50.5 119.5h76c0 -22 4.33301 -39.5 13 -52.5
s23.667 -22.667 45 -29s51.333 -9.5 90 -9.5c56 0 96.167 7.16699 120.5 21.5s36.5 35.833 36.5 64.5c0 25.333 -9.5 44.666 -28.5 57.999s-45.833 20 -80.5 20h-83c-43.333 0 -76.5 9.33301 -99.5 28s-34.5 42 -34.5 70c0 17.333 4.83301 34 14.5 50s23.834 30 42.501 42
c-30 16 -52.167 35.833 -66.5 59.5s-21.5 52.834 -21.5 87.501c0 35.333 8.5 66.833 25.5 94.5s40.833 49.167 71.5 64.5s65 23 103 23c42 -0.666992 76.833 0.666016 104.5 3.99902s50.667 8 69 14s39.833 14.667 64.5 26l25 -77c-19.333 -6 -40.5 -10 -63.5 -12z
M166.499 443.502c-19.667 -22.333 -29.498 -51.5 -29.498 -87.5c0 -37.333 10.167 -67.166 30.5 -89.499s48.833 -33.5 85.5 -33.5c37.333 0 65.833 10.667 85.5 32s29.5 51.666 29.5 90.999s-9.83301 69.333 -29.5 90s-48.834 31 -87.501 31
c-36.667 0 -64.834 -11.167 -84.501 -33.5zM298.501 757.502c11 -11 16.5 -24.833 16.5 -41.5s-5.5 -30.5 -16.5 -41.5s-25.5 -16.5 -43.5 -16.5c-17.333 0 -31.5 5.5 -42.5 16.5s-16.5 24.833 -16.5 41.5s5.5 30.5 16.5 41.5s25.167 16.5 42.5 16.5
c18 0 32.5 -5.5 43.5 -16.5z" />
    <glyph glyph-name="Gcommaaccent" unicode="&#x122;" horiz-adv-x="628" 
d="M463 682c31.333 -12 62.333 -30.6709 93 -56.0039l-51 -53c-24.667 19.333 -48.5 33.333 -71.5 42s-49.833 13 -80.5 13c-36 0 -69.333 -9.66699 -100 -29s-55.5 -50.166 -74.5 -92.499s-28.5 -96.166 -28.5 -161.499c0 -98 16.5 -170 49.5 -216s81.5 -69 145.5 -69
c51.333 0 96 11 134 33v215h-125l-10 71h221v-331c-67.333 -40 -142.666 -60 -225.999 -60c-87.333 0 -156 30.333 -206 91s-75 149.334 -75 266.001c0 74.667 13.5 138.834 40.5 192.501s62.833 94.167 107.5 121.5s93 41 145 41c43.333 0 80.666 -6 111.999 -18z
M382.5 -94.0039c10.333 -10 15.501 -22.667 15.501 -38c0 -8 -1.66699 -17.167 -5 -27.5s-10 -25.833 -20 -46.5l-41 -86h-49l30 116c-16 12 -24 26.667 -24 44c0 14.667 5.33301 27.167 16 37.5s23.667 15.5 39 15.5s28.166 -5 38.499 -15z" />
    <glyph glyph-name="gcommaaccent" unicode="&#x123;" horiz-adv-x="516" 
d="M450.5 493c-23 -2 -52.501 -3.33105 -88.501 -3.99805c61.333 -27.333 92 -72.333 92 -135c0 -52.667 -17.833 -95.334 -53.5 -128.001s-83.834 -49 -144.501 -49c-24.667 0 -47 3.33301 -67 10c-9.33301 -6 -16.5 -13.5 -21.5 -22.5s-7.5 -18.833 -7.5 -29.5
c0 -30 24 -45 72 -45h84c35.333 0 66.333 -6.16699 93 -18.5s47.334 -29.333 62.001 -51s22 -46.167 22 -73.5c0 -51.333 -20.333 -90.5 -61 -117.5s-101 -40.5 -181 -40.5c-82 0 -139.833 12.5 -173.5 37.5s-50.5 64.833 -50.5 119.5h76c0 -22 4.33301 -39.5 13 -52.5
s23.667 -22.667 45 -29s51.333 -9.5 90 -9.5c56 0 96.167 7.16699 120.5 21.5s36.5 35.833 36.5 64.5c0 25.333 -9.5 44.666 -28.5 57.999s-45.833 20 -80.5 20h-83c-43.333 0 -76.5 9.33301 -99.5 28s-34.5 42 -34.5 70c0 17.333 4.83301 34 14.5 50s23.834 30 42.501 42
c-30 16 -52.167 35.833 -66.5 59.5s-21.5 52.834 -21.5 87.501c0 35.333 8.5 66.833 25.5 94.5s40.833 49.167 71.5 64.5s65 23 103 23c42 -0.666992 76.833 0.666016 104.5 3.99902s50.667 8 69 14s39.833 14.667 64.5 26l25 -77c-19.333 -6 -40.5 -10 -63.5 -12z
M166.499 443.502c-19.667 -22.333 -29.498 -51.5 -29.498 -87.5c0 -37.333 10.167 -67.166 30.5 -89.499s48.833 -33.5 85.5 -33.5c37.333 0 65.833 10.667 85.5 32s29.5 51.666 29.5 90.999s-9.83301 69.333 -29.5 90s-48.834 31 -87.501 31
c-36.667 0 -64.834 -11.167 -84.501 -33.5zM214.501 620.002c-10.333 10 -15.501 22.667 -15.501 38c0 8 1.66699 17.167 5 27.5s10 25.833 20 46.5l41 86h49l-30 -116c16 -12 24 -26.667 24 -44c0 -14.667 -5.33301 -27.167 -16 -37.5s-23.667 -15.5 -39 -15.5
s-28.166 5 -38.499 15z" />
    <glyph glyph-name="Hcircumflex" unicode="&#x124;" horiz-adv-x="678" 
d="M189 326v-326h-86v688h86v-290h299v290h87v-688h-87v326h-299zM214 760l-37 41l135 108h55l133 -108l-36 -41l-125 81z" />
    <glyph glyph-name="hcircumflex" unicode="&#x125;" horiz-adv-x="585" 
d="M453 495c26.667 -28.667 39.999 -67.999 39.999 -117.999v-377h-84v365c0 38.667 -7.5 66.167 -22.5 82.5s-36.833 24.5 -65.5 24.5s-54.167 -8.33301 -76.5 -25s-43.166 -40.334 -62.499 -71.001v-376h-84v737l84 10v-297c20 27.333 43.5 48.833 70.5 64.5
s56.833 23.5 89.5 23.5c47.333 0 84.333 -14.333 111 -43zM167.999 810.001l-37 41l135 108h55l133 -108l-36 -41l-125 81z" />
    <glyph glyph-name="Hbar" unicode="&#x126;" horiz-adv-x="683" 
d="M579 509v-509h-86v326h-299v-326h-87v509h-69v63h69v116h87v-116h299v116h86v-116h67v-63h-67zM194 509v-111h299v111h-299z" />
    <glyph glyph-name="hbar" unicode="&#x127;" horiz-adv-x="591" 
d="M459 495c26.667 -28.667 40.001 -68 40.001 -118v-377h-84v365c0 38 -7.66699 65.167 -23 81.5s-37 24.5 -65 24.5c-28.667 0 -54.167 -8.16699 -76.5 -24.5s-43.5 -39.833 -63.5 -70.5v-376h-84v608h-75v65h75v64l84 10v-74h160l-10 -65h-150v-158
c43.333 58.667 96.666 88 159.999 88c48 0 85.333 -14.333 112 -43z" />
    <glyph glyph-name="Itilde" unicode="&#x128;" horiz-adv-x="293" 
d="M103 0v688h87v-688h-87zM169 792.5c-11.333 5 -23.3311 11.833 -35.998 20.5c-11.333 6.66699 -19.833 11.5 -25.5 14.5s-12.167 4.5 -19.5 4.5c-11.333 0 -20.833 -3.5 -28.5 -10.5s-16.167 -18.5 -25.5 -34.5l-51 26c27.333 56 62.666 84 105.999 84
c12.667 0 24 -2.33301 34 -7s21.333 -11.334 34 -20.001c10 -7.33301 18.667 -12.666 26 -15.999s14.666 -5 21.999 -5c10 0 19 3.5 27 10.5s16.667 18.167 26 33.5l51 -26c-12 -26.667 -26.833 -47 -44.5 -61s-36.5 -21 -56.5 -21c-14.667 0 -27.667 2.5 -39 7.5z" />
    <glyph glyph-name="itilde" unicode="&#x129;" horiz-adv-x="279" 
d="M98 0v526h84v-526h-84zM163 666.5c-11.333 5 -23.333 11.833 -36 20.5c-9.33301 6.66699 -17.333 11.5 -24 14.5s-13.667 4.5 -21 4.5c-11.333 0 -20.833 -3.5 -28.5 -10.5s-16.167 -18.5 -25.5 -34.5l-51 26c27.333 55.333 62.666 83 105.999 83
c12.667 0.666992 24 -1.33301 34 -6s21.333 -11.334 34 -20.001c10.667 -7.33301 19.334 -12.666 26.001 -15.999s13.667 -5 21 -5c10 0 19 3.5 27 10.5s17 18.167 27 33.5l51 -26c-12 -27.333 -27 -48 -45 -62s-37 -21 -57 -21c-14 0.666992 -26.667 3.5 -38 8.5z" />
    <glyph glyph-name="Imacron" unicode="&#x12a;" horiz-adv-x="293" 
d="M103 0v688h87v-688h-87zM13 854h266v-64h-266v64z" />
    <glyph glyph-name="imacron" unicode="&#x12b;" horiz-adv-x="279" 
d="M98 0v526h84v-526h-84zM7 733h265v-64h-265v64z" />
    <glyph glyph-name="Ibreve" unicode="&#x12c;" horiz-adv-x="293" 
d="M103 0v688h87v-688h-87zM46.5 792.5c-27 21.667 -42.501 49.834 -46.501 84.501l56 12c15.333 -43.333 45 -65 89 -65c22.667 0 41.834 5.83301 57.501 17.5s27.167 27.5 34.5 47.5l56 -12c-4 -34.667 -19.667 -62.834 -47 -84.501s-61 -32.5 -101 -32.5
c-38.667 0 -71.5 10.833 -98.5 32.5z" />
    <glyph glyph-name="ibreve" unicode="&#x12d;" horiz-adv-x="279" 
d="M98 0v526h84v-526h-84zM39 679.5c-26.667 23 -42 54.167 -46 93.5l56 12c14 -50 43.667 -75 89 -75c47.333 0 78 25 92 75l56 -12c-4 -39.333 -19.667 -70.5 -47 -93.5s-61 -34.5 -101 -34.5c-39.333 0 -72.333 11.5 -99 34.5z" />
    <glyph glyph-name="Iogonek" unicode="&#x12e;" horiz-adv-x="293" 
d="M190 0c-46.667 -20 -78.833 -38.999 -96.5 -56.999s-26.5 -37.333 -26.5 -58c0 -32.667 19.333 -49 58 -49c17.333 0 37.333 2.33301 60 7l-8 -65c-23.333 -4.66699 -44 -7 -62 -7c-37.333 0 -67 9.16699 -89 27.5s-33 42.166 -33 71.499c0 54.667 36.667 99 110 133v685
h87v-688z" />
    <glyph glyph-name="iogonek" unicode="&#x12f;" horiz-adv-x="279" 
d="M182.5 757.5c11 -11 16.5 -24.833 16.5 -41.5c0 -16 -5.5 -29.5 -16.5 -40.5s-25.5 -16.5 -43.5 -16.5c-17.333 0 -31.5 5.5 -42.5 16.5s-16.5 24.5 -16.5 40.5c0 16.667 5.5 30.5 16.5 41.5s25.167 16.5 42.5 16.5c18 0 32.5 -5.5 43.5 -16.5zM182 526l-1 -525.999
c-46 -20 -77.833 -39 -95.5 -57s-26.5 -37.333 -26.5 -58c0 -32.667 19.333 -49 58 -49c18 0 37.667 2.33301 59 7l-8 -65c-23.333 -4.66699 -44 -7 -62 -7c-37.333 0 -66.833 9.16699 -88.5 27.5s-32.5 42.166 -32.5 71.499c0 56.667 37.667 101.667 113 135v521h84z" />
    <glyph glyph-name="Idotaccent" unicode="&#x130;" horiz-adv-x="293" 
d="M103 0v688h87v-688h-87zM188.5 883.5c11 -11 16.5 -24.832 16.5 -41.499s-5.5 -30.334 -16.5 -41.001s-25.5 -16 -43.5 -16c-17.333 0 -31.5 5.5 -42.5 16.5s-16.5 24.5 -16.5 40.5c0 16.667 5.5 30.5 16.5 41.5s25.167 16.5 42.5 16.5c18 0 32.5 -5.5 43.5 -16.5z" />
    <glyph glyph-name="dotlessi" unicode="&#x131;" horiz-adv-x="279" 
d="M98 0v526h84v-526h-84z" />
    <glyph glyph-name="IJ" unicode="&#x132;" horiz-adv-x="594" 
d="M103 0v688h87v-688h-87zM477 -16.5c-13.333 -29 -32.333 -52.333 -57 -70s-57 -33.167 -97 -46.5l-23 63c30.667 12.667 53.667 26 69 40s26 31 32 51s9 46 9 78v589h87v-593c0 -45.333 -6.66699 -82.5 -20 -111.5z" />
    <glyph glyph-name="ij" unicode="&#x133;" horiz-adv-x="557" 
d="M182.5 757.5c11 -11 16.5 -24.833 16.5 -41.5c0 -16 -5.5 -29.5 -16.5 -40.5s-25.5 -16.5 -43.5 -16.5c-17.333 0 -31.5 5.5 -42.5 16.5s-16.5 24.5 -16.5 40.5c0 16.667 5.5 30.5 16.5 41.5s25.167 16.5 42.5 16.5c18 0 32.5 -5.5 43.5 -16.5zM182 526v-526h-84v526h84z
M459 29c0 -48 -5.66895 -86.334 -17.002 -115.001s-28.166 -52 -50.499 -70s-53.166 -36 -92.499 -54l-25 61c26 12.667 45.833 24.834 59.5 36.501s24 28 31 49s10.5 50.167 10.5 87.5v502h84v-497z" />
    <glyph glyph-name="Jcircumflex" unicode="&#x134;" horiz-adv-x="302" 
d="M184 -16.5c-13.333 -29 -32.333 -52.333 -57 -70s-57 -33.167 -97 -46.5l-23 63c30.667 12.667 53.667 26 69 40s26 31 32 51s9 46 9 78v589h87v-593c0 -45.333 -6.66699 -82.5 -20 -111.5zM36 760l-37 41l135 108h55l133 -108l-36 -41l-125 81z" />
    <glyph glyph-name="jcircumflex" unicode="&#x135;" horiz-adv-x="278" 
d="M163 -86c-11.333 -28.667 -28.167 -52.001 -50.5 -70.001s-53.5 -36 -93.5 -54l-24 61c26 12.667 45.833 24.834 59.5 36.501s24 28 31 49s10.5 50.167 10.5 87.5v502h84v-497c0 -48 -5.66699 -86.333 -17 -115zM111.999 788.999h55l134 -111l-36 -42l-125 84l-126 -84
l-36 42z" />
    <glyph glyph-name="Kcommaaccent" unicode="&#x136;" horiz-adv-x="579" 
d="M103 0v688h86v-688h-86zM579 0h-107l-278 368l268 320h99l-267 -315zM353.5 -94c10.333 -10 15.501 -22.667 15.501 -38c0 -8 -1.66699 -17.167 -5 -27.5s-10 -25.833 -20 -46.5l-41 -86h-49l30 116c-16 12 -24 26.667 -24 44c0 14.667 5.33301 27.167 16 37.5
s23.667 15.5 39 15.5s28.166 -5 38.499 -15z" />
    <glyph glyph-name="kcommaaccent" unicode="&#x137;" horiz-adv-x="506" 
d="M98 0v738l84 10v-748h-84zM505 0h-101l-216 287l200 239h94l-200 -233zM297.5 -94c10.333 -10 15.501 -22.667 15.501 -38c0 -8 -1.66699 -17.167 -5 -27.5s-10 -25.833 -20 -46.5l-41 -86h-49l30 116c-16 12 -24 26.667 -24 44c0 14.667 5.33301 27.167 16 37.5
s23.667 15.5 39 15.5s28.166 -5 38.499 -15z" />
    <glyph glyph-name="kgreenlandic" unicode="&#x138;" horiz-adv-x="504" 
d="M98 0v526h84v-526h-84zM502 0h-101l-216 277l200 249h95l-200 -243z" />
    <glyph glyph-name="Lacute" unicode="&#x139;" horiz-adv-x="492" 
d="M473 76l-10 -76h-360v688h86v-612h284zM54 756l-22 45l197 105l37 -72z" />
    <glyph glyph-name="lacute" unicode="&#x13a;" horiz-adv-x="291" 
d="M185 69c5.33301 -7.33301 14.333 -11 27 -11s24 2 34 6l22 -59c-24 -11.333 -48.667 -17 -74 -17c-32.667 0 -57.667 9.5 -75 28.5s-26 47.167 -26 84.5v637l84 10v-646c0 -14.667 2.66699 -25.667 8 -33zM42 806l-22 45l197 105l37 -72z" />
    <glyph glyph-name="Lcommaaccent" unicode="&#x13b;" horiz-adv-x="492" 
d="M473 76l-10 -76h-360v688h86v-612h284zM324.5 -94c10.333 -10 15.501 -22.667 15.501 -38c0 -8 -1.66699 -17.167 -5 -27.5s-10 -25.833 -20 -46.5l-41 -86h-49l30 116c-16 12 -24 26.667 -24 44c0 14.667 5.33301 27.167 16 37.5s23.667 15.5 39 15.5
s28.166 -5 38.499 -15z" />
    <glyph glyph-name="lcommaaccent" unicode="&#x13c;" horiz-adv-x="291" 
d="M185 69c5.33301 -7.33301 14.333 -11 27 -11s24 2 34 6l22 -59c-24 -11.333 -48.667 -17 -74 -17c-32.667 0 -57.667 9.5 -75 28.5s-26 47.167 -26 84.5v637l84 10v-646c0 -14.667 2.66699 -25.667 8 -33zM185.5 -94c10.333 -10 15.501 -22.667 15.501 -38
c0 -8 -1.66699 -17.167 -5 -27.5s-10 -25.833 -20 -46.5l-41 -86h-49l30 116c-16 12 -24 26.667 -24 44c0 14.667 5.33301 27.167 16 37.5s23.667 15.5 39 15.5s28.166 -5 38.499 -15z" />
    <glyph glyph-name="Lcaron" unicode="&#x13d;" horiz-adv-x="492" 
d="M473 76l-10 -76h-360v688h86v-612h284zM298 509l-49 7l17 181l76 -9z" />
    <glyph glyph-name="lcaron" unicode="&#x13e;" horiz-adv-x="291" 
d="M185 69c5.33301 -7.33301 14.333 -11 27 -11s24 2 34 6l22 -59c-24 -11.333 -48.667 -17 -74 -17c-32.667 0 -57.667 9.5 -75 28.5s-26 47.167 -26 84.5v637l84 10v-646c0 -14.667 2.66699 -25.667 8 -33zM284 559l-49 7l17 181l76 -9z" />
    <glyph glyph-name="Ldot" unicode="&#x13f;" horiz-adv-x="492" 
d="M473 76l-10 -76h-360v688h86v-612h284zM428.5 424.5c11 -11 16.5 -24.833 16.5 -41.5s-5.5 -30.5 -16.5 -41.5s-25.5 -16.5 -43.5 -16.5c-17.333 0 -31.5 5.5 -42.5 16.5s-16.5 24.833 -16.5 41.5s5.5 30.5 16.5 41.5s25.167 16.5 42.5 16.5c18 0 32.5 -5.5 43.5 -16.5z
" />
    <glyph glyph-name="ldot" unicode="&#x140;" horiz-adv-x="329" 
d="M185 69c5.33301 -7.33301 14.333 -11 27 -11s24 2 34 6l22 -59c-24 -11.333 -48.667 -17 -74 -17c-32.667 0 -57.667 9.5 -75 28.5s-26 47.167 -26 84.5v637l84 10v-646c0 -14.667 2.66699 -25.667 8 -33zM335.5 419.5c11 -11 16.5 -24.833 16.5 -41.5
s-5.5 -30.5 -16.5 -41.5s-25.5 -16.5 -43.5 -16.5c-17.333 0 -31.5 5.5 -42.5 16.5s-16.5 24.833 -16.5 41.5s5.5 30.5 16.5 41.5s25.167 16.5 42.5 16.5c18 0 32.5 -5.5 43.5 -16.5z" />
    <glyph glyph-name="Lslash" unicode="&#x141;" horiz-adv-x="507" 
d="M477 0h-360v263l-58 -36l-34 55l92 57v349h87v-295l165 102l35 -55l-200 -124v-240h284z" />
    <glyph glyph-name="lslash" unicode="&#x142;" horiz-adv-x="300" 
d="M253 64l22 -59.001c-24 -11.333 -48.667 -17 -74 -17c-32.667 0 -57.667 9.5 -75 28.5s-26 46.833 -26 83.5v212l-54 -32l-29 60l83 50v349l84 10v-307l74 45l29 -60l-103 -63v-261c0 -15.333 2.66699 -26.666 8 -33.999s14.333 -11 27 -11s24 2 34 6z" />
    <glyph glyph-name="Nacute" unicode="&#x143;" horiz-adv-x="681" 
d="M462 0l-290 592.999c8 -88 12 -175 12 -261v-332h-81v688h113l292 -594c-2 19.333 -4.33301 49.833 -7 91.5s-4 80.834 -4 117.501v385h81v-688h-116zM258 755.999l-22 45l197 105l37 -72z" />
    <glyph glyph-name="nacute" unicode="&#x144;" horiz-adv-x="585" 
d="M453.5 495c26.333 -28.667 39.499 -68 39.499 -118v-377h-84v365c0 38.667 -7.33301 66.167 -22 82.5s-36.334 24.5 -65.001 24.5c-29.333 0 -55.166 -8.33301 -77.499 -25s-43.166 -40.667 -62.499 -72v-375h-84v526h72l7 -80c20 28.667 44 51.167 72 67.5
s59 24.5 93 24.5c48 0 85.167 -14.333 111.5 -43zM196.999 640l-26 45l196 112l38 -72z" />
    <glyph glyph-name="Ncommaaccent" unicode="&#x145;" horiz-adv-x="681" 
d="M462 0l-290 592.999c8 -88 12 -175 12 -261v-332h-81v688h113l292 -594c-2 19.333 -4.33301 49.833 -7 91.5s-4 80.834 -4 117.501v385h81v-688h-116zM382.5 -94.001c10.333 -10 15.501 -22.667 15.501 -38c0 -8 -1.66699 -17.167 -5 -27.5s-10 -25.833 -20 -46.5
l-41 -86h-49l30 116c-16 12 -24 26.667 -24 44c0 14.667 5.33301 27.167 16 37.5s23.667 15.5 39 15.5s28.166 -5 38.499 -15z" />
    <glyph glyph-name="ncommaaccent" unicode="&#x146;" horiz-adv-x="585" 
d="M453.5 495c26.333 -28.667 39.499 -68 39.499 -118v-377h-84v365c0 38.667 -7.33301 66.167 -22 82.5s-36.334 24.5 -65.001 24.5c-29.333 0 -55.166 -8.33301 -77.499 -25s-43.166 -40.667 -62.499 -72v-375h-84v526h72l7 -80c20 28.667 44 51.167 72 67.5
s59 24.5 93 24.5c48 0 85.167 -14.333 111.5 -43zM333.499 -94c10.333 -10 15.501 -22.667 15.501 -38c0 -8 -1.66699 -17.167 -5 -27.5s-10 -25.833 -20 -46.5l-41 -86h-49l30 116c-16 12 -24 26.667 -24 44c0 14.667 5.33301 27.167 16 37.5s23.667 15.5 39 15.5
s28.166 -5 38.499 -15z" />
    <glyph glyph-name="Ncaron" unicode="&#x147;" horiz-adv-x="681" 
d="M462 0l-290 592.999c8 -88 12 -175 12 -261v-332h-81v688h113l292 -594c-2 19.333 -4.33301 49.833 -7 91.5s-4 80.834 -4 117.501v385h81v-688h-116zM380 754.999h-55l-135 107l37 42l125 -81l125 81l36 -42z" />
    <glyph glyph-name="ncaron" unicode="&#x148;" horiz-adv-x="585" 
d="M453.5 495c26.333 -28.667 39.499 -68 39.499 -118v-377h-84v365c0 38.667 -7.33301 66.167 -22 82.5s-36.334 24.5 -65.001 24.5c-29.333 0 -55.166 -8.33301 -77.499 -25s-43.166 -40.667 -62.499 -72v-375h-84v526h72l7 -80c20 28.667 44 51.167 72 67.5
s59 24.5 93 24.5c48 0 85.167 -14.333 111.5 -43zM326.999 628h-55l-135 112l37 41l125 -84l125 84l36 -41z" />
    <glyph glyph-name="napostrophe" unicode="&#x149;" horiz-adv-x="586" 
d="M453.5 495c26.333 -28.667 39.499 -68 39.499 -118v-377h-84v365c0 38.667 -7.33301 66.167 -22 82.5s-36.334 24.5 -65.001 24.5c-29.333 0 -55.166 -8.33301 -77.499 -25s-43.166 -40.667 -62.499 -72v-375h-84v526h72l7 -80c20 28.667 44 51.167 72 67.5
s59 24.5 93 24.5c48 0 85.167 -14.333 111.5 -43zM213.499 733c10.333 -10 15.501 -22.333 15.501 -37c0 -8.66699 -1.66699 -18 -5 -28s-10 -25.667 -20 -47l-40 -87h-49l29 117c-16 12 -24 27 -24 45c0 14.667 5.33301 27 16 37s23.667 15 39 15s28.166 -5 38.499 -15z
" />
    <glyph glyph-name="Eng" unicode="&#x14a;" horiz-adv-x="681" 
d="M578 29c0 -48 -5.66699 -86.335 -17 -115.002s-28.166 -52 -50.499 -70s-53.5 -36 -93.5 -54l-23 57c26 12 46.333 23.5 61 34.5s26.167 25.833 34.5 44.5s13.166 43.334 14.499 74.001h-44l-284 591h-4c8 -86.667 12 -173 12 -259v-332h-81v688h115l287 -594h3
c-2 19.333 -4.33301 49.833 -7 91.5s-4 80.834 -4 117.501v385h81v-659z" />
    <glyph glyph-name="eng" unicode="&#x14b;" horiz-adv-x="585" 
d="M453 495c26.667 -28.667 39.998 -68.001 39.998 -118.001v-348c0 -48 -5.66699 -86.333 -17 -115s-28.166 -52 -50.499 -70s-53.5 -36 -93.5 -54l-24 61c26 12.667 45.833 24.834 59.5 36.501s24 28 31 49s10.5 50.167 10.5 87.5v341c0 38.667 -7.5 66.167 -22.5 82.5
s-36.833 24.5 -65.5 24.5s-54.167 -8.33301 -76.5 -25s-43.166 -40.667 -62.499 -72v-375h-84v526h72l7 -80c20 28.667 44 51.167 72 67.5s59 24.5 93 24.5c47.333 0 84.333 -14.333 111 -43z" />
    <glyph glyph-name="Omacron" unicode="&#x14c;" horiz-adv-x="692" 
d="M497 658.5c43.333 -27.667 76.998 -68.167 100.998 -121.5s36 -118 36 -194c0 -74.667 -12 -138.667 -36 -192s-57.667 -93.833 -101 -121.5s-93.666 -41.5 -150.999 -41.5s-107.666 13.667 -150.999 41s-77 67.5 -101 120.5s-36 117.167 -36 192.5c0 74 12 138 36 192
s57.833 95.167 101.5 123.5s93.834 42.5 150.501 42.5c57.333 0 107.666 -13.833 150.999 -41.5zM201.998 558c-34.667 -46.667 -52 -118.666 -52 -215.999c0 -96 17.5 -167 52.5 -213s82.833 -69 143.5 -69c62.667 0 111 22.833 145 68.5s51 117.167 51 214.5
s-17 169.166 -51 215.499s-82.333 69.5 -145 69.5c-61.333 0 -109.333 -23.333 -144 -70zM213.998 854.001h266v-64h-266v64z" />
    <glyph glyph-name="omacron" unicode="&#x14d;" horiz-adv-x="581" 
d="M461.5 464.5c40.333 -49 60.502 -115.833 60.502 -200.5c0 -84 -20.5 -151 -61.5 -201s-97.833 -75 -170.5 -75s-129.334 24.5 -170.001 73.5s-61 115.833 -61 200.5c0 84 20.5 151 61.5 201s97.833 75 170.5 75c73.333 0 130.166 -24.5 170.499 -73.5zM185.502 418
c-24.333 -34.667 -36.5 -86.667 -36.5 -156c0 -68.667 12 -120.167 36 -154.5s59 -51.5 105 -51.5s81.167 17.333 105.5 52s36.5 86.667 36.5 156c0 68.667 -12 120.167 -36 154.5s-59 51.5 -105 51.5s-81.167 -17.333 -105.5 -52zM157.002 733h265v-64h-265v64z" />
    <glyph glyph-name="Obreve" unicode="&#x14e;" horiz-adv-x="692" 
d="M497 658.5c43.333 -27.667 76.998 -68.167 100.998 -121.5s36 -118 36 -194c0 -74.667 -12 -138.667 -36 -192s-57.667 -93.833 -101 -121.5s-93.666 -41.5 -150.999 -41.5s-107.666 13.667 -150.999 41s-77 67.5 -101 120.5s-36 117.167 -36 192.5c0 74 12 138 36 192
s57.833 95.167 101.5 123.5s93.834 42.5 150.501 42.5c57.333 0 107.666 -13.833 150.999 -41.5zM201.998 558c-34.667 -46.667 -52 -118.666 -52 -215.999c0 -96 17.5 -167 52.5 -213s82.833 -69 143.5 -69c62.667 0 111 22.833 145 68.5s51 117.167 51 214.5
s-17 169.166 -51 215.499s-82.333 69.5 -145 69.5c-61.333 0 -109.333 -23.333 -144 -70zM246.498 792.501c-27 21.667 -42.501 49.834 -46.501 84.501l56 12c15.333 -43.333 45 -65 89 -65c22.667 0 41.834 5.83301 57.501 17.5s27.167 27.5 34.5 47.5l56 -12
c-4 -34.667 -19.667 -62.834 -47 -84.501s-61 -32.5 -101 -32.5c-38.667 0 -71.5 10.833 -98.5 32.5z" />
    <glyph glyph-name="obreve" unicode="&#x14f;" horiz-adv-x="581" 
d="M461.5 464.5c40.333 -49 60.502 -115.833 60.502 -200.5c0 -84 -20.5 -151 -61.5 -201s-97.833 -75 -170.5 -75s-129.334 24.5 -170.001 73.5s-61 115.833 -61 200.5c0 84 20.5 151 61.5 201s97.833 75 170.5 75c73.333 0 130.166 -24.5 170.499 -73.5zM185.502 418
c-24.333 -34.667 -36.5 -86.667 -36.5 -156c0 -68.667 12 -120.167 36 -154.5s59 -51.5 105 -51.5s81.167 17.333 105.5 52s36.5 86.667 36.5 156c0 68.667 -12 120.167 -36 154.5s-59 51.5 -105 51.5s-81.167 -17.333 -105.5 -52zM189.002 679.5
c-26.667 23 -42 54.167 -46 93.5l56 12c14 -50 43.667 -75 89 -75c47.333 0 78 25 92 75l56 -12c-4 -39.333 -19.667 -70.5 -47 -93.5s-61 -34.5 -101 -34.5c-39.333 0 -72.333 11.5 -99 34.5z" />
    <glyph glyph-name="Ohungarumlaut" unicode="&#x150;" horiz-adv-x="692" 
d="M497 658.5c43.333 -27.667 76.998 -68.167 100.998 -121.5s36 -118 36 -194c0 -74.667 -12 -138.667 -36 -192s-57.667 -93.833 -101 -121.5s-93.666 -41.5 -150.999 -41.5s-107.666 13.667 -150.999 41s-77 67.5 -101 120.5s-36 117.167 -36 192.5c0 74 12 138 36 192
s57.833 95.167 101.5 123.5s93.834 42.5 150.501 42.5c57.333 0 107.666 -13.833 150.999 -41.5zM201.998 558c-34.667 -46.667 -52 -118.666 -52 -215.999c0 -96 17.5 -167 52.5 -213s82.833 -69 143.5 -69c62.667 0 111 22.833 145 68.5s51 117.167 51 214.5
s-17 169.166 -51 215.499s-82.333 69.5 -145 69.5c-61.333 0 -109.333 -23.333 -144 -70zM292.998 767.001l-54 23l75 163l72 -38zM429.998 762.001l-54 23l85 168l72 -37z" />
    <glyph glyph-name="ohungarumlaut" unicode="&#x151;" horiz-adv-x="581" 
d="M461.5 464.5c40.333 -49 60.502 -115.833 60.502 -200.5c0 -84 -20.5 -151 -61.5 -201s-97.833 -75 -170.5 -75s-129.334 24.5 -170.001 73.5s-61 115.833 -61 200.5c0 84 20.5 151 61.5 201s97.833 75 170.5 75c73.333 0 130.166 -24.5 170.499 -73.5zM185.502 418
c-24.333 -34.667 -36.5 -86.667 -36.5 -156c0 -68.667 12 -120.167 36 -154.5s59 -51.5 105 -51.5s81.167 17.333 105.5 52s36.5 86.667 36.5 156c0 68.667 -12 120.167 -36 154.5s-59 51.5 -105 51.5s-81.167 -17.333 -105.5 -52zM380.002 636l-53 23l84 168l72 -38z
M243.002 641l-53 23l75 163l72 -38z" />
    <glyph glyph-name="OE" unicode="&#x152;" horiz-adv-x="900" 
d="M405 0c-22 -8 -46.001 -11.999 -72.001 -11.999c-53.333 0 -100.666 13.667 -141.999 41s-73.833 67.666 -97.5 120.999s-35.5 117.333 -35.5 192c0 74 11.833 138 35.5 192s56.334 95.167 98.001 123.5s88.834 42.5 141.501 42.5c26.667 0 52 -4 76 -12h422l-10 -70
h-303c27.333 -25.333 49.166 -57.833 65.499 -97.5s26.166 -84.5 29.499 -134.5h172v-70h-172c-2.66699 -52.667 -12.5 -100 -29.5 -142s-40.5 -76.667 -70.5 -104h325v-70h-433zM200.499 129.501c33.667 -46.333 78.832 -69.5 135.499 -69.5c58 0 103.5 23.167 136.5 69.5
s49.5 118.166 49.5 215.499c0 96 -16.5 167.167 -49.5 213.5s-78.5 69.5 -136.5 69.5c-57.333 0 -102.666 -23.5 -135.999 -70.5s-50 -118.833 -50 -215.5c0 -95.333 16.833 -166.166 50.5 -212.499z" />
    <glyph glyph-name="oe" unicode="&#x153;" horiz-adv-x="921" 
d="M861 234l-338.998 0.00195312c4 -60.667 19 -105.334 45 -134.001s60 -43 102 -43c26 0 49.5 3.66699 70.5 11s43.167 19.333 66.5 36l37 -50c-54.667 -44 -115 -66 -181 -66c-84.667 0 -146.667 38 -186 114c-41.333 -76 -103.333 -114 -186 -114
c-72.667 0 -129.334 24.5 -170.001 73.5s-61 115.833 -61 200.5c0 84 20.5 151 61.5 201s97.833 75 170.5 75c85.333 0 147.666 -36.667 186.999 -110c38.667 73.333 95.667 110 171 110c69.333 0 122.333 -22.833 159 -68.5s55 -108.834 55 -189.501
c0 -16 -0.666992 -31.333 -2 -46zM780.002 304.002c0 54 -10.833 95.333 -32.5 124s-53.834 43 -96.501 43c-38 0 -68.167 -14.333 -90.5 -43s-35.166 -72.667 -38.499 -132h258v8zM395.502 108.002c24.333 34.667 36.5 86.667 36.5 156c0 68.667 -12 120.167 -36 154.5
s-59 51.5 -105 51.5s-81.167 -17.333 -105.5 -52s-36.5 -86.667 -36.5 -156c0 -68.667 12 -120.167 36 -154.5s59 -51.5 105 -51.5s81.167 17.333 105.5 52z" />
    <glyph glyph-name="Racute" unicode="&#x154;" horiz-adv-x="601" 
d="M189 296l-0.000976562 -296h-86v688h177c84.667 0 148.834 -16.333 192.501 -49s65.5 -80.667 65.5 -144c0 -48 -12.5 -87 -37.5 -117s-62.5 -52.333 -112.5 -67l186 -311h-103l-168 296h-114zM406.499 394.5c26.333 21 39.501 54.5 39.501 100.5
c0 43.333 -13.167 75 -39.5 95s-68.833 30 -127.5 30h-90v-257h101c51.333 0 90.166 10.5 116.499 31.5zM205 756l-22 45l197 105l37 -72z" />
    <glyph glyph-name="racute" unicode="&#x155;" horiz-adv-x="383" 
d="M372 532l-15 -82c-16 4 -31.333 6 -46 6c-33.333 0 -60.333 -12.167 -81 -36.5s-36.667 -62.5 -48 -114.5v-305h-84v526h72l8 -110c14 40 33 70.333 57 91s52.333 31 85 31c20 0 37.333 -2 52 -6zM136 640l-26 45l196 112l38 -72z" />
    <glyph glyph-name="Rcommaaccent" unicode="&#x156;" horiz-adv-x="601" 
d="M189 296l-0.000976562 -296h-86v688h177c84.667 0 148.834 -16.333 192.501 -49s65.5 -80.667 65.5 -144c0 -48 -12.5 -87 -37.5 -117s-62.5 -52.333 -112.5 -67l186 -311h-103l-168 296h-114zM406.499 394.5c26.333 21 39.501 54.5 39.501 100.5
c0 43.333 -13.167 75 -39.5 95s-68.833 30 -127.5 30h-90v-257h101c51.333 0 90.166 10.5 116.499 31.5zM349.5 -94c10.333 -10 15.501 -22.667 15.501 -38c0 -8 -1.66699 -17.167 -5 -27.5s-10 -25.833 -20 -46.5l-41 -86h-49l30 116c-16 12 -24 26.667 -24 44
c0 14.667 5.33301 27.167 16 37.5s23.667 15.5 39 15.5s28.166 -5 38.499 -15z" />
    <glyph glyph-name="rcommaaccent" unicode="&#x157;" horiz-adv-x="383" 
d="M372 532l-15 -82c-16 4 -31.333 6 -46 6c-33.333 0 -60.333 -12.167 -81 -36.5s-36.667 -62.5 -48 -114.5v-305h-84v526h72l8 -110c14 40 33 70.333 57 91s52.333 31 85 31c20 0 37.333 -2 52 -6zM180.5 -94c10.333 -10 15.501 -22.667 15.501 -38
c0 -8 -1.66699 -17.167 -5 -27.5s-10 -25.833 -20 -46.5l-41 -86h-49l30 116c-16 12 -24 26.667 -24 44c0 14.667 5.33301 27.167 16 37.5s23.667 15.5 39 15.5s28.166 -5 38.499 -15z" />
    <glyph glyph-name="Rcaron" unicode="&#x158;" horiz-adv-x="601" 
d="M189 296l-0.000976562 -296h-86v688h177c84.667 0 148.834 -16.333 192.501 -49s65.5 -80.667 65.5 -144c0 -48 -12.5 -87 -37.5 -117s-62.5 -52.333 -112.5 -67l186 -311h-103l-168 296h-114zM406.499 394.5c26.333 21 39.501 54.5 39.501 100.5
c0 43.333 -13.167 75 -39.5 95s-68.833 30 -127.5 30h-90v-257h101c51.333 0 90.166 10.5 116.499 31.5zM326 755h-55l-135 107l37 42l125 -81l125 81l36 -42z" />
    <glyph glyph-name="rcaron" unicode="&#x159;" horiz-adv-x="383" 
d="M372 532l-15 -82c-16 4 -31.333 6 -46 6c-33.333 0 -60.333 -12.167 -81 -36.5s-36.667 -62.5 -48 -114.5v-305h-84v526h72l8 -110c14 40 33 70.333 57 91s52.333 31 85 31c20 0 37.333 -2 52 -6zM265 628h-55l-135 112l37 41l125 -84l125 84l36 -41z" />
    <glyph glyph-name="Sacute" unicode="&#x15a;" horiz-adv-x="544" 
d="M385.5 680.5c32.333 -13 63.167 -32.833 92.5 -59.5l-49 -55c-24.667 22 -49.5 37.833 -74.5 47.5s-52.167 14.5 -81.5 14.5c-38 0 -68.833 -8.83301 -92.5 -26.5s-35.5 -42.834 -35.5 -75.501c0 -21.333 4.16699 -39 12.5 -53s23.5 -26.833 45.5 -38.5
s53.667 -23.834 95 -36.501c43.333 -13.333 79.333 -27.666 108 -42.999s51.5 -36.333 68.5 -63s25.5 -60.334 25.5 -101.001c0 -40 -9.66699 -75.333 -29 -106s-47.166 -54.5 -83.499 -71.5s-79.166 -25.5 -128.499 -25.5c-93.333 0 -170.333 29.333 -231 88l51 56
c24.667 -23.333 51.5 -41.166 80.5 -53.499s61.833 -18.5 98.5 -18.5c44 0 80.333 11.167 109 33.5s43 53.833 43 94.5c0 24 -4.5 44 -13.5 60s-24.333 30 -46 42s-52.5 24 -92.5 36c-70.667 21.333 -122 46.833 -154 76.5s-48 69.834 -48 120.501c0 34 9 64.5 27 91.5
s43.167 48 75.5 63s69.166 22.5 110.499 22.5c45.333 0 84.166 -6.5 116.499 -19.5zM182.001 756l-22 45l197 105l37 -72z" />
    <glyph glyph-name="sacute" unicode="&#x15b;" horiz-adv-x="466" 
d="M331.5 523c28.333 -10 55.499 -25.002 81.499 -45.002l-37 -56c-23.333 17.333 -45.666 29.833 -66.999 37.5s-44.333 11.5 -69 11.5c-31.333 0 -56.166 -6.66699 -74.499 -20s-27.5 -31.333 -27.5 -54c0 -22 8.5 -39.167 25.5 -51.5s47.5 -24.5 91.5 -36.5
c58.667 -15.333 102.167 -35.333 130.5 -60s42.5 -59 42.5 -103c0 -50.667 -19.667 -89.667 -59 -117s-87.333 -41 -144 -41c-78.667 0 -144.334 23 -197.001 69l47 53c43.333 -36 92.666 -54 147.999 -54c34.667 0 62.834 7.5 84.501 22.5s32.5 34.833 32.5 59.5
c0 20 -3.66699 35.833 -11 47.5s-20.166 21.834 -38.499 30.501s-45.5 18 -81.5 28c-56 14.667 -96.333 34.167 -121 58.5s-37 55.5 -37 93.5c0 26.667 8 50.834 24 72.501s38.167 38.667 66.5 51s60.166 18.5 95.499 18.5c34.667 0 66.167 -5 94.5 -15zM141.999 639.998
l-26 45l196 112l38 -72z" />
    <glyph glyph-name="Scircumflex" unicode="&#x15c;" horiz-adv-x="544" 
d="M385.5 680.5c32.333 -13 63.167 -32.833 92.5 -59.5l-49 -55c-24.667 22 -49.5 37.833 -74.5 47.5s-52.167 14.5 -81.5 14.5c-38 0 -68.833 -8.83301 -92.5 -26.5s-35.5 -42.834 -35.5 -75.501c0 -21.333 4.16699 -39 12.5 -53s23.5 -26.833 45.5 -38.5
s53.667 -23.834 95 -36.501c43.333 -13.333 79.333 -27.666 108 -42.999s51.5 -36.333 68.5 -63s25.5 -60.334 25.5 -101.001c0 -40 -9.66699 -75.333 -29 -106s-47.166 -54.5 -83.499 -71.5s-79.166 -25.5 -128.499 -25.5c-93.333 0 -170.333 29.333 -231 88l51 56
c24.667 -23.333 51.5 -41.166 80.5 -53.499s61.833 -18.5 98.5 -18.5c44 0 80.333 11.167 109 33.5s43 53.833 43 94.5c0 24 -4.5 44 -13.5 60s-24.333 30 -46 42s-52.5 24 -92.5 36c-70.667 21.333 -122 46.833 -154 76.5s-48 69.834 -48 120.501c0 34 9 64.5 27 91.5
s43.167 48 75.5 63s69.166 22.5 110.499 22.5c45.333 0 84.166 -6.5 116.499 -19.5zM150.001 760l-37 41l135 108h55l133 -108l-36 -41l-125 81z" />
    <glyph glyph-name="scircumflex" unicode="&#x15d;" horiz-adv-x="466" 
d="M331.5 523c28.333 -10 55.499 -25.002 81.499 -45.002l-37 -56c-23.333 17.333 -45.666 29.833 -66.999 37.5s-44.333 11.5 -69 11.5c-31.333 0 -56.166 -6.66699 -74.499 -20s-27.5 -31.333 -27.5 -54c0 -22 8.5 -39.167 25.5 -51.5s47.5 -24.5 91.5 -36.5
c58.667 -15.333 102.167 -35.333 130.5 -60s42.5 -59 42.5 -103c0 -50.667 -19.667 -89.667 -59 -117s-87.333 -41 -144 -41c-78.667 0 -144.334 23 -197.001 69l47 53c43.333 -36 92.666 -54 147.999 -54c34.667 0 62.834 7.5 84.501 22.5s32.5 34.833 32.5 59.5
c0 20 -3.66699 35.833 -11 47.5s-20.166 21.834 -38.499 30.501s-45.5 18 -81.5 28c-56 14.667 -96.333 34.167 -121 58.5s-37 55.5 -37 93.5c0 26.667 8 50.834 24 72.501s38.167 38.667 66.5 51s60.166 18.5 95.499 18.5c34.667 0 66.167 -5 94.5 -15zM215.999 788.998h55
l134 -111l-36 -42l-125 84l-126 -84l-36 42z" />
    <glyph glyph-name="Scedilla" unicode="&#x15e;" horiz-adv-x="544" 
d="M444.5 53c-37 -36.667 -87.4971 -57.667 -151.497 -63v-48c31.333 -2.66699 54.5 -11.667 69.5 -27s22.5 -34 22.5 -56c0 -30.667 -11.333 -54.5 -34 -71.5s-51 -25.5 -85 -25.5c-37.333 0 -67 7.66699 -89 23l24 49c19.333 -10.667 40 -16 62 -16c34 0 51 13.667 51 41
c0 14 -7 24.5 -21 31.5s-36.667 10.833 -68 11.5l10 87c-82.667 4.66699 -151.667 33.667 -207 87l51 56c24.667 -23.333 51.5 -41.166 80.5 -53.499s61.833 -18.5 98.5 -18.5c44 0 80.333 11.167 109 33.5s43 53.833 43 94.5c0 24 -4.5 44 -13.5 60s-24.333 30 -46 42
s-52.5 24 -92.5 36c-70.667 21.333 -122 46.833 -154 76.5s-48 69.834 -48 120.501c0 34 9 64.5 27 91.5s43.167 48 75.5 63s69.166 22.5 110.499 22.5c45.333 0 84.166 -6.5 116.499 -19.5s63.166 -32.833 92.499 -59.5l-49 -55c-24.667 22 -49.5 37.833 -74.5 47.5
s-52.167 14.5 -81.5 14.5c-38 0 -68.833 -8.83301 -92.5 -26.5s-35.5 -42.834 -35.5 -75.501c0 -21.333 4.16699 -39 12.5 -53s23.5 -26.833 45.5 -38.5s53.667 -23.834 95 -36.501c43.333 -13.333 79.333 -27.666 108 -42.999s51.5 -36.333 68.5 -63
s25.5 -60.334 25.5 -101.001c0 -55.333 -18.5 -101.333 -55.5 -138z" />
    <glyph glyph-name="scedilla" unicode="&#x15f;" horiz-adv-x="466" 
d="M379.5 37c-32.333 -26.667 -73.1689 -42.3359 -122.502 -47.0029v-48c31.333 -2.66699 54.5 -11.667 69.5 -27s22.5 -34 22.5 -56c0 -30.667 -11.333 -54.5 -34 -71.5s-51 -25.5 -85 -25.5c-37.333 0 -67 7.66699 -89 23l24 49c19.333 -10.667 40 -16 62 -16
c34 0 51 13.667 51 41c0 14 -7 24.5 -21 31.5s-36.667 10.833 -68 11.5l10 87c-66 4.66699 -123 27.334 -171 68.001l47 53c43.333 -36 92.666 -54 147.999 -54c34.667 0 62.834 7.5 84.501 22.5s32.5 34.833 32.5 59.5c0 20 -3.66699 35.833 -11 47.5
s-20.166 21.834 -38.499 30.501s-45.5 18 -81.5 28c-56 14.667 -96.333 34.167 -121 58.5s-37 55.5 -37 93.5c0 26.667 8 50.834 24 72.501s38.167 38.667 66.5 51s60.166 18.5 95.499 18.5c34.667 0 66.167 -5 94.5 -15s55.5 -25 81.5 -45l-37 -56
c-23.333 17.333 -45.666 29.833 -66.999 37.5s-44.333 11.5 -69 11.5c-31.333 0 -56.166 -6.66699 -74.499 -20s-27.5 -31.333 -27.5 -54c0 -22 8.5 -39.167 25.5 -51.5s47.5 -24.5 91.5 -36.5c58.667 -15.333 102.167 -35.333 130.5 -60s42.5 -59 42.5 -103
c0 -46 -16.167 -82.333 -48.5 -109z" />
    <glyph glyph-name="Scaron" unicode="&#x160;" horiz-adv-x="544" 
d="M385.5 680.5c32.333 -13 63.167 -32.833 92.5 -59.5l-49 -55c-24.667 22 -49.5 37.833 -74.5 47.5s-52.167 14.5 -81.5 14.5c-38 0 -68.833 -8.83301 -92.5 -26.5s-35.5 -42.834 -35.5 -75.501c0 -21.333 4.16699 -39 12.5 -53s23.5 -26.833 45.5 -38.5
s53.667 -23.834 95 -36.501c43.333 -13.333 79.333 -27.666 108 -42.999s51.5 -36.333 68.5 -63s25.5 -60.334 25.5 -101.001c0 -40 -9.66699 -75.333 -29 -106s-47.166 -54.5 -83.499 -71.5s-79.166 -25.5 -128.499 -25.5c-93.333 0 -170.333 29.333 -231 88l51 56
c24.667 -23.333 51.5 -41.166 80.5 -53.499s61.833 -18.5 98.5 -18.5c44 0 80.333 11.167 109 33.5s43 53.833 43 94.5c0 24 -4.5 44 -13.5 60s-24.333 30 -46 42s-52.5 24 -92.5 36c-70.667 21.333 -122 46.833 -154 76.5s-48 69.834 -48 120.501c0 34 9 64.5 27 91.5
s43.167 48 75.5 63s69.166 22.5 110.499 22.5c45.333 0 84.166 -6.5 116.499 -19.5zM304.001 755h-55l-135 107l37 42l125 -81l125 81l36 -42z" />
    <glyph glyph-name="scaron" unicode="&#x161;" horiz-adv-x="466" 
d="M331.5 523c28.333 -10 55.499 -25.002 81.499 -45.002l-37 -56c-23.333 17.333 -45.666 29.833 -66.999 37.5s-44.333 11.5 -69 11.5c-31.333 0 -56.166 -6.66699 -74.499 -20s-27.5 -31.333 -27.5 -54c0 -22 8.5 -39.167 25.5 -51.5s47.5 -24.5 91.5 -36.5
c58.667 -15.333 102.167 -35.333 130.5 -60s42.5 -59 42.5 -103c0 -50.667 -19.667 -89.667 -59 -117s-87.333 -41 -144 -41c-78.667 0 -144.334 23 -197.001 69l47 53c43.333 -36 92.666 -54 147.999 -54c34.667 0 62.834 7.5 84.501 22.5s32.5 34.833 32.5 59.5
c0 20 -3.66699 35.833 -11 47.5s-20.166 21.834 -38.499 30.501s-45.5 18 -81.5 28c-56 14.667 -96.333 34.167 -121 58.5s-37 55.5 -37 93.5c0 26.667 8 50.834 24 72.501s38.167 38.667 66.5 51s60.166 18.5 95.499 18.5c34.667 0 66.167 -5 94.5 -15zM271.999 627.998
h-55l-135 112l37 41l125 -84l125 84l36 -41z" />
    <glyph glyph-name="Tcedilla" unicode="&#x162;" horiz-adv-x="512" 
d="M299 -58c32 -2.66699 55.999 -11.667 71.999 -27s24 -34 24 -56c0 -30.667 -11.667 -54.5 -35 -71.5s-52.666 -25.5 -87.999 -25.5c-36.667 0 -65 8 -85 24l23 48c19.333 -10.667 39 -16 59 -16c16 0 29.167 3.33301 39.5 10s15.5 17 15.5 31s-7.16699 24.667 -21.5 32
s-36.833 11 -67.5 11l11 98h-33v614h-198v74h487l-10 -74h-193v-614v-58z" />
    <glyph glyph-name="tcedilla" unicode="&#x163;" horiz-adv-x="356" 
d="M324.5 -85c15 -15.333 22.501 -33.999 22.501 -55.999c0 -30.667 -11.333 -54.5 -34 -71.5s-51 -25.5 -85 -25.5c-37.333 0 -67 7.66699 -89 23l24 49c19.333 -10.667 40 -16 62 -16c34 0 51 13.667 51 41c0 14 -7 24.5 -21 31.5s-36.667 10.833 -68 11.5l10 91
c-30.667 7.33301 -54.167 23.166 -70.5 47.499s-24.5 55.833 -24.5 94.5v326h-91v65h91v121l84 9v-130h127l-9 -65h-118v-322c0 -28 5.16699 -48.5 15.5 -61.5s27.166 -19.5 50.499 -19.5c24 0 48.333 7.66699 73 23l32 -58c-32 -20.667 -66 -32 -102 -34v-47
c31.333 -2.66699 54.5 -11.667 69.5 -27z" />
    <glyph glyph-name="Tcaron" unicode="&#x164;" horiz-adv-x="512" 
d="M299 614v-614h-86v614h-198v74h487l-10 -74h-193zM284 755h-55l-135 107l37 42l125 -81l125 81l36 -42z" />
    <glyph glyph-name="tcaron" unicode="&#x165;" horiz-adv-x="356" 
d="M241 -12c-44 0 -78.165 12.668 -102.498 38.001s-36.5 61.666 -36.5 108.999v326h-91v65h91v121l84 9v-130h127l-9 -65h-118v-322c0 -28 5.16699 -48.5 15.5 -61.5s27.166 -19.5 50.499 -19.5c24 0 48.333 7.66699 73 23l32 -58
c-34.667 -23.333 -73.334 -35 -116.001 -35zM289.002 564.001l-49 7l17 181l76 -9z" />
    <glyph glyph-name="Tbar" unicode="&#x166;" horiz-adv-x="515" 
d="M300 386h124v-64h-124v-324h-87v324h-123v64h123v226h-198v75h487l-9 -75h-193v-226z" />
    <glyph glyph-name="tbar" unicode="&#x167;" horiz-adv-x="356" 
d="M241 -12c-44 0 -78.165 12.668 -102.498 38.001s-36.5 61.666 -36.5 108.999v155h-81v65h81v106h-91v65h91v121l84 9v-130h127l-9 -65h-118v-106h118l-9 -65h-109v-151c0 -28 5.16699 -48.5 15.5 -61.5s27.166 -19.5 50.499 -19.5c24 0 48.333 7.66699 73 23l32 -58
c-34.667 -23.333 -73.334 -35 -116.001 -35z" />
    <glyph glyph-name="Utilde" unicode="&#x168;" horiz-adv-x="660" 
d="M504.5 51.5c-41.667 -42.333 -100.168 -63.501 -175.501 -63.501c-76 0 -134.333 21 -175 63s-61 98 -61 168v469h86v-462c0 -109.333 50 -164 150 -164c50.667 0 88.334 13.667 113.001 41s37 68.333 37 123v462h88v-469c0 -69.333 -20.833 -125.166 -62.5 -167.499z
M352.999 792.499c-11.333 5 -23.3311 11.833 -35.998 20.5c-11.333 6.66699 -19.833 11.5 -25.5 14.5s-12.167 4.5 -19.5 4.5c-11.333 0 -20.833 -3.5 -28.5 -10.5s-16.167 -18.5 -25.5 -34.5l-51 26c27.333 56 62.666 84 105.999 84c12.667 0 24 -2.33301 34 -7
s21.333 -11.334 34 -20.001c10 -7.33301 18.667 -12.666 26 -15.999s14.666 -5 21.999 -5c10 0 19 3.5 27 10.5s16.667 18.167 26 33.5l51 -26c-12 -26.667 -26.833 -47 -44.5 -61s-36.5 -21 -56.5 -21c-14.667 0 -27.667 2.5 -39 7.5z" />
    <glyph glyph-name="utilde" unicode="&#x169;" horiz-adv-x="581" 
d="M412 0l-7 85c-20 -32.667 -43.167 -57 -69.5 -73s-58.166 -24 -95.499 -24c-46.667 0 -82.834 14 -108.501 42s-38.5 67.667 -38.5 119v377h84v-368c0 -37.333 6.66699 -63.833 20 -79.5s35.333 -23.5 66 -23.5c54 0 99.667 31.333 137 94v377h84v-526h-72zM311 666.5
c-11.333 5 -23.333 11.833 -36 20.5c-9.33301 6.66699 -17.333 11.5 -24 14.5s-13.667 4.5 -21 4.5c-11.333 0 -20.833 -3.5 -28.5 -10.5s-16.167 -18.5 -25.5 -34.5l-51 26c27.333 55.333 62.666 83 105.999 83c12.667 0.666992 24 -1.33301 34 -6
s21.333 -11.334 34 -20.001c10.667 -7.33301 19.334 -12.666 26.001 -15.999s13.667 -5 21 -5c10 0 19 3.5 27 10.5s17 18.167 27 33.5l51 -26c-12 -27.333 -27 -48 -45 -62s-37 -21 -57 -21c-14 0.666992 -26.667 3.5 -38 8.5z" />
    <glyph glyph-name="Umacron" unicode="&#x16a;" horiz-adv-x="660" 
d="M504.5 51.5c-41.667 -42.333 -100.168 -63.501 -175.501 -63.501c-76 0 -134.333 21 -175 63s-61 98 -61 168v469h86v-462c0 -109.333 50 -164 150 -164c50.667 0 88.334 13.667 113.001 41s37 68.333 37 123v462h88v-469c0 -69.333 -20.833 -125.166 -62.5 -167.499z
M196.999 853.999h266v-64h-266v64z" />
    <glyph glyph-name="umacron" unicode="&#x16b;" horiz-adv-x="581" 
d="M412 0l-7 85c-20 -32.667 -43.167 -57 -69.5 -73s-58.166 -24 -95.499 -24c-46.667 0 -82.834 14 -108.501 42s-38.5 67.667 -38.5 119v377h84v-368c0 -37.333 6.66699 -63.833 20 -79.5s35.333 -23.5 66 -23.5c54 0 99.667 31.333 137 94v377h84v-526h-72zM155 733h265
v-64h-265v64z" />
    <glyph glyph-name="Ubreve" unicode="&#x16c;" horiz-adv-x="660" 
d="M504.5 51.5c-41.667 -42.333 -100.168 -63.501 -175.501 -63.501c-76 0 -134.333 21 -175 63s-61 98 -61 168v469h86v-462c0 -109.333 50 -164 150 -164c50.667 0 88.334 13.667 113.001 41s37 68.333 37 123v462h88v-469c0 -69.333 -20.833 -125.166 -62.5 -167.499z
M229.499 792.499c-27 21.667 -42.501 49.834 -46.501 84.501l56 12c15.333 -43.333 45 -65 89 -65c22.667 0 41.834 5.83301 57.501 17.5s27.167 27.5 34.5 47.5l56 -12c-4 -34.667 -19.667 -62.834 -47 -84.501s-61 -32.5 -101 -32.5c-38.667 0 -71.5 10.833 -98.5 32.5z
" />
    <glyph glyph-name="ubreve" unicode="&#x16d;" horiz-adv-x="581" 
d="M412 0l-7 85c-20 -32.667 -43.167 -57 -69.5 -73s-58.166 -24 -95.499 -24c-46.667 0 -82.834 14 -108.501 42s-38.5 67.667 -38.5 119v377h84v-368c0 -37.333 6.66699 -63.833 20 -79.5s35.333 -23.5 66 -23.5c54 0 99.667 31.333 137 94v377h84v-526h-72zM187 679.5
c-26.667 23 -42 54.167 -46 93.5l56 12c14 -50 43.667 -75 89 -75c47.333 0 78 25 92 75l56 -12c-4 -39.333 -19.667 -70.5 -47 -93.5s-61 -34.5 -101 -34.5c-39.333 0 -72.333 11.5 -99 34.5z" />
    <glyph glyph-name="Uring" unicode="&#x16e;" horiz-adv-x="660" 
d="M504.5 51.5c-41.667 -42.333 -100.168 -63.501 -175.501 -63.501c-76 0 -134.333 21 -175 63s-61 98 -61 168v469h86v-462c0 -109.333 50 -164 150 -164c50.667 0 88.334 13.667 113.001 41s37 68.333 37 123v462h88v-469c0 -69.333 -20.833 -125.166 -62.5 -167.499z
M409.999 928.999c20.667 -20 31 -44.667 31 -74c0 -28.667 -10.333 -53 -31 -73s-47 -30 -79 -30s-58.5 10 -79.5 30s-31.5 44.333 -31.5 73c0 29.333 10.5 54 31.5 74s47.5 30 79.5 30s58.333 -10 79 -30zM290.999 896.999c-9.33301 -10 -14.002 -24 -14.002 -42
c0 -17.333 4.83301 -31 14.5 -41s22.834 -15 39.501 -15c16 0 28.833 5 38.5 15s14.5 23.667 14.5 41c0 18 -4.66699 32 -14 42s-22.333 15 -39 15c-17.333 0 -30.666 -5 -39.999 -15z" />
    <glyph glyph-name="uring" unicode="&#x16f;" horiz-adv-x="581" 
d="M412 0l-7 85c-20 -32.667 -43.167 -57 -69.5 -73s-58.166 -24 -95.499 -24c-46.667 0 -82.834 14 -108.501 42s-38.5 67.667 -38.5 119v377h84v-368c0 -37.333 6.66699 -63.833 20 -79.5s35.333 -23.5 66 -23.5c54 0 99.667 31.333 137 94v377h84v-526h-72zM367.5 802.5
c21 -19.667 31.5 -44.167 31.5 -73.5s-10.5 -53.833 -31.5 -73.5s-47.5 -29.5 -79.5 -29.5s-58.333 9.83301 -79 29.5s-31 44.167 -31 73.5s10.333 53.833 31 73.5s47 29.5 79 29.5s58.5 -9.83301 79.5 -29.5zM249 771c-9.33301 -10 -14.002 -24 -14.002 -42
c0 -17.333 4.66699 -31 14 -41s22.333 -15 39 -15s29.834 5 39.501 15s14.5 23.667 14.5 41c0 18 -4.66699 32 -14 42s-22.666 15 -39.999 15c-16.667 0 -29.667 -5 -39 -15z" />
    <glyph glyph-name="Uhungarumlaut" unicode="&#x170;" horiz-adv-x="660" 
d="M504.5 51.5c-41.667 -42.333 -100.168 -63.501 -175.501 -63.501c-76 0 -134.333 21 -175 63s-61 98 -61 168v469h86v-462c0 -109.333 50 -164 150 -164c50.667 0 88.334 13.667 113.001 41s37 68.333 37 123v462h88v-469c0 -69.333 -20.833 -125.166 -62.5 -167.499z
M275.999 766.999l-54 23l75 163l72 -38zM412.999 761.999l-54 23l85 168l72 -37z" />
    <glyph glyph-name="uhungarumlaut" unicode="&#x171;" horiz-adv-x="581" 
d="M412 0l-7 85c-20 -32.667 -43.167 -57 -69.5 -73s-58.166 -24 -95.499 -24c-46.667 0 -82.834 14 -108.501 42s-38.5 67.667 -38.5 119v377h84v-368c0 -37.333 6.66699 -63.833 20 -79.5s35.333 -23.5 66 -23.5c54 0 99.667 31.333 137 94v377h84v-526h-72zM378 636
l-53 23l84 168l72 -38zM241 641l-53 23l75 163l72 -38z" />
    <glyph glyph-name="Uogonek" unicode="&#x172;" horiz-adv-x="660" 
d="M567 219c0 -54.667 -13.168 -101.333 -39.501 -140s-64.166 -65 -113.499 -79c-46 -20 -77.833 -39 -95.5 -57s-26.5 -37.333 -26.5 -58c0 -32.667 19.333 -49 58 -49c17.333 0 37.333 2.33301 60 7l-8 -65c-23.333 -4.66699 -44 -7 -62 -7
c-37.333 0 -67 9.16699 -89 27.5s-33 42.166 -33 71.499c0 25.333 8.16699 48 24.5 68s40.166 37 71.499 51c-71.333 2.66699 -126 24.834 -164 66.501s-57 96.167 -57 163.5v469h86v-462c0 -109.333 50 -164 150 -164c50.667 0 88.334 13.667 113.001 41s37 68.333 37 123
v462h88v-469z" />
    <glyph glyph-name="uogonek" unicode="&#x173;" horiz-adv-x="581" 
d="M483 0c-46 -20 -77.833 -38.999 -95.5 -56.999s-26.5 -37.333 -26.5 -58c0 -32.667 19.333 -49 58 -49c18 0 37.667 2.33301 59 7l-8 -65c-23.333 -4.66699 -44 -7 -62 -7c-37.333 0 -66.833 9.16699 -88.5 27.5s-32.5 42.166 -32.5 71.499c0 30 10.167 56.5 30.5 79.5
s51.5 43.167 93.5 60.5l-6 75c-20 -32.667 -43.167 -57 -69.5 -73s-58.166 -24 -95.499 -24c-46.667 0 -82.834 14 -108.501 42s-38.5 67.667 -38.5 119v377h84v-368c0 -37.333 6.66699 -63.833 20 -79.5s35.333 -23.5 66 -23.5c54 0 99.667 31.333 137 94v377h84z" />
    <glyph glyph-name="Wcircumflex" unicode="&#x174;" horiz-adv-x="822" 
d="M542 0l-132 587l-133 -587h-108l-143 688h86l115 -612l137 612h93l140 -612l119 612h80l-143 -688h-111zM286 760l-37 41l135 108h55l133 -108l-36 -41l-125 81z" />
    <glyph glyph-name="wcircumflex" unicode="&#x175;" horiz-adv-x="713" 
d="M455 0l-97 450l-100 -450h-112l-125 526h85l99 -467l108 467h94l104 -467l100 467h80l-121 -526h-115zM329 789h55l134 -111l-36 -42l-125 84l-126 -84l-36 42z" />
    <glyph glyph-name="Ycircumflex" unicode="&#x176;" horiz-adv-x="544" 
d="M316 0h-88v265l-221 423h96l172 -347l171 347h91l-221 -422v-266zM149 760l-37 41l135 108h55l133 -108l-36 -41l-125 81z" />
    <glyph glyph-name="ycircumflex" unicode="&#x177;" horiz-adv-x="486" 
d="M214 -146.5c-36 -34.333 -87.001 -55.835 -153.001 -64.502l-10 66c34.667 6.66699 62.334 15.834 83.001 27.501s37 26.5 49 44.5s23.667 42.333 35 73h-29l-178 526h90l145 -465l142 465h87l-177 -529c-20 -61.333 -48 -109.166 -84 -143.499zM214.999 788.998h55
l134 -111l-36 -42l-125 84l-126 -84l-36 42z" />
    <glyph glyph-name="Ydieresis" unicode="&#x178;" horiz-adv-x="544" 
d="M316 0h-88v265l-221 423h96l172 -347l171 347h91l-221 -422v-266zM209 873c10 -10 15 -22.667 15 -38c0 -14.667 -5.16699 -27.167 -15.5 -37.5s-22.833 -15.5 -37.5 -15.5c-15.333 0 -28.166 5.16699 -38.499 15.5s-15.5 22.833 -15.5 37.5c0 15.333 5.16699 28 15.5 38
s23.166 15 38.499 15s28 -5 38 -15zM413.5 873c10.333 -10 15.5 -22.667 15.5 -38c0 -14.667 -5.16699 -27.167 -15.5 -37.5s-23.166 -15.5 -38.499 -15.5c-14.667 0 -27.167 5.16699 -37.5 15.5s-15.5 22.833 -15.5 37.5c0 15.333 5.16699 28 15.5 38s22.833 15 37.5 15
c15.333 0 28.166 -5 38.499 -15z" />
    <glyph glyph-name="Zacute" unicode="&#x179;" horiz-adv-x="521" 
d="M128 74h345l-10 -74h-432v70l350 545h-313v73h407v-70zM177 756l-22 45l197 105l37 -72z" />
    <glyph glyph-name="zacute" unicode="&#x17a;" horiz-adv-x="434" 
d="M121 71h281l-10 -71h-366v63l278 392h-255v71h351v-64zM117 640l-26 45l196 112l38 -72z" />
    <glyph glyph-name="Zdotaccent" unicode="&#x17b;" horiz-adv-x="521" 
d="M128 74h345l-10 -74h-432v70l350 545h-313v73h407v-70zM312.5 883.5c11 -11 16.5 -24.832 16.5 -41.499s-5.5 -30.334 -16.5 -41.001s-25.5 -16 -43.5 -16c-17.333 0 -31.5 5.5 -42.5 16.5s-16.5 24.5 -16.5 40.5c0 16.667 5.5 30.5 16.5 41.5s25.167 16.5 42.5 16.5
c18 0 32.5 -5.5 43.5 -16.5z" />
    <glyph glyph-name="zdotaccent" unicode="&#x17c;" horiz-adv-x="434" 
d="M121 71h281l-10 -71h-366v63l278 392h-255v71h351v-64zM260.5 757.5c11 -11 16.5 -24.833 16.5 -41.5s-5.5 -30.5 -16.5 -41.5s-25.5 -16.5 -43.5 -16.5c-17.333 0 -31.5 5.5 -42.5 16.5s-16.5 24.833 -16.5 41.5s5.5 30.5 16.5 41.5s25.167 16.5 42.5 16.5
c18 0 32.5 -5.5 43.5 -16.5z" />
    <glyph glyph-name="Zcaron" unicode="&#x17d;" horiz-adv-x="521" 
d="M128 74h345l-10 -74h-432v70l350 545h-313v73h407v-70zM299 755h-55l-135 107l37 42l125 -81l125 81l36 -42z" />
    <glyph glyph-name="zcaron" unicode="&#x17e;" horiz-adv-x="434" 
d="M121 71h281l-10 -71h-366v63l278 392h-255v71h351v-64zM247 628h-55l-135 112l37 41l125 -84l125 84l36 -41z" />
    <glyph glyph-name="florin" unicode="&#x192;" horiz-adv-x="322" 
d="M199 661c-12.667 -12.667 -18.998 -32.3359 -18.998 -59.0029v-76h130l-9 -65h-121v-348v-84c0 -48 -5.66699 -86.333 -17 -115s-28.166 -52 -50.499 -70s-53.5 -36 -93.5 -54l-24 61c26 12.667 45.833 24.834 59.5 36.501s24 28 31 49s10.5 50.167 10.5 87.5v437h-85v65
h85v75c0 44.667 14 80.334 42 107.001s67.333 40 118 40c23.333 0 44.666 -2.16699 63.999 -6.5s39.666 -11.166 60.999 -20.499l-27 -61c-30 13.333 -61 20 -93 20c-28.667 0 -49.334 -6.33301 -62.001 -19z" />
    <glyph glyph-name="AEacute" unicode="&#x1fc;" horiz-adv-x="808" 
d="M756 0h-297l-42 176h-272l-66 -176h-88l272 688h451l-10 -70h-313l59 -233h255v-70h-238l62 -245h227v-70zM313 619l-141 -373h229zM377 756l-22 45l197 105l37 -72z" />
    <glyph glyph-name="aeacute" unicode="&#x1fd;" horiz-adv-x="853" 
d="M793 234h-338.999c4 -60.667 19 -105.334 45 -134.001s60 -43 102 -43c26 0 49.667 3.66699 71 11s43.666 19.333 66.999 36l37 -50c-27.333 -21.333 -55.666 -37.666 -84.999 -48.999s-61.333 -17 -96 -17c-42.667 0 -80 8.5 -112 25.5s-57.667 41.5 -77 73.5
c-25.333 -35.333 -53 -60.666 -83 -75.999s-65.333 -23 -106 -23c-52 0 -93.167 14.667 -123.5 44s-45.5 67.666 -45.5 114.999c0 55.333 20.333 98 61 128s97.334 45 170.001 45h85v41c0 38.667 -9 66.334 -27 83.001s-46.333 25 -85 25c-40.667 0 -88 -9.66699 -142 -29
l-22 62c64 24 123.333 36 178 36c41.333 0 74.666 -7.5 99.999 -22.5s45 -36.5 59 -64.5c36.667 58 90 87 160 87c67.333 0 119.166 -22.833 155.499 -68.5s54.5 -108.834 54.5 -189.501c0 -16 -0.666992 -31.333 -2 -46zM712.001 304c0 54 -10.833 95.333 -32.5 124
s-53.834 43 -96.501 43c-38 0 -68.167 -14.333 -90.5 -43s-35.166 -72.667 -38.499 -132h258v8zM313.501 75c23 15.333 44.833 39.332 65.5 71.999c-10 36.667 -15 73.334 -15 110.001v3v3h-74c-100 0 -150 -37.333 -150 -112c0 -32 8.16699 -56.5 24.5 -73.5
s39.833 -25.5 70.5 -25.5c29.333 0 55.5 7.66699 78.5 23zM321.001 639.999l-26 45l196 112l38 -72z" />
    <glyph glyph-name="Oslashacute" unicode="&#x1fe;" horiz-adv-x="692" 
d="M594 546c26.667 -55.333 39.998 -122.999 39.998 -202.999c0 -74.667 -12 -138.667 -36 -192s-57.667 -93.833 -101 -121.5s-93.666 -41.5 -150.999 -41.5c-22.667 0 -45.667 2.66699 -69 8l-35 -121l-73 19l40 127c-48 26 -85.167 66.167 -111.5 120.5
s-39.5 121.166 -39.5 200.499c0 74 12 138 36 192s57.833 95.167 101.5 123.5s93.834 42.5 150.501 42.5c19.333 0 42 -2.33301 68 -7l37 124l72 -20l-41 -129c48 -26 85.333 -66.667 112 -122zM238.998 90.001l160 532c-16 4 -33.667 6 -53 6
c-61.333 0 -109.333 -23.333 -144 -70s-52 -118.667 -52 -216c0 -127.333 29.667 -211.333 89 -252zM490.998 128.501c34 45.667 51 117.167 51 214.5c0 131.333 -30.333 217 -91 257l-159 -534c16.667 -4 34.667 -6 54 -6c62.667 0 111 22.833 145 68.5zM247.998 770.001
l-22 45l197 105l37 -72z" />
    <glyph glyph-name="oslashacute" unicode="&#x1ff;" horiz-adv-x="581" 
d="M493.5 413c19 -42 28.501 -91.667 28.501 -149c0 -84 -20.5 -151 -61.5 -201s-97.833 -75 -170.5 -75c-16.667 0 -34.334 1.66699 -53.001 5l-40 -122l-68 20l42 127c-36.667 21.333 -64.5 53 -83.5 95s-28.5 91.667 -28.5 149c0 84 20.5 151 61.5 201
s97.833 75 170.5 75c17.333 0 35.333 -1.66699 54 -5l39 121l69 -20l-42 -126c36 -21.333 63.5 -53 82.5 -95zM185.501 418c-24.333 -34.667 -36.5 -86.667 -36.5 -156c0 -90.667 18.333 -150.667 55 -180l127 384c-10.667 2.66699 -24 4 -40 4
c-46 0 -81.167 -17.333 -105.5 -52zM395.501 108c24.333 34.667 36.499 86.667 36.499 156c0 46.667 -4.33301 84.667 -13 114s-22 51.333 -40 66l-127 -384c10.667 -2.66699 23.334 -4 38.001 -4c46 0 81.167 17.333 105.5 52zM189 640l-26 45l196 112l38 -72z" />
    <glyph glyph-name="Scommaaccent" unicode="&#x218;" horiz-adv-x="544" 
d="M385.5 680.5c32.333 -13 63.167 -32.833 92.5 -59.5l-49 -55c-24.667 22 -49.5 37.833 -74.5 47.5s-52.167 14.5 -81.5 14.5c-38 0 -68.833 -8.83301 -92.5 -26.5s-35.5 -42.834 -35.5 -75.501c0 -21.333 4.16699 -39 12.5 -53s23.5 -26.833 45.5 -38.5
s53.667 -23.834 95 -36.501c43.333 -13.333 79.333 -27.666 108 -42.999s51.5 -36.333 68.5 -63s25.5 -60.334 25.5 -101.001c0 -40 -9.66699 -75.333 -29 -106s-47.166 -54.5 -83.499 -71.5s-79.166 -25.5 -128.499 -25.5c-93.333 0 -170.333 29.333 -231 88l51 56
c24.667 -23.333 51.5 -41.166 80.5 -53.499s61.833 -18.5 98.5 -18.5c44 0 80.333 11.167 109 33.5s43 53.833 43 94.5c0 24 -4.5 44 -13.5 60s-24.333 30 -46 42s-52.5 24 -92.5 36c-70.667 21.333 -122 46.833 -154 76.5s-48 69.834 -48 120.501c0 34 9 64.5 27 91.5
s43.167 48 75.5 63s69.166 22.5 110.499 22.5c45.333 0 84.166 -6.5 116.499 -19.5zM306.501 -94c10.333 -10 15.501 -22.667 15.501 -38c0 -8 -1.66699 -17.167 -5 -27.5s-10 -25.833 -20 -46.5l-41 -86h-49l30 116c-16 12 -24 26.667 -24 44
c0 14.667 5.33301 27.167 16 37.5s23.667 15.5 39 15.5s28.166 -5 38.499 -15z" />
    <glyph glyph-name="scommaaccent" unicode="&#x219;" horiz-adv-x="466" 
d="M331.5 523c28.333 -10 55.499 -25.002 81.499 -45.002l-37 -56c-23.333 17.333 -45.666 29.833 -66.999 37.5s-44.333 11.5 -69 11.5c-31.333 0 -56.166 -6.66699 -74.499 -20s-27.5 -31.333 -27.5 -54c0 -22 8.5 -39.167 25.5 -51.5s47.5 -24.5 91.5 -36.5
c58.667 -15.333 102.167 -35.333 130.5 -60s42.5 -59 42.5 -103c0 -50.667 -19.667 -89.667 -59 -117s-87.333 -41 -144 -41c-78.667 0 -144.334 23 -197.001 69l47 53c43.333 -36 92.666 -54 147.999 -54c34.667 0 62.834 7.5 84.501 22.5s32.5 34.833 32.5 59.5
c0 20 -3.66699 35.833 -11 47.5s-20.166 21.834 -38.499 30.501s-45.5 18 -81.5 28c-56 14.667 -96.333 34.167 -121 58.5s-37 55.5 -37 93.5c0 26.667 8 50.834 24 72.501s38.167 38.667 66.5 51s60.166 18.5 95.499 18.5c34.667 0 66.167 -5 94.5 -15zM275.499 -94.002
c10.333 -10 15.501 -22.667 15.501 -38c0 -8 -1.66699 -17.167 -5 -27.5s-10 -25.833 -20 -46.5l-41 -86h-49l30 116c-16 12 -24 26.667 -24 44c0 14.667 5.33301 27.167 16 37.5s23.667 15.5 39 15.5s28.166 -5 38.499 -15z" />
    <glyph glyph-name="uni021A" unicode="&#x21a;" horiz-adv-x="512" 
d="M299 614v-614h-86v614h-198v74h487l-10 -74h-193zM296.5 -94c10.333 -10 15.501 -22.667 15.501 -38c0 -8 -1.66699 -17.167 -5 -27.5s-10 -25.833 -20 -46.5l-41 -86h-49l30 116c-16 12 -24 26.667 -24 44c0 14.667 5.33301 27.167 16 37.5s23.667 15.5 39 15.5
s28.166 -5 38.499 -15z" />
    <glyph glyph-name="uni021B" unicode="&#x21b;" horiz-adv-x="356" 
d="M241 -12c-44 0 -78.165 12.668 -102.498 38.001s-36.5 61.666 -36.5 108.999v326h-91v65h91v121l84 9v-130h127l-9 -65h-118v-322c0 -28 5.16699 -48.5 15.5 -61.5s27.166 -19.5 50.499 -19.5c24 0 48.333 7.66699 73 23l32 -58
c-34.667 -23.333 -73.334 -35 -116.001 -35zM273.502 -93.999c10.333 -10 15.501 -22.667 15.501 -38c0 -8 -1.66699 -17.167 -5 -27.5s-10 -25.833 -20 -46.5l-41 -86h-49l30 116c-16 12 -24 26.667 -24 44c0 14.667 5.33301 27.167 16 37.5s23.667 15.5 39 15.5
s28.166 -5 38.499 -15z" />
    <glyph glyph-name="jdotless" unicode="&#x237;" horiz-adv-x="278" 
d="M163 -86c-11.333 -28.667 -28.167 -52.001 -50.5 -70.001s-53.5 -36 -93.5 -54l-24 61c26 12.667 45.833 24.834 59.5 36.501s24 28 31 49s10.5 50.167 10.5 87.5v502h84v-497c0 -48 -5.66699 -86.333 -17 -115z" />
    <glyph glyph-name="uni02BC" unicode="&#x2bc;" horiz-adv-x="174" 
d="M128.5 733c10.333 -10 15.501 -22.333 15.501 -37c0 -8.66699 -1.66699 -18 -5 -28s-10 -25.667 -20 -47l-40 -87h-49l29 117c-16 12 -24 27 -24 45c0 14.667 5.33301 27 16 37s23.667 15 39 15s28.166 -5 38.499 -15z" />
    <glyph glyph-name="circumflex" unicode="&#x2c6;" horiz-adv-x="383" 
d="M164 789h55l134 -111l-36 -42l-125 84l-126 -84l-36 42z" />
    <glyph glyph-name="caron" unicode="&#x2c7;" horiz-adv-x="383" 
d="M220 628h-55l-135 112l37 41l125 -84l125 84l36 -41z" />
    <glyph glyph-name="breve" unicode="&#x2d8;" horiz-adv-x="353" 
d="M76 679.5c-26.667 23 -42 54.167 -46 93.5l56 12c14 -50 43.667 -75 89 -75c47.333 0 78 25 92 75l56 -12c-4 -39.333 -19.667 -70.5 -47 -93.5s-61 -34.5 -101 -34.5c-39.333 0 -72.333 11.5 -99 34.5z" />
    <glyph glyph-name="dotaccent" unicode="&#x2d9;" horiz-adv-x="179" 
d="M132.5 757.5c11 -11 16.5 -24.833 16.5 -41.5s-5.5 -30.5 -16.5 -41.5s-25.5 -16.5 -43.5 -16.5c-17.333 0 -31.5 5.5 -42.5 16.5s-16.5 24.833 -16.5 41.5s5.5 30.5 16.5 41.5s25.167 16.5 42.5 16.5c18 0 32.5 -5.5 43.5 -16.5z" />
    <glyph glyph-name="ring" unicode="&#x2da;" horiz-adv-x="280" 
d="M219.5 802.5c21 -19.667 31.5 -44.167 31.5 -73.5s-10.5 -53.833 -31.5 -73.5s-47.5 -29.5 -79.5 -29.5s-58.333 9.83301 -79 29.5s-31 44.167 -31 73.5s10.333 53.833 31 73.5s47 29.5 79 29.5s58.5 -9.83301 79.5 -29.5zM101 771c-9.33301 -10 -14.002 -24 -14.002 -42
c0 -17.333 4.66699 -31 14 -41s22.333 -15 39 -15s29.834 5 39.501 15s14.5 23.667 14.5 41c0 18 -4.66699 32 -14 42s-22.666 15 -39.999 15c-16.667 0 -29.667 -5 -39 -15z" />
    <glyph glyph-name="ogonek" unicode="&#x2db;" horiz-adv-x="278" 
d="M95.5 -57.5c-17.667 -17.667 -26.499 -36.833 -26.499 -57.5c0 -32.667 19.333 -49 58 -49c18.667 0 38.667 2.33301 60 7l-8 -65c-23.333 -4.66699 -44 -7 -62 -7c-37.333 0 -67 9.33301 -89 28s-33 42.334 -33 71.001c0 36 15 67 45 93s76 48.667 138 68l14 -31
c-46.667 -20.667 -78.834 -39.834 -96.501 -57.501z" />
    <glyph glyph-name="tilde" unicode="&#x2dc;" horiz-adv-x="386" 
d="M216 666.5c-11.333 5 -23.333 11.833 -36 20.5c-9.33301 6.66699 -17.333 11.5 -24 14.5s-13.667 4.5 -21 4.5c-11.333 0 -20.833 -3.5 -28.5 -10.5s-16.167 -18.5 -25.5 -34.5l-51 26c27.333 55.333 62.666 83 105.999 83c12.667 0.666992 24 -1.33301 34 -6
s21.333 -11.334 34 -20.001c10.667 -7.33301 19.334 -12.666 26.001 -15.999s13.667 -5 21 -5c10 0 19 3.5 27 10.5s17 18.167 27 33.5l51 -26c-12 -27.333 -27 -48 -45 -62s-37 -21 -57 -21c-14 0.666992 -26.667 3.5 -38 8.5z" />
    <glyph glyph-name="hungarumlaut" unicode="&#x2dd;" horiz-adv-x="353" 
d="M220 636l-53 23l84 168l72 -38zM83 641l-53 23l75 163l72 -38z" />
    <glyph glyph-name="gravecomb" unicode="&#x300;" horiz-adv-x="0" 
d="M251 630l-212 78l36 72l198 -105z" />
    <glyph glyph-name="acutecomb" unicode="&#x301;" horiz-adv-x="0" 
d="M61 630l-22 45l197 105l37 -72z" />
    <glyph glyph-name="uni0302" unicode="&#x302;" horiz-adv-x="0" 
d="M76 634l-37 41l135 108h55l133 -108l-36 -41l-125 81z" />
    <glyph glyph-name="tildecomb" unicode="&#x303;" horiz-adv-x="0" 
d="M225 666.5c-11.333 5 -23.3311 11.833 -35.998 20.5c-11.333 6.66699 -19.833 11.5 -25.5 14.5s-12.167 4.5 -19.5 4.5c-11.333 0 -20.833 -3.5 -28.5 -10.5s-16.167 -18.5 -25.5 -34.5l-51 26c27.333 56 62.666 84 105.999 84c12.667 0 24 -2.33301 34 -7
s21.333 -11.334 34 -20.001c10 -7.33301 18.667 -12.666 26 -15.999s14.666 -5 21.999 -5c10 0 19 3.5 27 10.5s16.667 18.167 26 33.5l51 -26c-12 -26.667 -26.833 -47 -44.5 -61s-36.5 -21 -56.5 -21c-14.667 0 -27.667 2.5 -39 7.5z" />
    <glyph glyph-name="uni0304" unicode="&#x304;" horiz-adv-x="0" 
d="M39 733h266v-64h-266v64z" />
    <glyph glyph-name="uni0306" unicode="&#x306;" horiz-adv-x="0" 
d="M85.5 666.5c-27 21.667 -42.501 49.834 -46.501 84.501l56 12c15.333 -43.333 45 -65 89 -65c22.667 0 41.834 5.83301 57.501 17.5s27.167 27.5 34.5 47.5l56 -12c-4 -34.667 -19.667 -62.834 -47 -84.501s-61 -32.5 -101 -32.5c-38.667 0 -71.5 10.833 -98.5 32.5z" />
    <glyph glyph-name="uni0307" unicode="&#x307;" horiz-adv-x="0" 
d="M141.5 757.5c11 -11 16.5 -24.832 16.5 -41.499s-5.5 -30.334 -16.5 -41.001s-25.5 -16 -43.5 -16c-17.333 0 -31.5 5.5 -42.5 16.5s-16.5 24.5 -16.5 40.5c0 16.667 5.5 30.5 16.5 41.5s25.167 16.5 42.5 16.5c18 0 32.5 -5.5 43.5 -16.5z" />
    <glyph glyph-name="uni0308" unicode="&#x308;" horiz-adv-x="0" 
d="M131 747c10 -10 15 -22.667 15 -38c0 -14.667 -5.16699 -27.167 -15.5 -37.5s-22.833 -15.5 -37.5 -15.5c-15.333 0 -28.166 5.16699 -38.499 15.5s-15.5 22.833 -15.5 37.5c0 15.333 5.16699 28 15.5 38s23.166 15 38.499 15s28 -5 38 -15zM335.5 747
c10.333 -10 15.5 -22.667 15.5 -38c0 -14.667 -5.16699 -27.167 -15.5 -37.5s-23.166 -15.5 -38.499 -15.5c-14.667 0 -27.167 5.16699 -37.5 15.5s-15.5 22.833 -15.5 37.5c0 15.333 5.16699 28 15.5 38s22.833 15 37.5 15c15.333 0 28.166 -5 38.499 -15z" />
    <glyph glyph-name="uni030A" unicode="&#x30a;" horiz-adv-x="0" 
d="M229 803c20.667 -20 31 -44.667 31 -74c0 -28.667 -10.333 -53 -31 -73s-47 -30 -79 -30s-58.5 10 -79.5 30s-31.5 44.333 -31.5 73c0 29.333 10.5 54 31.5 74s47.5 30 79.5 30s58.333 -10 79 -30zM110 771c-9.33301 -10 -14.002 -24 -14.002 -42
c0 -17.333 4.83301 -31 14.5 -41s22.834 -15 39.501 -15c16 0 28.833 5 38.5 15s14.5 23.667 14.5 41c0 18 -4.66699 32 -14 42s-22.333 15 -39 15c-17.333 0 -30.666 -5 -39.999 -15z" />
    <glyph glyph-name="uni030B" unicode="&#x30b;" horiz-adv-x="0" 
d="M93 641l-54 23l75 163l72 -38zM230 636l-54 23l85 168l72 -37z" />
    <glyph glyph-name="uni030C" unicode="&#x30c;" horiz-adv-x="0" 
d="M229 629h-55l-135 107l37 42l125 -81l125 81l36 -42z" />
    <glyph glyph-name="uni0313" unicode="&#x313;" horiz-adv-x="0" 
d="M131.5 764c10.333 -10 15.501 -22.667 15.501 -38c0 -8 -1.66699 -17.167 -5 -27.5s-10 -25.833 -20 -46.5l-41 -86h-49l30 116c-16 12 -24 26.667 -24 44c0 14.667 5.33301 27.167 16 37.5s23.667 15.5 39 15.5s28.166 -5 38.499 -15z" />
    <glyph glyph-name="uni0314" unicode="&#x314;" horiz-adv-x="0" 
d="M-0.5 596c-10.333 10 -15.501 22.667 -15.501 38c0 8 1.66699 17.167 5 27.5s10 25.833 20 46.5l41 86h49l-30 -116c16 -12 24 -26.667 24 -44c0 -14.667 -5.33301 -27.167 -16 -37.5s-23.667 -15.5 -39 -15.5s-28.166 5 -38.499 15z" />
    <glyph glyph-name="uni0326" unicode="&#x326;" horiz-adv-x="0" 
d="M128.5 -94c10.333 -10 15.501 -22.667 15.501 -38c0 -8 -1.66699 -17.167 -5 -27.5s-10 -25.833 -20 -46.5l-41 -86h-49l30 116c-16 12 -24 26.667 -24 44c0 14.667 5.33301 27.167 16 37.5s23.667 15.5 39 15.5s28.166 -5 38.499 -15z" />
    <glyph glyph-name="uni0327" unicode="&#x327;" horiz-adv-x="0" 
d="M215.5 -85c15 -15.333 22.501 -34 22.501 -56c0 -30.667 -11.333 -54.5 -34 -71.5s-51.334 -25.5 -86.001 -25.5c-37.333 0 -66.666 8 -87.999 24l23 48c20 -10.667 41 -16 63 -16c15.333 0 27.666 3.33301 36.999 10s14 17 14 31c0 14.667 -7 25.5 -21 32.5
s-36.667 10.5 -68 10.5l13 114h54v-74c32 -2.66699 55.5 -11.667 70.5 -27z" />
    <glyph glyph-name="tonos" unicode="&#x384;" horiz-adv-x="188" 
d="M93 596l-63 10l36 197l92 -17z" />
    <glyph glyph-name="dieresistonos" unicode="&#x385;" horiz-adv-x="389" 
d="M225 726l-62 9l29 172l92 -17zM122 716c10 -10 15 -22.667 15 -38c0 -14.667 -5 -27 -15 -37s-22.667 -15 -38 -15s-28.166 5 -38.499 15s-15.5 22.333 -15.5 37c0 15.333 5.16699 28 15.5 38s23.166 15 38.499 15s28 -5 38 -15zM344 716c10 -10 15 -22.667 15 -38
c0 -14.667 -5 -27 -15 -37s-22.667 -15 -38 -15s-28 5 -38 15s-15 22.333 -15 37c0 15.333 5 28 15 38s22.667 15 38 15s28 -5 38 -15z" />
    <glyph glyph-name="Alphatonos" unicode="&#x386;" horiz-adv-x="571" 
d="M150 176l-54 -176h-88l223 688h110l222 -688h-92l-53 176h-268zM284 616l-112 -369h224zM64 498l-63 10l36 197l97 -17z" />
    <glyph glyph-name="Epsilontonos" unicode="&#x388;" horiz-adv-x="530" 
d="M189 618v-232h235v-70h-235v-246h288v-70h-374v688h367l-10 -70h-271zM11 498l-63 10l36 197l97 -17z" />
    <glyph glyph-name="Etatonos" unicode="&#x389;" horiz-adv-x="678" 
d="M189 326v-326h-86v688h86v-290h299v290h87v-688h-87v326h-299zM11 498l-63 10l36 197l97 -17z" />
    <glyph glyph-name="Iotatonos" unicode="&#x38a;" horiz-adv-x="293" 
d="M103 0v688h87v-688h-87zM11 498l-63 10l36 197l97 -17z" />
    <glyph glyph-name="Omicrontonos" unicode="&#x38c;" horiz-adv-x="692" 
d="M497 658.5c43.333 -27.667 76.998 -68.167 100.998 -121.5s36 -118 36 -194c0 -74.667 -12 -138.667 -36 -192s-57.667 -93.833 -101 -121.5s-93.666 -41.5 -150.999 -41.5s-107.666 13.667 -150.999 41s-77 67.5 -101 120.5s-36 117.167 -36 192.5c0 74 12 138 36 192
s57.833 95.167 101.5 123.5s93.834 42.5 150.501 42.5c57.333 0 107.666 -13.833 150.999 -41.5zM201.998 558c-34.667 -46.667 -52 -118.666 -52 -215.999c0 -96 17.5 -167 52.5 -213s82.833 -69 143.5 -69c62.667 0 111 22.833 145 68.5s51 117.167 51 214.5
s-17 169.166 -51 215.499s-82.333 69.5 -145 69.5c-61.333 0 -109.333 -23.333 -144 -70zM31.998 498.001l-63 10l36 197l97 -17z" />
    <glyph glyph-name="Upsilontonos" unicode="&#x38e;" horiz-adv-x="544" 
d="M316 0h-88v265l-221 423h96l172 -347l171 347h91l-221 -422v-266zM-73 498l-63 10l36 197l97 -17z" />
    <glyph glyph-name="Omegatonos" unicode="&#x38f;" horiz-adv-x="692" 
d="M498.5 659.5c43 -27 76.333 -66.666 100 -118.999s35.5 -115.166 35.5 -188.499s-10.167 -131.333 -30.5 -174s-55.166 -77.334 -104.499 -104.001h113v-74h-211v73c48 17.333 83.5 48.333 106.5 93s34.5 106.667 34.5 186c0 93.333 -17 162.666 -51 207.999
s-82.333 68 -145 68c-61.333 0 -109.333 -22.833 -144 -68.5s-52 -115.167 -52 -208.5c0 -82 11.5 -144.333 34.5 -187s58.167 -73 105.5 -91v-73h-211v74h107c-45.333 24 -78 57.667 -98 101s-30 102 -30 176c0 71.333 12.167 133.333 36.5 186s58.166 93 101.499 121
s93.333 42 150 42c58.667 0 109.5 -13.5 152.5 -40.5zM32 498.001l-63 10l36 197l97 -17z" />
    <glyph glyph-name="iotadieresistonos" unicode="&#x390;" horiz-adv-x="273" 
d="M187 81.5c6.66699 -11.667 18.667 -21.5 36 -29.5l-27 -63c-38.667 8.66699 -65.5 23.5 -80.5 44.5s-22.5 52.167 -22.5 93.5v399h84v-389c0 -25.333 3.33301 -43.833 10 -55.5zM165 726l-62 9l29 172l92 -17zM62 716c10 -10 15 -22.667 15 -38c0 -14.667 -5 -27 -15 -37
s-22.667 -15 -38 -15s-28.166 5 -38.499 15s-15.5 22.333 -15.5 37c0 15.333 5.16699 28 15.5 38s23.166 15 38.499 15s28 -5 38 -15zM284 716c10 -10 15 -22.667 15 -38c0 -14.667 -5 -27 -15 -37s-22.667 -15 -38 -15s-28 5 -38 15s-15 22.333 -15 37c0 15.333 5 28 15 38
s22.667 15 38 15s28 -5 38 -15z" />
    <glyph glyph-name="Alpha" unicode="&#x391;" horiz-adv-x="571" 
d="M150 176l-54 -176h-88l223 688h110l222 -688h-92l-53 176h-268zM284 616l-112 -369h224z" />
    <glyph glyph-name="Beta" unicode="&#x392;" horiz-adv-x="606" 
d="M559 195c0 -130 -89 -195.002 -267 -195.002h-189v688h160c85.333 0 150.833 -14.333 196.5 -43s68.5 -72 68.5 -130c0 -40.667 -12.167 -74.167 -36.5 -100.5s-54.833 -43.166 -91.5 -50.499c106 -17.333 159 -73.666 159 -168.999zM189 393.998h111.999
c40.667 0 73.834 10 99.501 30s38.5 48.333 38.5 85c0 40.667 -13.833 69.167 -41.5 85.5s-69.5 24.5 -125.5 24.5h-83v-225zM421.999 96.998c30 18 45 50.667 45 98c0 46 -14.5 79.5 -43.5 100.5s-66.833 31.5 -113.5 31.5h-121v-257h103c56.667 0 100 9 130 27z" />
    <glyph glyph-name="Gamma" unicode="&#x393;" horiz-adv-x="508" 
d="M189 613v-613h-86v688h395l-13 -75h-296z" />
    <glyph glyph-name="Delta" unicode="&#x394;" horiz-adv-x="581" 
d="M8 0l228 688h110l227 -688h-565zM460 72l-171 543l-172 -543h343z" />
    <glyph glyph-name="Epsilon" unicode="&#x395;" horiz-adv-x="530" 
d="M189 618v-232h235v-70h-235v-246h288v-70h-374v688h367l-10 -70h-271z" />
    <glyph glyph-name="Zeta" unicode="&#x396;" horiz-adv-x="521" 
d="M128 74h345l-10 -74h-432v70l350 545h-313v73h407v-70z" />
    <glyph glyph-name="Eta" unicode="&#x397;" horiz-adv-x="678" 
d="M189 326v-326h-86v688h86v-290h299v290h87v-688h-87v326h-299z" />
    <glyph glyph-name="Theta" unicode="&#x398;" horiz-adv-x="692" 
d="M497 658.5c43.333 -27.667 76.998 -68.167 100.998 -121.5s36 -118 36 -194c0 -74.667 -12 -138.667 -36 -192s-57.667 -93.833 -101 -121.5s-93.666 -41.5 -150.999 -41.5s-107.666 13.667 -150.999 41s-77 67.5 -101 120.5s-36 117.167 -36 192.5c0 74 12 138 36 192
s57.833 95.167 101.5 123.5s93.834 42.5 150.501 42.5c57.333 0 107.666 -13.833 150.999 -41.5zM201.998 558c-34.667 -46.667 -52 -118.666 -52 -215.999c0 -96 17.5 -167 52.5 -213s82.833 -69 143.5 -69c62.667 0 111 22.833 145 68.5s51 117.167 51 214.5
s-17 169.166 -51 215.499s-82.333 69.5 -145 69.5c-61.333 0 -109.333 -23.333 -144 -70zM223.998 318.001v68h243v-68h-243z" />
    <glyph glyph-name="Iota" unicode="&#x399;" horiz-adv-x="293" 
d="M103 0v688h87v-688h-87z" />
    <glyph glyph-name="Kappa" unicode="&#x39a;" horiz-adv-x="579" 
d="M103 0v688h86v-688h-86zM579 0h-107l-278 368l268 320h99l-267 -315z" />
    <glyph glyph-name="Lambda" unicode="&#x39b;" horiz-adv-x="571" 
d="M471 0l-187 616l-188 -616h-88l223 688h110l222 -688h-92z" />
    <glyph glyph-name="Mu" unicode="&#x39c;" horiz-adv-x="792" 
d="M629 0l-26.002 315c-11.333 126 -17.666 221 -18.999 285l-155 -521h-81l-162 522c-1.33301 -85.333 -6.66602 -182.333 -15.999 -291l-24 -310h-82l58 688h118l151 -509l144 509h118l60 -688h-84z" />
    <glyph glyph-name="Nu" unicode="&#x39d;" horiz-adv-x="681" 
d="M462 0l-290 592.999c8 -88 12 -175 12 -261v-332h-81v688h113l292 -594c-2 19.333 -4.33301 49.833 -7 91.5s-4 80.834 -4 117.501v385h81v-688h-116z" />
    <glyph glyph-name="Xi" unicode="&#x39e;" horiz-adv-x="508" 
d="M46 609v79h407l-12 -79h-395zM107 312v78h287v-78h-287zM46 0v81h415v-81h-415z" />
    <glyph glyph-name="Omicron" unicode="&#x39f;" horiz-adv-x="692" 
d="M497 658.5c43.333 -27.667 76.998 -68.167 100.998 -121.5s36 -118 36 -194c0 -74.667 -12 -138.667 -36 -192s-57.667 -93.833 -101 -121.5s-93.666 -41.5 -150.999 -41.5s-107.666 13.667 -150.999 41s-77 67.5 -101 120.5s-36 117.167 -36 192.5c0 74 12 138 36 192
s57.833 95.167 101.5 123.5s93.834 42.5 150.501 42.5c57.333 0 107.666 -13.833 150.999 -41.5zM201.998 558c-34.667 -46.667 -52 -118.666 -52 -215.999c0 -96 17.5 -167 52.5 -213s82.833 -69 143.5 -69c62.667 0 111 22.833 145 68.5s51 117.167 51 214.5
s-17 169.166 -51 215.499s-82.333 69.5 -145 69.5c-61.333 0 -109.333 -23.333 -144 -70z" />
    <glyph glyph-name="Pi" unicode="&#x3a0;" horiz-adv-x="673" 
d="M483 0v614h-294v-614h-86v688h467v-688h-87z" />
    <glyph glyph-name="Rho" unicode="&#x3a1;" horiz-adv-x="578" 
d="M474 635.5c46 -35 69 -87.833 69 -158.5c0 -74.667 -24 -130.167 -72 -166.5s-112 -54.5 -192 -54.5h-90v-256h-86v688h176c84 0 149 -17.5 195 -52.5zM406.5 358.5c29.667 22.333 44.5 61.499 44.5 117.499c0 50.667 -14.833 87.334 -44.5 110.001s-72.5 34 -128.5 34
h-89v-295h87c57.333 0 100.833 11.167 130.5 33.5z" />
    <glyph glyph-name="Sigma" unicode="&#x3a3;" horiz-adv-x="501" 
d="M140 616l204 -247v-56l-204 -241h320v-72h-419v70l224 269l-224 279v70h419v-72h-320z" />
    <glyph glyph-name="Tau" unicode="&#x3a4;" horiz-adv-x="512" 
d="M299 614v-614h-86v614h-198v74h487l-10 -74h-193z" />
    <glyph glyph-name="Upsilon" unicode="&#x3a5;" horiz-adv-x="544" 
d="M316 0h-88v265l-221 423h96l172 -347l171 347h91l-221 -422v-266z" />
    <glyph glyph-name="Phi" unicode="&#x3a6;" horiz-adv-x="805" 
d="M683.5 144.5c-57 -47.667 -136.501 -72.8311 -238.501 -75.498v-69h-84v69c-105.333 4 -185.833 30.333 -241.5 79s-83.5 114 -83.5 196c0 85.333 28.667 151.666 86 198.999s137 72.333 239 75v70h84v-70c104.667 -4.66699 184.834 -31 240.501 -79
s83.5 -112.333 83.5 -193c0 -86.667 -28.5 -153.834 -85.5 -201.501zM185.499 191.503c39.667 -35.667 98.833 -54.833 177.5 -57.5v420c-80 -5.33301 -139.5 -25 -178.5 -59s-58.5 -84.333 -58.5 -151c0 -66 19.833 -116.833 59.5 -152.5zM621.498 191.504
c39 34.333 58.5 85.833 58.5 154.5c0 64.667 -20 114.5 -60 149.5s-99 53.833 -177 56.5v-419c80 4.66699 139.5 24.167 178.5 58.5z" />
    <glyph glyph-name="Chi" unicode="&#x3a7;" horiz-adv-x="533" 
d="M429 0l-164 311l-165 -311h-94l208 367l-189 321h98l144 -263l143 263h93l-186 -316l211 -372h-99z" />
    <glyph glyph-name="Psi" unicode="&#x3a8;" horiz-adv-x="688" 
d="M652 429c0 -72.667 -22.667 -128.332 -68 -166.999s-111 -61.334 -197 -68.001v-194h-87v194c-88 6.66699 -154 29.5 -198 68.5s-66 93.5 -66 163.5v262h86v-256c0 -54 14.5 -94.5 43.5 -121.5s74.5 -42.167 136.5 -45.5v423h83v-423c62 4 107.667 19.333 137 46
s44 67 44 121v256h86v-259z" />
    <glyph glyph-name="Omega" unicode="&#x3a9;" horiz-adv-x="692" 
d="M498.5 659.5c43 -27 76.333 -66.666 100 -118.999s35.5 -115.166 35.5 -188.499s-10.167 -131.333 -30.5 -174s-55.166 -77.334 -104.499 -104.001h113v-74h-211v73c48 17.333 83.5 48.333 106.5 93s34.5 106.667 34.5 186c0 93.333 -17 162.666 -51 207.999
s-82.333 68 -145 68c-61.333 0 -109.333 -22.833 -144 -68.5s-52 -115.167 -52 -208.5c0 -82 11.5 -144.333 34.5 -187s58.167 -73 105.5 -91v-73h-211v74h107c-45.333 24 -78 57.667 -98 101s-30 102 -30 176c0 71.333 12.167 133.333 36.5 186s58.166 93 101.499 121
s93.333 42 150 42c58.667 0 109.5 -13.5 152.5 -40.5z" />
    <glyph glyph-name="Iotadieresis" unicode="&#x3aa;" horiz-adv-x="293" 
d="M103 0v688h87v-688h-87zM82 873c10 -10 15 -22.667 15 -38c0 -14.667 -5.16699 -27.167 -15.5 -37.5s-22.833 -15.5 -37.5 -15.5c-15.333 0 -28.166 5.16699 -38.499 15.5s-15.5 22.833 -15.5 37.5c0 15.333 5.16699 28 15.5 38s23.166 15 38.499 15s28 -5 38 -15z
M286.5 873c10.333 -10 15.5 -22.667 15.5 -38c0 -14.667 -5.16699 -27.167 -15.5 -37.5s-23.166 -15.5 -38.499 -15.5c-14.667 0 -27.167 5.16699 -37.5 15.5s-15.5 22.833 -15.5 37.5c0 15.333 5.16699 28 15.5 38s22.833 15 37.5 15c15.333 0 28.166 -5 38.499 -15z" />
    <glyph glyph-name="Upsilondieresis" unicode="&#x3ab;" horiz-adv-x="544" 
d="M316 0h-88v265l-221 423h96l172 -347l171 347h91l-221 -422v-266zM209 873c10 -10 15 -22.667 15 -38c0 -14.667 -5.16699 -27.167 -15.5 -37.5s-22.833 -15.5 -37.5 -15.5c-15.333 0 -28.166 5.16699 -38.499 15.5s-15.5 22.833 -15.5 37.5c0 15.333 5.16699 28 15.5 38
s23.166 15 38.499 15s28 -5 38 -15zM413.5 873c10.333 -10 15.5 -22.667 15.5 -38c0 -14.667 -5.16699 -27.167 -15.5 -37.5s-23.166 -15.5 -38.499 -15.5c-14.667 0 -27.167 5.16699 -37.5 15.5s-15.5 22.833 -15.5 37.5c0 15.333 5.16699 28 15.5 38s22.833 15 37.5 15
c15.333 0 28.166 -5 38.499 -15z" />
    <glyph glyph-name="alphatonos" unicode="&#x3ac;" horiz-adv-x="593" 
d="M367 499.5c26.667 -25.667 45.333 -69.5 56 -131.5l30 158h77l-56 -273l27 -143c2.66699 -14 7.33398 -25 14.001 -33s17 -14.333 31 -19l-29 -70c-22.667 4 -42.334 13.667 -59.001 29s-27 36 -31 62l-10 68c-32 -106 -87.667 -159 -167 -159
c-60.667 0 -107.5 23 -140.5 69s-49.5 113.667 -49.5 203c0 83.333 17 150.5 51 201.5s82.333 76.5 145 76.5c47.333 0 84.333 -12.833 111 -38.5zM178.999 416.5c-20 -36.333 -29.998 -88.501 -29.998 -156.501c0 -136.667 36.667 -205 110 -205
c30 0 57.167 15.333 81.5 46s44.166 86 59.499 166c-9.33301 52.667 -20.333 93.834 -33 123.501s-27.334 50.5 -44.001 62.5s-36.667 18 -60 18c-36 0 -64 -18.167 -84 -54.5zM309.001 595.999l-63 10l36 197l92 -17z" />
    <glyph glyph-name="epsilontonos" unicode="&#x3ad;" horiz-adv-x="466" 
d="M431 489l-42 -51.001c-18.667 11.333 -37.167 19.833 -55.5 25.5s-39.5 8.5 -63.5 8.5c-33.333 0 -59 -7.16699 -77 -21.5s-27 -34.833 -27 -61.5c0 -24.667 9.83301 -44.334 29.5 -59.001s46.167 -22 79.5 -22h61l-11 -66h-56c-42 0 -72.167 -7.16699 -90.5 -21.5
s-27.5 -38.166 -27.5 -71.499c0 -28 10.167 -50.5 30.5 -67.5s48.833 -25.5 85.5 -25.5c26.667 0 50.667 4 72 12s44.666 20 69.999 36l40 -54c-24.667 -19.333 -53 -34.5 -85 -45.5s-66 -16.5 -102 -16.5c-61.333 0 -110.5 13.833 -147.5 41.5s-55.5 65.5 -55.5 113.5
c0 43.333 11.5 75.833 34.5 97.5s55.5 34.834 97.5 39.501c-35.333 6.66699 -62.666 20.5 -81.999 41.5s-29 46.5 -29 76.5c0 43.333 16.5 77.5 49.5 102.5s77.167 37.5 132.5 37.5c66 0 122.333 -16.333 169 -49zM290 595.999l-63 10l36 197l92 -17z" />
    <glyph glyph-name="etatonos" unicode="&#x3ae;" horiz-adv-x="591" 
d="M458.5 495.5c26.333 -28.333 39.499 -67.833 39.499 -118.5v-588l-84 10v566c0 38.667 -7.16699 66.167 -21.5 82.5s-35.833 24.5 -64.5 24.5c-29.333 0 -55.166 -8.33301 -77.499 -25s-43.5 -40.667 -63.5 -72v-375h-84v357c0 34.667 -2.16699 65 -6.5 91
s-10.5 52 -18.5 78l76 11c12 -23.333 20.667 -55 26 -95c20 30 44.167 53.5 72.5 70.5s59.833 25.5 94.5 25.5c48 0 85.167 -14.167 111.5 -42.5zM323.999 596l-63 10l36 197l92 -17z" />
    <glyph glyph-name="iotatonos" unicode="&#x3af;" horiz-adv-x="273" 
d="M187 81.5c6.66699 -11.667 18.667 -21.5 36 -29.5l-27 -63c-38.667 8.66699 -65.5 23.5 -80.5 44.5s-22.5 52.167 -22.5 93.5v399h84v-389c0 -25.333 3.33301 -43.833 10 -55.5zM166 596l-63 10l36 197l92 -17z" />
    <glyph glyph-name="upsilondieresistonos" unicode="&#x3b0;" horiz-adv-x="569" 
d="M490.5 390.5c4.33301 -42.333 6.50195 -87.168 6.50195 -134.501c0 -60 -10.833 -110 -32.5 -150s-49.834 -69.667 -84.501 -89s-71.667 -29 -111 -29c-52 0 -94.333 15 -127 45s-49 73 -49 129v364h84v-357c0 -37.333 8.66699 -65.5 26 -84.5s40.666 -28.5 69.999 -28.5
c22.667 0 44.5 6.5 65.5 19.5s38.5 35 52.5 66s21 71.5 21 121.5c0 82.667 -8.66699 170.334 -26 263.001h85c8.66699 -48 15.167 -93.167 19.5 -135.5zM317.002 725.998l-62 9l29 172l92 -17zM214.002 715.998c10 -10 15 -22.667 15 -38c0 -14.667 -5 -27 -15 -37
s-22.667 -15 -38 -15s-28.166 5 -38.499 15s-15.5 22.333 -15.5 37c0 15.333 5.16699 28 15.5 38s23.166 15 38.499 15s28 -5 38 -15zM436.002 715.998c10 -10 15 -22.667 15 -38c0 -14.667 -5 -27 -15 -37s-22.667 -15 -38 -15s-28 5 -38 15s-15 22.333 -15 37
c0 15.333 5 28 15 38s22.667 15 38 15s28 -5 38 -15z" />
    <glyph glyph-name="alpha" unicode="&#x3b1;" horiz-adv-x="593" 
d="M367 499.5c26.667 -25.667 45.333 -69.5 56 -131.5l30 158h77l-56 -273l27 -143c2.66699 -14 7.33398 -25 14.001 -33s17 -14.333 31 -19l-29 -70c-22.667 4 -42.334 13.667 -59.001 29s-27 36 -31 62l-10 68c-32 -106 -87.667 -159 -167 -159
c-60.667 0 -107.5 23 -140.5 69s-49.5 113.667 -49.5 203c0 83.333 17 150.5 51 201.5s82.333 76.5 145 76.5c47.333 0 84.333 -12.833 111 -38.5zM178.999 416.5c-20 -36.333 -29.998 -88.501 -29.998 -156.501c0 -136.667 36.667 -205 110 -205
c30 0 57.167 15.333 81.5 46s44.166 86 59.499 166c-9.33301 52.667 -20.333 93.834 -33 123.501s-27.334 50.5 -44.001 62.5s-36.667 18 -60 18c-36 0 -64 -18.167 -84 -54.5z" />
    <glyph glyph-name="beta" unicode="&#x3b2;" horiz-adv-x="599" 
d="M494 350c38.667 -30.667 57.998 -80 57.998 -148c0 -42.667 -10 -80.167 -30 -112.5s-46.667 -57.333 -80 -75s-69.666 -26.5 -108.999 -26.5c-56 0 -106.333 18 -151 54v-242l-84 -12v753c0 64.667 18 115.334 54 152.001s85 55 147 55c36.667 0 70.167 -7 100.5 -21
s54.5 -34.5 72.5 -61.5s27 -58.5 27 -94.5c0 -49.333 -13.833 -88 -41.5 -116s-64.167 -45.333 -109.5 -52c58.667 -4.66699 107.334 -22.334 146.001 -53.001zM425.998 95c27.333 26 40.668 62 40.001 108c0 53.333 -15.5 93.833 -46.5 121.5s-75.5 41.5 -133.5 41.5h-51
l10 64h48c36 0 66 10.833 90 32.5s36 55.167 36 100.5c0 39.333 -11 69 -33 89s-50.667 30 -86 30c-78.667 0 -118 -47 -118 -141v-432c18.667 -18.667 39.167 -32.167 61.5 -40.5s48.833 -12.5 79.5 -12.5c41.333 0 75.666 13 102.999 39z" />
    <glyph glyph-name="gamma" unicode="&#x3b3;" horiz-adv-x="477" 
d="M163 371.5c29.333 -73 54.333 -161.167 75 -264.5l143 429l85 -17l-189 -498c-16.667 -44 -25 -86 -25 -126c0 -24 3.33301 -56 10 -96l-67 -13c-19.333 40.667 -29 78 -29 112c0 32 8.66699 69.333 26 112c-38.667 140 -72.667 248.5 -102 325.5s-60 133.833 -92 170.5
l79 30c28 -36.667 56.667 -91.5 86 -164.5z" />
    <glyph glyph-name="delta" unicode="&#x3b4;" horiz-adv-x="576" 
d="M471.5 399.5c31 -38.333 46.501 -90.8311 46.501 -157.498c0 -46.667 -9.16699 -89.334 -27.5 -128.001s-44.833 -69.334 -79.5 -92.001s-75.667 -34 -123 -34c-70 0 -125.667 22.333 -167 67s-62 106 -62 184c0 106.667 50.667 184.334 152 233.001
c-35.333 18 -60.333 38.167 -75 60.5s-22 49.166 -22 80.499c0 24 6.83301 46.333 20.5 67s33.5 37.167 59.5 49.5s57 18.5 93 18.5s67.667 -4.33301 95 -13s54 -21.667 80 -39l-43 -53c-21.333 14 -41.333 24 -60 30s-39.334 9 -62.001 9c-32.667 0 -57 -6.83301 -73 -20.5
s-24 -31.167 -24 -52.5c0 -16 3.33301 -29.5 10 -40.5s18.667 -21.667 36 -32s43.333 -22.833 78 -37.5c67.333 -28 116.5 -61.167 147.5 -99.5zM391.501 103.502c23.667 31.667 35.5 77.8311 35.5 138.498c0 36.667 -5 67.167 -15 91.5s-26.5 45.5 -49.5 63.5
s-55.5 35.333 -97.5 52c-38 -22 -66.833 -49.667 -86.5 -83s-29.5 -75.666 -29.5 -126.999c0 -59.333 11.667 -104.666 35 -135.999s58 -47 104 -47c45.333 0 79.833 15.833 103.5 47.5z" />
    <glyph glyph-name="epsilon" unicode="&#x3b5;" horiz-adv-x="466" 
d="M431 489l-42 -51.001c-18.667 11.333 -37.167 19.833 -55.5 25.5s-39.5 8.5 -63.5 8.5c-33.333 0 -59 -7.16699 -77 -21.5s-27 -34.833 -27 -61.5c0 -24.667 9.83301 -44.334 29.5 -59.001s46.167 -22 79.5 -22h61l-11 -66h-56c-42 0 -72.167 -7.16699 -90.5 -21.5
s-27.5 -38.166 -27.5 -71.499c0 -28 10.167 -50.5 30.5 -67.5s48.833 -25.5 85.5 -25.5c26.667 0 50.667 4 72 12s44.666 20 69.999 36l40 -54c-24.667 -19.333 -53 -34.5 -85 -45.5s-66 -16.5 -102 -16.5c-61.333 0 -110.5 13.833 -147.5 41.5s-55.5 65.5 -55.5 113.5
c0 43.333 11.5 75.833 34.5 97.5s55.5 34.834 97.5 39.501c-35.333 6.66699 -62.666 20.5 -81.999 41.5s-29 46.5 -29 76.5c0 43.333 16.5 77.5 49.5 102.5s77.167 37.5 132.5 37.5c66 0 122.333 -16.333 169 -49z" />
    <glyph glyph-name="zeta" unicode="&#x3b6;" horiz-adv-x="385" 
d="M198.5 453c-45 -68 -67.5059 -134.332 -67.5059 -198.999c0 -32 4.33301 -57.833 13 -77.5s21.834 -35.834 39.501 -48.501s42.834 -25 75.501 -37c32.667 -12.667 59 -24.5 79 -35.5s35.667 -24.667 47 -41s17 -36.833 17 -61.5c0 -36 -12.167 -66.833 -36.5 -92.5
s-63.166 -50.167 -116.499 -73.5l-36 59c32.667 12.667 57.334 26.5 74.001 41.5s25 33.833 25 56.5c0 14 -3 25.333 -9 34s-16.167 16.667 -30.5 24s-37.166 17.333 -68.499 30c-56 21.333 -97.167 48.5 -123.5 81.5s-39.5 79.833 -39.5 140.5c0 41.333 12 88.5 36 141.5
s58.333 105 103 156s96.334 94.5 155.001 130.5c-21.333 -8 -70 -12 -146 -12h-150l10 68h357l11 -58c-100.667 -83.333 -173.5 -159 -218.5 -227z" />
    <glyph glyph-name="eta" unicode="&#x3b7;" horiz-adv-x="591" 
d="M458.5 495.5c26.333 -28.333 39.499 -67.833 39.499 -118.5v-588l-84 10v566c0 38.667 -7.16699 66.167 -21.5 82.5s-35.833 24.5 -64.5 24.5c-29.333 0 -55.166 -8.33301 -77.499 -25s-43.5 -40.667 -63.5 -72v-375h-84v357c0 34.667 -2.16699 65 -6.5 91
s-10.5 52 -18.5 78l76 11c12 -23.333 20.667 -55 26 -95c20 30 44.167 53.5 72.5 70.5s59.833 25.5 94.5 25.5c48 0 85.167 -14.167 111.5 -42.5z" />
    <glyph glyph-name="theta" unicode="&#x3b8;" horiz-adv-x="571" 
d="M455 649.5c38.667 -65.667 57.999 -158.166 57.999 -277.499c0 -120 -19.667 -214 -59 -282s-95.666 -102 -168.999 -102s-129.333 33.333 -168 100s-58 160.667 -58 282c0 119.333 19.5 212.166 58.5 278.499s95.5 99.5 169.5 99.5c73.333 0 129.333 -32.833 168 -98.5z
M182.999 614.501c-22.667 -43.667 -34.999 -113.834 -36.999 -210.501h280c-2.66699 96.667 -15 166.834 -37 210.501s-56 65.5 -102 65.5c-46.667 0 -81.334 -21.833 -104.001 -65.5zM388.5 121.501c21.667 43.667 33.833 116.167 36.5 217.5h-279
c2.66699 -100.667 15 -173 37 -217s56 -66 102 -66c47.333 0 81.833 21.833 103.5 65.5z" />
    <glyph glyph-name="iota" unicode="&#x3b9;" horiz-adv-x="273" 
d="M187 81.5c6.66699 -11.667 18.667 -21.5 36 -29.5l-27 -63c-38.667 8.66699 -65.5 23.5 -80.5 44.5s-22.5 52.167 -22.5 93.5v399h84v-389c0 -25.333 3.33301 -43.833 10 -55.5z" />
    <glyph glyph-name="kappa" unicode="&#x3ba;" horiz-adv-x="522" 
d="M291 283l140.998 -161l21 -24.5c10.667 -12.333 20.834 -21.833 30.501 -28.5s20.834 -12.667 33.501 -18l-26 -62c-26 6 -47 15 -63 27s-33 28.333 -51 49l-185 215l226 258l71 -37zM177.998 460c6 -29.333 9 -69.333 9 -120v-340h-84v357c0 34.667 -2.16699 65 -6.5 91
s-10.5 52 -18.5 78l76 11c10 -22 18 -47.667 24 -77z" />
    <glyph glyph-name="lambda" unicode="&#x3bb;" horiz-adv-x="485" 
d="M199.5 708c29 -18.667 52.167 -44.001 69.5 -76.001s32.333 -75.667 45 -131c23.333 -102 44.5 -182.833 63.5 -242.5s37.5 -106.5 55.5 -140.5s40 -66.667 66 -98l-85 -31c-24.667 36 -45.5 71.5 -62.5 106.5s-34.167 81.667 -51.5 140s-35 133.5 -53 225.5l-143 -472
l-81 20l170 517h37c-8 33.333 -17.833 60.333 -29.5 81s-27.667 37.334 -48 50.001s-47.833 22 -82.5 28l13 65c48.667 -9.33301 87.5 -23.333 116.5 -42z" />
    <glyph glyph-name="mu" unicode="&#x3bc;" horiz-adv-x="587" 
d="M415 36.5c-3.33301 14.333 -6.00098 32.166 -8.00098 53.499c-16.667 -29.333 -37 -53.666 -61 -72.999s-51.333 -29 -82 -29c-21.333 0 -41 4.33301 -59 13s-31.333 22.334 -40 41.001c6 -20 10.167 -40 12.5 -60s3.5 -44.667 3.5 -74v-109l-83 -10v737h84v-371
c0 -33.333 7.5 -57.333 22.5 -72s35.167 -22 60.5 -22c56 0 100.667 33.667 134 101v364h84v-347c0 -66 9 -126 27 -180l-79 -10c-7.33301 17.333 -12.666 33.166 -15.999 47.499z" />
    <glyph glyph-name="nu" unicode="&#x3bd;" horiz-adv-x="477" 
d="M156 370.5c27.333 -77 54.001 -176.833 80.001 -299.5l147 465l83 -17l-180 -519h-103c-36.667 146.667 -68.667 258.5 -96 335.5s-57 133.833 -89 170.5l79 30c25.333 -33.333 51.666 -88.5 78.999 -165.5z" />
    <glyph glyph-name="xi" unicode="&#x3be;" horiz-adv-x="434" 
d="M367 735c27.333 -8.66699 52.667 -21.999 76 -39.999l-42 -52c-20 13.333 -38.833 23.166 -56.5 29.499s-37.834 9.5 -60.501 9.5c-36.667 0 -63.834 -9 -81.501 -27s-26.5 -42.667 -26.5 -74c0 -33.333 9.83301 -59.333 29.5 -78s46.5 -28 80.5 -28h68l-11 -70h-65
c-41.333 0 -74.333 -13.333 -99 -40s-37 -60.667 -37 -102c0 -30 4.16699 -54.167 12.5 -72.5s22.333 -34 42 -47s49.167 -27.5 88.5 -43.5c39.333 -16.667 69.666 -31.167 90.999 -43.5s37.5 -26.666 48.5 -42.999s16.5 -36.5 16.5 -60.5
c0 -36 -12.167 -66.833 -36.5 -92.5s-63.166 -50.167 -116.499 -73.5l-36 59c32.667 12.667 57.334 26.5 74.001 41.5s25 33.833 25 56.5c0 14 -3.16699 25.5 -9.5 34.5s-17.333 17.833 -33 26.5s-40.167 20 -73.5 34c-42.667 18 -76.667 35.167 -102 51.5
s-45.333 38.166 -60 65.499s-22 62.666 -22 105.999c0 54 15.333 96.333 46 127s68.334 48.667 113.001 54c-80 22 -120 69.667 -120 143c0 30.667 7.5 58.334 22.5 83.001s36.333 44 64 58s59.834 21 96.501 21c35.333 0 66.666 -4.33301 93.999 -13z" />
    <glyph glyph-name="omicron" unicode="&#x3bf;" horiz-adv-x="581" 
d="M461.5 464.5c40.333 -49 60.502 -115.833 60.502 -200.5c0 -84 -20.5 -151 -61.5 -201s-97.833 -75 -170.5 -75s-129.334 24.5 -170.001 73.5s-61 115.833 -61 200.5c0 84 20.5 151 61.5 201s97.833 75 170.5 75c73.333 0 130.166 -24.5 170.499 -73.5zM185.502 418
c-24.333 -34.667 -36.5 -86.667 -36.5 -156c0 -68.667 12 -120.167 36 -154.5s59 -51.5 105 -51.5s81.167 17.333 105.5 52s36.5 86.667 36.5 156c0 68.667 -12 120.167 -36 154.5s-59 51.5 -105 51.5s-81.167 -17.333 -105.5 -52z" />
    <glyph glyph-name="pi" unicode="&#x3c0;" horiz-adv-x="593" 
d="M480 137c0 -26 3.66797 -44.667 11.001 -56s20 -19.333 38 -24l-29 -68c-38.667 8.66699 -65.667 23.5 -81 44.5s-23 52.167 -23 93.5v330h-190v-457h-84v457c-22.667 -0.666992 -39.334 -1.66699 -50.001 -3s-24 -4.33301 -40 -9l-15 66c16.667 6 32 10 46 12s33 3 57 3
h440v-69h-80v-320z" />
    <glyph glyph-name="rho" unicode="&#x3c1;" horiz-adv-x="585" 
d="M522 264c0 -52 -8 -98.832 -24 -140.499s-39.333 -74.667 -70 -99s-67.667 -36.5 -111 -36.5c-61.333 0 -108.333 23 -141 69v-258l-84 -10v485c0 85.333 18 150.666 54 195.999s88.667 68 158 68c145.333 0 218 -91.333 218 -274zM396.5 110.001
c23 35.333 34.501 86.668 34.501 154.001c0 138.667 -43 208 -129 208c-44.667 0 -76.834 -17.667 -96.501 -53s-29.5 -88 -29.5 -158v-129c13.333 -24.667 30.5 -43.334 51.5 -56.001s44.167 -19 69.5 -19c43.333 0 76.5 17.667 99.5 53z" />
    <glyph glyph-name="sigmafinal" unicode="&#x3c2;" horiz-adv-x="466" 
d="M372 525c25.333 -8.66699 49.667 -22.9971 73 -42.9971l-42 -55c-17.333 14 -35 24.333 -53 31s-38 10 -60 10c-44 0 -78.667 -16.833 -104 -50.5s-38 -82.5 -38 -146.5c0 -36 4.16699 -64.5 12.5 -85.5s22 -38.333 41 -52s47.167 -27.834 84.5 -42.501
c32 -12.667 57.667 -24.5 77 -35.5s34.666 -24.667 45.999 -41s17 -36.833 17 -61.5c0 -36 -12.167 -66.833 -36.5 -92.5s-63.166 -50.167 -116.499 -73.5l-36 59c32 13.333 56.5 27.333 73.5 42s25.5 33.334 25.5 56.001c0 14 -3 25.167 -9 33.5s-16 16.166 -30 23.499
s-36 16.666 -66 27.999c-56.667 21.333 -99.5 50.5 -128.5 87.5s-43.5 88.5 -43.5 154.5c0 83.333 20.333 148.666 61 195.999s96.334 71 167.001 71c31.333 0 59.666 -4.33301 84.999 -13z" />
    <glyph glyph-name="sigma" unicode="&#x3c3;" horiz-adv-x="585" 
d="M427 467c28 -16 50.835 -41.666 68.502 -76.999s26.5 -77.333 26.5 -126c0 -84 -20.5 -151 -61.5 -201s-97.833 -75 -170.5 -75s-129.334 24.5 -170.001 73.5s-61 115.833 -61 200.5c0 83.333 21.667 149.166 65 197.499s107.666 72.5 192.999 72.5c66 0 145 -2 237 -6
v-68zM395.502 108.001c24.333 34.667 36.502 86.667 36.502 156c0 49.333 -7.33301 91.5 -22 126.5s-33.334 61.167 -56.001 78.5c-52 0 -92.833 -7 -122.5 -21s-50.834 -36 -63.501 -66s-19 -70 -19 -120c0 -68.667 12 -120.167 36 -154.5s59 -51.5 105 -51.5
s81.167 17.333 105.5 52z" />
    <glyph glyph-name="tau" unicode="&#x3c4;" horiz-adv-x="462" 
d="M271 137c0 -26 3.66699 -44.667 11 -56s20 -19.333 38 -24l-29 -68c-38.667 8.66699 -65.667 23.5 -81 44.5s-23 52.167 -23 93.5v330h-75c-24.667 -0.666992 -42.5 -1.66699 -53.5 -3s-24.833 -4.33301 -41.5 -9l-15 66c16 6 31 10 45 12s33.333 3 58 3h351v-69h-185
v-320z" />
    <glyph glyph-name="upsilon" unicode="&#x3c5;" horiz-adv-x="569" 
d="M490.5 390.5c4.33301 -42.333 6.50195 -87.168 6.50195 -134.501c0 -60 -10.833 -110 -32.5 -150s-49.834 -69.667 -84.501 -89s-71.667 -29 -111 -29c-52 0 -94.333 15 -127 45s-49 73 -49 129v364h84v-357c0 -37.333 8.66699 -65.5 26 -84.5s40.666 -28.5 69.999 -28.5
c22.667 0 44.5 6.5 65.5 19.5s38.5 35 52.5 66s21 71.5 21 121.5c0 82.667 -8.66699 170.334 -26 263.001h85c8.66699 -48 15.167 -93.167 19.5 -135.5z" />
    <glyph glyph-name="phi" unicode="&#x3c6;" horiz-adv-x="731" 
d="M602 63.5c-43.333 -44.333 -110.667 -69.168 -202 -74.501v-190l-81 -10v200c-86.667 4.66699 -150.167 28.167 -190.5 70.5s-60.5 103.5 -60.5 183.5c0 50.667 5.33301 98.5 16 143.5s25 91.5 43 139.5h84c-18 -46.667 -32.333 -92 -43 -136s-16 -91 -16 -141
c0 -66 13.5 -113.833 40.5 -143.5s69.167 -47.167 126.5 -52.5v287c0 64 14.833 113 44.5 147s70.5 51 122.5 51c120.667 0 181 -90.333 181 -271c0 -91.333 -21.667 -159.166 -65 -203.499zM507.999 79.998c26 14.667 44.667 36.833 56 66.5s17 69.5 17 119.5
c0 52 -3.33301 93 -10 123s-16.667 51.333 -30 64s-31.333 19 -54 19c-28 0 -49.5 -9.5 -64.5 -28.5s-22.5 -54.833 -22.5 -107.5v-283c46 3.33301 82 12.333 108 27z" />
    <glyph glyph-name="chi" unicode="&#x3c7;" horiz-adv-x="461" 
d="M368 -209l-139 325.001l-145 -324l-83 10l185 384c-40 89.333 -73.333 156.166 -100 200.499s-56.334 84.166 -89.001 119.499l82 31c28.667 -32.667 54.334 -68.667 77.001 -108s48 -95.666 76 -168.999l116 276l88 -10l-160 -341l177 -383z" />
    <glyph glyph-name="psi" unicode="&#x3c8;" horiz-adv-x="752" 
d="M611 60.5c-45.333 -42.333 -109.999 -66.166 -193.999 -71.499v-190l-81 -10v200c-168.667 6.66699 -253 77.667 -253 213v324h84v-318c0 -48.667 13 -85.334 39 -110.001s69.333 -39 130 -43v471h81v-470c61.333 5.33301 106.166 24.5 134.499 57.5
s42.5 82.833 42.5 149.5c0 86 -8.66699 173.667 -26 263h85c8.66699 -47.333 15.167 -92 19.5 -134s6.5 -87 6.5 -135c0 -88.667 -22.667 -154.167 -68 -196.5z" />
    <glyph glyph-name="omega" unicode="&#x3c9;" horiz-adv-x="777" 
d="M692.5 390c11 -46.667 16.5 -97.333 16.5 -152c0 -84.667 -17.167 -147.5 -51.5 -188.5s-78.166 -61.5 -131.499 -61.5c-37.333 0 -68 10 -92 30s-39 50.667 -45 92c-8.66699 -42.667 -24.667 -73.667 -48 -93s-55.333 -29 -96 -29c-52 0 -94.5 20.5 -127.5 61.5
s-49.5 104.167 -49.5 189.5c0 55.333 5.33301 106 16 152s25 91 43 135h84c-20.667 -54 -35.5 -102.833 -44.5 -146.5s-13.5 -87.167 -13.5 -130.5c0 -68 8.83301 -117.167 26.5 -147.5s43.5 -45.5 77.5 -45.5c28.667 0 51 8.83301 67 26.5s24 50.5 24 98.5v173l81 12v-186
c0 -82.667 29.333 -124 88 -124c71.333 0 107 61 107 183c0 48 -4.83301 94.167 -14.5 138.5s-24.834 93.833 -45.501 148.5h85c18 -44 32.5 -89.333 43.5 -136z" />
    </font>
</defs>
</svg>
